<?xml version="1.0" encoding="utf-8"?>
<svg viewBox="313.36 206.83 509.9 724.2" xmlns="http://www.w3.org/2000/svg">
  <defs>
    <style type="text/css">
	.st0{display:none;}
	.st1{display:inline;}
	.st2{fill:#B2B2B2;}
	.st3{fill:#D81625;}
	.st4{fill:#1E1E1E;}
	.st5{display:inline;fill:none;stroke:#B2B2B2;stroke-miterlimit:10;}
</style>
  </defs>
  <g id="Logo">
    <g>
      <path class="st3" d="M543.55,323.06l-2.1,0.28c-3.94,6.01-5.25,10.08-6.34,13.38c0.58,0.4,1.13,0.71,1.96,1.08 C539.02,331.86,542.19,325.46,543.55,323.06 M551.09,338.49c1.5-3.91,5.34-13.04,6.75-15.32c0,0-1.98-0.43-3.92-0.39 c-2.22,3.8-6.41,13.27-7.43,15.82C547.97,338.66,549.39,338.49,551.09,338.49 M542.59,338.66c1.94-5.15,4.59-11.12,7.42-16 c0,0-2.38,0-3.29,0.12c-2.85,4.52-6.85,13.67-7.51,15.75C539.22,338.54,540.02,338.97,542.59,338.66 M661.31,587.34 c6.07,2.72,10.1,15.88-3.18,21.86c6.77-17.13-19.53-32.86-46.85-16.39c0.9-1.12,1.83-2.21,2.69-3.35 c28.49-18.19,75.27,2.25,93.28-24.35c1.08,6.91-5.44,16.56-19.51,19.22c14.8,1.82,22.29,8.97,32.33,11.01 C710.21,595.68,685.7,582.92,661.31,587.34 M567.99,617.55c-47.88-29.64-69.04-92.6-71.81-162.83c5.98-0.59,19.49-1.84,35.03-2.74 c0.2,37.41,3.9,83.73,22.15,132.07c-1.8-27.01-4.38-81.46-3.77-132.89c6.14-0.18,12.25-0.27,18.06-0.18l0.35-0.26l0.34,0.26 c27.14-0.38,60.96,2.71,71.47,3.74C637.04,524.95,615.88,587.91,567.99,617.55 M478.49,609.66c-13.28-5.98-9.25-19.14-3.18-21.87 c-24.39-4.42-48.89,8.33-58.77,8c10.05-2.04,17.53-9.2,32.34-11.01c-14.07-2.67-20.59-12.31-19.51-19.24 c17.9,26.45,64.22,6.42,92.75,24.05c0.88,1.15,1.83,2.25,2.73,3.39C497.7,576.99,471.75,592.62,478.49,609.66 M496.69,411.15 c8.65-1.35,21.64-2.79,35.37-3.8c-0.21,7.87-0.51,16.69-0.7,26.33c-13.59,0.94-25.86,2.16-35.5,3.14 C495.89,428.33,496.17,419.76,496.69,411.15 M513,383.21c5.75-6.54,18.79-12.44,25.22-18.86c1.9,4.99,3.31,11,3.58,16.86 c-2.38,3.06-10.55,5.11-13.28,9.64c-0.35,1.65-0.61,3.95-0.65,6.61c-1.65,0.13-3.31,0.26-5,0.4c3.22-5.36-0.87-9.94-6.27-11.43 c0.68,5.44-1.93,8.27-3.74,8.62C508.95,393.97,509.77,386.88,513,383.21 M533.17,350.69c-3.58-1.07-6.13-7.03-4.65-10.78 c0.8-0.78,2.07-0.91,3.29-2.04c2.16-2,1.87-11.51,12.25-20.53c7.6-1.7,18.49-2.27,24.45-1.31c0.66,0.42,7.73,3.16,9.24,26.27 c8.06-1.02,12.26-2.04,15.32-2.95C582.41,348.19,535.5,351.39,533.17,350.69 M541.11,304.04c3.4-0.76,7.65-1.02,10.8-0.17 c1.96-0.68,7.49-1.28,10.72-0.17c4.94-1.2,11.13-0.72,13.59,0.2c3.01-1.37,8.77-0.71,11.26,0.14c8.84-2.13,13.41,2.18,13.41,4.96 c0,1.99-0.61,2.52-1.64,3.08c-3.61,1.99-2.59-3.54-10.27-5.3c3.34,1.68,3.6,5.42,7.34,6.18c-12.5,1.96-10.04-7.83-19.05-7.83 c3.85,1.13,4.45,5.85,8.2,7.65c-12.8,1.28-11.69-8.17-21.11-7.94c4.66,1.36,5.02,6.1,10.02,7.69 c-13.62,1.86-11.37-8.38-21.47-7.63c4.76,2.1,5.64,6.18,10.15,7.29c-12.65,3.37-12.28-7.15-20.59-6.3 c3.74,0.94,5.36,5.22,8.42,6.46c-7.14,2.64-6.89-3.32-13.02-3.24c2.38,0.94,3.29,2.84,5.5,3.95 C531.49,314.84,533.03,303.18,541.11,304.04 M589.27,330.16c1.6,0,2.89,1.26,2.89,2.81c0,1.55-1.29,2.81-2.89,2.81 c-1.6,0-2.9-1.26-2.9-2.81C586.37,331.41,587.67,330.16,589.27,330.16 M603.62,385.63c-4.31-0.23-4.82,0.62-7.2,1.19 c-5.96-9.02-6.64-25.01-1.2-34.77C594.77,364.07,596.59,381.21,603.62,385.63 M622.98,383.28c3.24,3.68,4.07,10.77,0.15,11.85 c-1.82-0.34-4.42-3.18-3.74-8.63c-1.81,0.5-3.45,1.35-4.75,2.46c-1.51-1.51-3.71-2.78-6.48-2.91c-5.03-5.38-6.95-12.18-7.47-19.05 C607.59,372.46,618.02,377.64,622.98,383.28 M612.01,393.8c-0.09,1.27,0.22,2.63,1.05,4.05c-4.87-0.41-9.58-0.75-14.12-1.03 C604.42,393.91,609.07,393.51,612.01,393.8 M589.1,383.7c-5.75-4.56-10.38-20.83-4.77-32.79c1.2-3.24,5.11-5.28,4.66-2.61 C585.81,358.52,586.15,374.63,589.1,383.7 M541.45,402.48c5.28-10.04,6.47-23.65-0.68-42.89c5.44,5.1,8.67,18.38,9.18,24.85 c1.76-2.5,2.5-10.44,1.82-15.72c4.19,16.67,1.02,39.82-3.07,43.45c-2.67-1.36-4.76-4.42-6.47-7.03c1.24,4.53,3.85,8.2,5.33,9.92 c26.54-9.02,45.83-30.57,61.04-24.9c-8.4,0.45-14.63,4.31-20.42,9.76c-9.02-1.37-15.77,15.65-43.79,24.1 c-3.51-2.21-7.35-13.5-8.73-17.47c-1.38-3.97-2.71-4.89-4.59-4.94c-0.74-4.19-0.06-8.39,0.68-10.04c0,0,2.1-2.21,7.77-4.25 C539.18,391.65,540.43,399.58,541.45,402.48 M639.3,411.15c0.52,8.61,0.8,17.17,0.83,25.67c-17.8-1.82-44.66-4.46-72.13-4.57 c-6.07,0.03-12.11,0.18-18.02,0.41c0.05-2.14,0.13-4.26,0.2-6.38c15.04-4.98,26.6-15.59,33.71-20.04 C604.09,406.95,626.47,409.15,639.3,411.15 M479.21,403.03c0.01,7.56,0.01,14.71,0.03,21.61c-0.98-3.47-3.45-7.22-8.13-11.1 c-4.54,21.94-28.66,21.96-40.02,8.38c4.32-17.17,25.61-26.71,46.71-31.87c0.54,5.7,2.56,9.67,5.42,12.38 C481.89,402.63,480.55,402.83,479.21,403.03 M464.65,444.74c3.85-0.34,12.49-5.46,14.62-13.06c0.08,11.08,0.28,21.61,0.8,32.21 C477.62,457.34,472.96,450.72,464.65,444.74 M658.19,390.13c21.11,5.16,42.38,14.7,46.72,31.87 c-11.36,13.57-35.47,13.55-40.02-8.39c-4.68,3.89-7.15,7.63-8.13,11.1c0.02-6.92,0.01-14.09,0.03-21.68 c-1.32-0.2-2.63-0.39-3.95-0.59C655.67,399.75,657.65,395.78,658.19,390.13 M655.91,463.97c0.53-10.59,0.72-21.13,0.8-32.21 c2.14,7.59,10.78,12.72,14.63,13.06C663.03,450.79,658.36,457.43,655.91,463.97 M732.33,593.06c2.27-1.58,8.17-7.43,8.85-16.28 c-15.66,13.62-38,7.32-38,7.32s26.09-8.68,4.65-37.95c1.36,26.89-27.11,30.31-48.67,30.3c-15.57-0.01-29.95,1.74-40.16,6.12 c18.11-25.74,29.61-54.04,32.73-75.32c1.09-7.48,1.94-14.59,2.61-21.49l0.11,0.69c2.04,11.1,6.24,15.99,24.96,23.81 c18.71,7.84,17.62,20.12,7.88,27.66c14.52,4.14,24.71-17.82,9.1-37.61c1.53-1.28,8.25-10.64-0.77-22.04 c-4.65,8.49-14.97,11.41-21.67,9.98c13.84,6.57,20.65-2.61,21.78-4.08c3.74,8.84-0.96,16.05-5.44,16.11 c7.72,5.9,13,12.86,11.21,23.94c-1.39-8.08-19.77-14.9-29.36-20.43c-7.49-4.31-11.91-16.16-1.3-22.16 c10.62-6,21.09-10.75,29.21-19.02c1.36,5.68,7.04,18.61,28.25,24.84c-23.95-35.5,9.18-37.1-7.15-69.54 c-2.72,30.85-45.61,38.12-45.61,38.12c35.73-14.3,47.09-35.34,40.51-56.17c-4.38-13.81-17.65-27.51-46.41-36.86 c5.68-1.13,9.65-2.67,12.59-5.33c-17.02,3.97-21.84,3.4-29.16,2.38c35.18,9.74,53.36,21.81,56.95,38.12 c1.77,8.04,0.45,14.88-2.63,20.23c-6.36-21.37-39.74-30.34-51.94-32.71c-0.03,6.91-2.89,11.25-6.94,13.86l-21.52-3.28 c2.23-2.62,3.49-6.65,2.42-11.09c-1.7-7.04-8.77-15.73-28.61-29.51c0.13-1.7,0.3-3.35,0.46-4.94 c8.81,7.04,25.83,16.05,41.03,20.14c-12.07-5.17-31.13-14.87-40.58-24.47c0.03-0.36,0.08-0.73,0.1-1.08 c0.11-1.17,0.18-2.35,0.25-3.52c17.39,13.14,32.38,16.13,37.84,16.13c-8.48-2.31-41.72-17.62-57.69-42.6 c3.48,0.1,6.95,0.23,10.35,0.36c1.79,2.84,9.31,13.97,22.97,23.98c-12.17-11.69-16.76-24.16-16.76-24.16l-0.14-0.01 c4.39-1.03,5.28-4.56,5.25-6.24c-0.05-2.68-1.3-8.61-16.17-7.79H587c-2.45-0.79-8.37-2.43-15.94-2.69c-0.68-4.26-4.09-6.3-5.79,0 c-5.83,0.53-11.61,1.9-13.9,2.49c-3.35-0.3-7.46-0.28-10.26,0.63c-6.49,0.41-9.05,3.77-9.14,7.1c-0.1,3.2,2.11,6.35,6.2,6.71 c-2.19,3.41-10.63,16.31-17.83,24.09c5-3.07,11.47-9.42,11.47-9.42l0.62-0.96c-0.75,2.5-1.38,4.73-1.99,6.18 c-1.14,1.14-3.27,1.87-3.55,2c-0.28,0.14-2.09,0.93-2.21,2.26l-0.02,0.53c-10.5,11.87-49.97,30.44-66.27,38.15 c17.89-7.51,41.11-14.51,66.35-33.24c0.18,1.4,0.51,2.58,0.9,3.6c-9.08,9.1-22.55,16.52-30.82,22.44 c12.75-5.13,24.66-13.88,32.66-19.26c0.54,0.6,1.09,1.05,1.6,1.34c0.63,0.24,2.28,0.37,2.95,0.45c0.7,0.62,1.4,1.49,2.11,2.48 c-19.04,13.35-25.91,21.86-27.57,28.77c-1.1,4.54,0.24,8.65,2.55,11.26l-21.46,3.26c-4.16-2.6-7.1-6.98-7.13-14.01 c-12.19,2.38-45.58,11.35-51.94,32.71c-3.08-5.36-4.4-12.2-2.63-20.23c3.59-16.31,21.77-28.36,56.95-38.12 c-7.32,1.02-12.14,1.58-29.16-2.38c2.95,2.67,6.92,4.2,12.59,5.33c-28.75,9.36-42.02,23.06-46.4,36.87 c-6.59,20.83,4.77,41.87,40.5,56.16c0,0-42.88-7.26-45.6-38.12c-16.34,32.45,16.79,34.04-7.15,69.55 c21.21-6.25,26.88-19.18,28.25-24.84c8.11,8.27,18.59,13.01,29.2,19.01c10.62,6,6.2,17.86-1.29,22.16 c-9.58,5.52-29.05,13.05-29.28,20.76c-2.04-11.12,3.41-18.37,11.12-24.28c-4.48-0.05-9.19-7.26-5.45-16.1 c1.13,1.47,7.94,10.66,21.78,4.07c-6.69,1.42-17.02-1.5-21.67-9.98c-9.03,11.4-2.3,20.76-0.77,22.04 c-2.62,3.5-12.82,17.66-4.89,31.76c1.77,3.13,6.9,8.14,13.94,5.87c-9.53-7.49-10.78-19.86,7.95-27.68 c18.71-7.83,22.91-12.71,24.95-23.83l0.11-0.65c0.67,6.93,1.52,14.04,2.61,21.54c3.13,21.35,14.71,49.77,32.93,75.59 c-10.19-4.25-24.38-5.95-39.73-5.94c-21.56,0.01-50.03-3.41-48.67-30.29c-21.44,29.28,4.65,37.95,4.65,37.95 s-22.35,6.29-38.01-7.32c0.68,8.84,6.58,14.7,8.85,16.28c-2.04,0.23-24.17,3.11-35.97-15.49c7.5,46.06,77.38,21.79,88.27,16.28 c-4.44,4.19-13.39,15.88-4.54,24.05c0.23-11.53,12.48-17.42,15.66-18.04c1.47,7.21,7.83,11.69,13.61,13.05 c-1.36-7.72-0.37-20.34,25.3-18.95c12.33,0.67,24.46,8.88,34.66,16.84l0.87,0.69c7.95,7.56,16.57,14.41,25.84,20.08 c9.2-5.62,17.76-12.39,25.66-19.89c0.56-0.44,1.11-0.87,1.69-1.32L630,593.98c25.67-1.39,26.66,11.23,25.3,18.94 c5.79-1.36,12.14-5.84,13.61-13.05c3.18,0.63,15.43,6.53,15.65,18.04c8.85-8.16-0.11-19.85-4.53-24.04 c10.88,5.5,80.77,29.78,88.25-16.29C756.5,596.19,734.37,593.3,732.33,593.06 M639.01,348.73c-8.56-0.97-13.16-2.5-18.92-5.89 c16.72,13.11,42.12,16.66,66.12,12.24c10.45-1.93,26.43-1.19,36.07,3.63c-3.06-5.95-19.17-16.9-27.43-18.07 c9.96-16.03,2.65-27.42,18.98-37.63c-2.89-2.84-12.65-4.65-19.97,0.32c-3.35-3.89-9.81-9.59-19.21-10.58 c-11.21-1.2-19.14,1.04-26.17,10.77c9.36-10.55,28.65-12.87,40.9-1.3c-19.51-9.53-33.24,9.3-34.43,29.72 c-5.27-6.8-7.94-17.64-7.77-20.87c-6.98,0.68-13.33,6.69-13.84,16.56c-2.55-3.4-9.53-22.58,3.86-31.99 c-3.86-4.54-5.22-9.53-4.03-12.88c8.68,5.27,21.73,3.8,36.02,7.2c-13.84-8.39-28.79-3.12-39.42-12.99 c-2.35,6.3,0.17,12.99,3.4,18.21c-14.8,16.34-3.91,37.61,3.07,41.52c-0.85-7.49,1.92-16.41,8.22-19.74 c1.44,10.62,10.83,20.59,12.37,23.32c0.18-5.28,1.97-26.42,9.53-25.81c4.64,0.38,8.27,9.19,6.58,15.55 C670.64,338.64,664.08,351.55,639.01,348.73 M560.55,337.47c0.98-2.13,2.93-8.39,4.55-13.28l-3.66-0.64 c-2.13,5.11-5.59,13.23-5.99,14.55C556.72,338.07,559.66,337.64,560.55,337.47 M449.78,355c23.99,4.42,49.39,0.87,66.12-12.23 c-5.76,3.38-10.35,4.92-18.93,5.88c-25.06,2.83-31.62-10.09-33.92-18.72c-1.7-6.34,1.93-15.16,6.58-15.54 c7.56-0.6,9.35,20.54,9.53,25.81c1.53-2.72,10.92-12.69,12.36-23.32c6.3,3.33,9.08,12.26,8.22,19.74 c6.98-3.91,17.87-25.19,3.07-41.52c3.23-5.21,5.75-11.91,3.4-18.2c-10.64,9.87-25.58,4.59-39.42,12.99 c14.3-3.4,27.34-1.93,36.02-7.21c1.18,3.36-0.18,8.34-4.03,12.88c13.39,9.41,6.41,28.59,3.86,31.99 c-0.51-9.87-6.86-15.88-13.84-16.56c0.17,3.23-2.5,14.06-7.77,20.87c-1.2-20.42-14.92-39.26-34.43-29.72 c12.25-11.57,31.54-9.25,40.9,1.3c-7.03-9.74-14.96-11.97-26.17-10.77c-9.4,1-15.86,6.69-19.21,10.59 c-7.32-4.97-17.07-3.16-19.96-0.32c16.33,10.21,9.02,21.61,18.98,37.63c-8.27,1.16-24.37,12.11-27.44,18.07 C423.35,353.81,439.33,353.07,449.78,355 M575.49,342.64c-6.83,0.65-24.84,2.67-38.12,1.3c-2.05-1.13-3.64-2.15-5.11-4.42 c0.22,3.29,1.36,5.39,2.72,7.32C541.22,347.74,570.95,345.01,575.49,342.64 M554.84,257.66c0.91,8.85,5.21,13.61,7.26,12.71 c2.04-0.91-2.27-17.7,7.5-26.32c-4.54,9.3-0.04,16.65,1.58,25.41c1.09,5.83-0.68,14.53-3.63,16.12 C564.59,287.15,551.66,277.85,554.84,257.66 M548.6,277.74c2.05,8.32,9.74,14.27,19.4,15.08c4.71,0.4,12.93-2.49,14.07-11.12 c-8.17,2.95-4.09-4.54,1.59-7.49c5.67-2.95,10.72-11.45,4.93-21.67c-1.36,11.23-12.8,16.1-11.51,9.65 c0.9-4.54,14.29-19.97,4.53-37.89c-1.36,5.44-1.02,10.55-5.45,9.53c-4.32-1-9.64-19.17-1.13-27 c-9.24,0.97-15.71,12.02-14.52,19.51c1.2,7.49,4.94,16.85,0,19.74c-2.76,1.62-4.72,0.4-5.28-1.87c-1.05-4.3,0.25-12.82-8.34-15.83 C552.68,239.96,544.42,260.84,548.6,277.74"/>
    </g>
    <g>
      <path class="st3" d="M821.26,656.29h-505.9c-1.1,0-2-0.9-2-2s0.9-2,2-2h505.9c1.1,0,2,0.9,2,2S822.36,656.29,821.26,656.29z"/>
    </g>
    <g>
      <path class="st4" d="M341.35,850.22c0,1.07-0.13,2.03-0.4,2.86c-0.27,0.84-0.59,1.58-0.97,2.21c-0.38,0.63-0.76,1.15-1.15,1.55 c-0.38,0.4-0.69,0.72-0.92,0.95c-0.38,0.38-0.85,0.76-1.4,1.15c-0.55,0.38-1.23,0.74-2.03,1.06c-0.8,0.33-1.77,0.59-2.89,0.8 c-1.13,0.21-2.47,0.32-4.04,0.32c-1.22,0-2.43-0.05-3.61-0.14c-1.18-0.09-2.39-0.14-3.61-0.14c-0.92,0-1.83,0.04-2.75,0.11 c-0.92,0.08-1.83,0.13-2.75,0.17c0.15-3.32,0.26-6.77,0.32-10.34c0.06-3.57,0.09-6.9,0.09-10c0-3.17-0.03-6.33-0.09-9.48 c-0.06-3.15-0.18-6.31-0.37-9.48c0.73,0.08,1.41,0.13,2.06,0.17c0.65,0.04,1.62,0.08,2.92,0.11c0.31,0,0.84-0.02,1.6-0.06 c0.76-0.04,1.57-0.07,2.41-0.09c0.84-0.02,1.63-0.05,2.38-0.09c0.75-0.04,1.27-0.06,1.58-0.06c1.6,0,3.12,0.13,4.56,0.4 s2.7,0.74,3.81,1.43c1.11,0.69,1.99,1.62,2.64,2.81c0.65,1.18,0.97,2.71,0.97,4.58c0,1.34-0.29,2.52-0.86,3.55 c-0.57,1.03-1.32,1.92-2.23,2.67c-0.92,0.75-1.95,1.35-3.09,1.8c-1.15,0.46-2.31,0.76-3.5,0.92c1.57,0.15,3.04,0.42,4.41,0.8 c1.38,0.38,2.58,0.97,3.61,1.75c1.03,0.78,1.84,1.8,2.44,3.04C341.05,846.79,341.35,848.35,341.35,850.22z M322.15,838.7 c0.42,0.04,0.82,0.07,1.2,0.09c0.38,0.02,0.76,0.03,1.15,0.03c2.52,0,4.45-0.64,5.79-1.92c1.34-1.28,2.01-3.18,2.01-5.7 c0-1.95-0.52-3.52-1.55-4.73s-2.54-1.8-4.53-1.8c-1.34,0-2.66,0.06-3.95,0.17c-0.04,0.76-0.07,1.54-0.09,2.32 c-0.02,0.78-0.03,1.56-0.03,2.32V838.7z M322.15,853.14c0,0.46,0.01,1.17,0.03,2.12c0.02,0.96,0.05,1.83,0.09,2.64 c0.57,0.08,1.09,0.15,1.55,0.23c0.46,0.08,0.97,0.11,1.55,0.11c2.71,0,4.79-0.68,6.25-2.03c1.45-1.36,2.18-3.43,2.18-6.22 c0-1.64-0.23-3.01-0.69-4.1c-0.46-1.09-1.1-1.97-1.92-2.64c-0.82-0.67-1.83-1.14-3.01-1.4c-1.18-0.27-2.5-0.4-3.95-0.4 c-0.65,0-1.34,0.06-2.06,0.17V853.14z"/>
      <path class="st4" d="M355.96,826.15c-0.08,2.18-0.12,4.57-0.14,7.16c-0.02,2.6-0.03,5.14-0.03,7.62c0,2.29,0.02,4.17,0.06,5.64 s0.11,2.68,0.23,3.64c0.11,0.96,0.29,1.74,0.52,2.35c0.23,0.61,0.55,1.2,0.97,1.78c0.84,1.11,2.01,1.97,3.5,2.58 c1.49,0.61,3.25,0.92,5.27,0.92c2.33,0,4.34-0.54,6.04-1.63c1.7-1.09,2.87-2.51,3.52-4.27c0.12-0.31,0.22-0.66,0.32-1.06 c0.09-0.4,0.17-0.91,0.23-1.52s0.1-1.33,0.14-2.15c0.04-0.82,0.06-1.82,0.06-3.01c0-3.74-0.03-7.48-0.09-11.2 c-0.06-3.72-0.2-7.46-0.43-11.2c0.42,0.08,0.84,0.15,1.26,0.23c0.42,0.08,0.86,0.11,1.32,0.11c0.46,0,0.92-0.04,1.38-0.11 c0.46-0.08,0.9-0.15,1.32-0.23l-0.17,2.75c-0.08,1.22-0.14,2.82-0.2,4.79s-0.11,4.02-0.14,6.16c-0.04,2.14-0.08,4.24-0.11,6.3 c-0.04,2.06-0.08,3.82-0.12,5.27c-0.04,1.68-0.18,3.15-0.43,4.41c-0.25,1.26-0.62,2.38-1.12,3.35c-0.5,0.97-1.1,1.81-1.8,2.52 c-0.71,0.71-1.54,1.37-2.49,1.98c-1.34,0.88-2.89,1.51-4.67,1.89c-1.78,0.38-3.43,0.57-4.96,0.57c-1.72,0-3.48-0.16-5.27-0.49 c-1.8-0.32-3.47-0.9-5.01-1.72c-1.55-0.82-2.88-1.95-3.98-3.38c-1.11-1.43-1.81-3.26-2.12-5.47c-0.08-0.42-0.11-0.96-0.11-1.63 s0-1.14,0-1.4v-15.59c0-0.72-0.01-1.54-0.03-2.43s-0.04-1.81-0.06-2.72c-0.02-0.92-0.05-1.82-0.09-2.72 c-0.04-0.9-0.08-1.71-0.12-2.44c0.65,0.08,1.32,0.15,2.01,0.23s1.36,0.11,2.01,0.11c0.65,0,1.29-0.04,1.92-0.11 c0.63-0.08,1.23-0.15,1.8-0.23L355.96,826.15z"/>
      <path class="st4" d="M390.16,852.51c0.65,1.45,1.32,2.61,2.01,3.47c0.69,0.86,1.4,1.52,2.15,1.98c0.75,0.46,1.51,0.76,2.29,0.92 c0.78,0.15,1.59,0.23,2.44,0.23c1.15,0,2.18-0.18,3.09-0.54c0.92-0.36,1.7-0.86,2.35-1.49c0.65-0.63,1.16-1.38,1.52-2.26 c0.36-0.88,0.54-1.83,0.54-2.87c0-1.15-0.19-2.11-0.57-2.89c-0.38-0.78-0.83-1.43-1.35-1.95c-0.52-0.52-1.04-0.91-1.58-1.17 c-0.54-0.27-0.94-0.46-1.2-0.57c-0.8-0.34-1.79-0.74-2.95-1.2c-1.17-0.46-2.15-0.86-2.95-1.2c-1.38-0.61-2.53-1.26-3.47-1.95 c-0.94-0.69-1.68-1.44-2.23-2.26c-0.55-0.82-0.95-1.72-1.17-2.69c-0.23-0.97-0.34-2.05-0.34-3.24c0-1.26,0.21-2.57,0.63-3.92 c0.42-1.36,1.14-2.59,2.15-3.7c1.01-1.11,2.38-2.02,4.1-2.75c1.72-0.72,3.88-1.09,6.47-1.09c2.1,0,3.86,0.23,5.27,0.69 c1.41,0.46,2.83,1.01,4.24,1.66c-0.31,0.69-0.54,1.26-0.72,1.72c-0.17,0.46-0.32,0.87-0.43,1.23c-0.11,0.36-0.22,0.74-0.32,1.12 c-0.1,0.38-0.2,0.84-0.31,1.38h-0.8c-0.42-1.64-1.32-2.88-2.69-3.72c-1.38-0.84-2.98-1.26-4.81-1.26c-2.25,0-3.95,0.61-5.07,1.83 c-1.13,1.22-1.69,2.67-1.69,4.35c0,1.03,0.18,1.9,0.54,2.61c0.36,0.71,0.88,1.33,1.55,1.86c0.67,0.54,1.5,1.01,2.49,1.43 c0.99,0.42,2.12,0.88,3.38,1.38c1.11,0.42,2.05,0.79,2.84,1.12c0.78,0.33,1.48,0.64,2.09,0.95c0.61,0.31,1.14,0.62,1.58,0.95 c0.44,0.32,0.87,0.72,1.29,1.17c0.61,0.65,1.1,1.33,1.46,2.03c0.36,0.71,0.64,1.4,0.83,2.09c0.19,0.69,0.32,1.34,0.4,1.95 c0.08,0.61,0.12,1.11,0.12,1.49c0,1.45-0.27,2.92-0.8,4.41c-0.54,1.49-1.38,2.84-2.55,4.04s-2.66,2.19-4.5,2.95 c-1.83,0.76-4.07,1.15-6.7,1.15c-1.22,0-2.38-0.11-3.47-0.31c-1.09-0.21-2.08-0.47-2.98-0.77c-0.9-0.31-1.71-0.62-2.43-0.95 c-0.73-0.32-1.34-0.62-1.83-0.89c0.23-0.73,0.42-1.35,0.57-1.86c0.15-0.52,0.27-1,0.34-1.46c0.08-0.46,0.14-0.93,0.2-1.4 c0.06-0.48,0.12-1.06,0.2-1.75H390.16z"/>
      <path class="st4" d="M421.73,835.03c0-1.83-0.02-3.8-0.06-5.9c-0.04-2.1-0.21-4.54-0.52-7.33c0.53,0.08,1.24,0.15,2.12,0.23 c0.88,0.08,1.53,0.11,1.95,0.11c0.65,0,1.32-0.04,2-0.11s1.38-0.15,2.06-0.23c-0.15,1.07-0.28,2.44-0.37,4.1 c-0.1,1.66-0.16,3.43-0.2,5.3c-0.04,1.87-0.06,3.73-0.06,5.59c0,1.85,0,3.51,0,4.96c0,4.28,0.04,7.99,0.12,11.14 c0.08,3.15,0.23,5.89,0.46,8.22c-0.65-0.04-1.32-0.1-2.01-0.2s-1.36-0.14-2-0.14c-0.65,0-1.34,0.05-2.06,0.14s-1.41,0.16-2.06,0.2 c0.31-3.44,0.49-7.41,0.54-11.92C421.71,844.68,421.73,839.96,421.73,835.03z"/>
      <path class="st4" d="M439.38,837.9c0-2.71-0.01-5.41-0.03-8.08c-0.02-2.67-0.05-5.35-0.09-8.02c0.23,0.04,0.46,0.07,0.69,0.09 c0.23,0.02,0.46,0.03,0.69,0.03c0.23,0,0.45-0.01,0.66-0.03c0.21-0.02,0.43-0.05,0.66-0.09c1.38,1.49,2.73,2.96,4.07,4.41 c1.34,1.45,2.71,2.9,4.13,4.35c1.41,1.45,2.88,2.95,4.41,4.5c1.53,1.55,3.15,3.16,4.87,4.84l6.76,6.65 c0.53,0.54,0.98,0.96,1.35,1.26c0.36,0.31,0.87,0.71,1.52,1.2v-12.72c0-2.44-0.07-4.88-0.2-7.31s-0.3-4.82-0.49-7.19 c0.34,0.08,0.71,0.15,1.09,0.23s0.84,0.11,1.38,0.11s0.98-0.04,1.35-0.11s0.72-0.15,1.06-0.23c-0.12,1.72-0.22,3.3-0.32,4.76 c-0.1,1.45-0.16,2.91-0.2,4.38c-0.04,1.47-0.07,3.02-0.09,4.64c-0.02,1.62-0.03,3.49-0.03,5.59c0,0.84,0,1.93,0,3.27 s0.01,2.72,0.03,4.15c0.02,1.43,0.03,2.8,0.03,4.1s0,2.31,0,3.04c0,0.31,0,0.71,0,1.2c0,0.5,0.01,1.02,0.03,1.58 c0.02,0.55,0.03,1.09,0.03,1.6s0,0.95,0,1.29c-0.19-0.04-0.38-0.07-0.57-0.09c-0.19-0.02-0.38-0.03-0.57-0.03s-0.39,0.01-0.6,0.03 s-0.41,0.05-0.6,0.09c-1.22-1.3-2.61-2.76-4.15-4.38c-1.55-1.62-3.16-3.29-4.84-5.01c-1.68-1.72-3.4-3.46-5.16-5.21 c-1.76-1.76-3.46-3.44-5.1-5.04s-3.17-3.08-4.58-4.44c-1.41-1.36-2.62-2.49-3.61-3.41c0,1.95,0,3.7,0,5.24s0.01,3.02,0.03,4.41 c0.02,1.39,0.04,2.76,0.06,4.1c0.02,1.34,0.05,2.77,0.09,4.3c0,0.84,0.01,1.54,0.03,2.09c0.02,0.55,0.05,1.14,0.09,1.75 c0.04,0.61,0.09,1.33,0.14,2.15c0.06,0.82,0.14,1.88,0.26,3.18c-0.31-0.04-0.71-0.1-1.2-0.2c-0.5-0.1-0.96-0.14-1.38-0.14 c-0.42,0-0.82,0.04-1.2,0.11c-0.38,0.08-0.75,0.15-1.09,0.23l0.46-7.96c0.04-0.38,0.07-0.91,0.09-1.58 c0.02-0.67,0.04-1.38,0.06-2.12c0.02-0.75,0.03-1.45,0.03-2.12s0-1.21,0-1.63V837.9z"/>
      <path class="st4" d="M490.09,838.82c0.72,0,1.63,0,2.72,0s2.22-0.02,3.41-0.06c1.18-0.04,2.33-0.09,3.44-0.14 c1.11-0.06,2.04-0.12,2.81-0.2c-0.08,0.31-0.14,0.62-0.2,0.95c-0.06,0.33-0.09,0.7-0.09,1.12c0,0.84,0.09,1.49,0.29,1.95 c-0.76-0.08-1.51-0.13-2.24-0.17s-1.45-0.08-2.18-0.11c-1.34-0.04-2.67-0.07-3.98-0.09c-1.32-0.02-2.65-0.03-3.98-0.03v15.53 c0.38,0,1.08-0.01,2.09-0.03c1.01-0.02,2.18-0.05,3.5-0.09c1.32-0.04,2.69-0.08,4.12-0.12c1.43-0.04,2.76-0.09,3.98-0.17 c-0.19,0.42-0.29,1.05-0.29,1.89c0,0.84,0.09,1.53,0.29,2.06c-3.44-0.23-6.95-0.34-10.54-0.34c-3.49,0-7.08,0.11-10.77,0.34 c0.08-1.22,0.13-2.42,0.17-3.58s0.08-2.36,0.11-3.58c0.04-0.84,0.07-1.86,0.09-3.07c0.02-1.2,0.04-2.42,0.06-3.67 c0.02-1.24,0.04-2.42,0.06-3.55c0.02-1.13,0.03-2.01,0.03-2.66c0-0.61-0.01-1.68-0.03-3.21c-0.02-1.53-0.05-3.24-0.09-5.13 c-0.04-1.89-0.09-3.81-0.14-5.76s-0.14-3.65-0.26-5.1c0.69,0.04,1.48,0.08,2.36,0.11c0.89,0.04,1.8,0.08,2.74,0.12 c0.94,0.04,1.88,0.07,2.8,0.09c0.92,0.02,1.76,0.03,2.53,0.03c1.34,0,2.91-0.04,4.73-0.11c1.81-0.08,3.75-0.15,5.82-0.23 c-0.08,0.34-0.14,0.65-0.2,0.92c-0.06,0.27-0.09,0.57-0.09,0.92c0,0.92,0.09,1.62,0.29,2.12l-5.39-0.29 c-0.54-0.04-1-0.07-1.4-0.09c-0.4-0.02-0.87-0.03-1.4-0.03c-0.54,0-1.2,0-2.01,0s-1.85,0-3.15,0V838.82z"/>
      <path class="st4" d="M511.12,852.51c0.65,1.45,1.32,2.61,2.01,3.47c0.69,0.86,1.4,1.52,2.15,1.98c0.75,0.46,1.51,0.76,2.29,0.92 c0.78,0.15,1.59,0.23,2.44,0.23c1.15,0,2.18-0.18,3.09-0.54c0.92-0.36,1.7-0.86,2.35-1.49c0.65-0.63,1.16-1.38,1.52-2.26 c0.36-0.88,0.54-1.83,0.54-2.87c0-1.15-0.19-2.11-0.57-2.89c-0.38-0.78-0.83-1.43-1.35-1.95c-0.52-0.52-1.04-0.91-1.58-1.17 c-0.54-0.27-0.94-0.46-1.2-0.57c-0.8-0.34-1.79-0.74-2.95-1.2c-1.17-0.46-2.15-0.86-2.95-1.2c-1.38-0.61-2.53-1.26-3.47-1.95 c-0.94-0.69-1.68-1.44-2.23-2.26c-0.55-0.82-0.95-1.72-1.17-2.69c-0.23-0.97-0.34-2.05-0.34-3.24c0-1.26,0.21-2.57,0.63-3.92 c0.42-1.36,1.14-2.59,2.15-3.7c1.01-1.11,2.38-2.02,4.1-2.75c1.72-0.72,3.88-1.09,6.47-1.09c2.1,0,3.86,0.23,5.27,0.69 c1.41,0.46,2.83,1.01,4.24,1.66c-0.31,0.69-0.54,1.26-0.72,1.72c-0.17,0.46-0.32,0.87-0.43,1.23c-0.11,0.36-0.22,0.74-0.32,1.12 c-0.1,0.38-0.2,0.84-0.31,1.38h-0.8c-0.42-1.64-1.32-2.88-2.69-3.72c-1.38-0.84-2.98-1.26-4.81-1.26c-2.25,0-3.95,0.61-5.07,1.83 c-1.13,1.22-1.69,2.67-1.69,4.35c0,1.03,0.18,1.9,0.54,2.61c0.36,0.71,0.88,1.33,1.55,1.86c0.67,0.54,1.5,1.01,2.49,1.43 c0.99,0.42,2.12,0.88,3.38,1.38c1.11,0.42,2.05,0.79,2.84,1.12c0.78,0.33,1.48,0.64,2.09,0.95c0.61,0.31,1.14,0.62,1.58,0.95 c0.44,0.32,0.87,0.72,1.29,1.17c0.61,0.65,1.1,1.33,1.46,2.03c0.36,0.71,0.64,1.4,0.83,2.09c0.19,0.69,0.32,1.34,0.4,1.95 c0.08,0.61,0.12,1.11,0.12,1.49c0,1.45-0.27,2.92-0.8,4.41c-0.54,1.49-1.38,2.84-2.55,4.04s-2.66,2.19-4.5,2.95 c-1.83,0.76-4.07,1.15-6.7,1.15c-1.22,0-2.38-0.11-3.47-0.31c-1.09-0.21-2.08-0.47-2.98-0.77c-0.9-0.31-1.71-0.62-2.43-0.95 c-0.73-0.32-1.34-0.62-1.83-0.89c0.23-0.73,0.42-1.35,0.57-1.86c0.15-0.52,0.27-1,0.34-1.46c0.08-0.46,0.14-0.93,0.2-1.4 c0.06-0.48,0.12-1.06,0.2-1.75H511.12z"/>
      <path class="st4" d="M541.89,852.51c0.65,1.45,1.32,2.61,2.01,3.47c0.69,0.86,1.4,1.52,2.15,1.98c0.75,0.46,1.51,0.76,2.29,0.92 c0.78,0.15,1.59,0.23,2.44,0.23c1.15,0,2.18-0.18,3.09-0.54c0.92-0.36,1.7-0.86,2.35-1.49c0.65-0.63,1.16-1.38,1.52-2.26 c0.36-0.88,0.54-1.83,0.54-2.87c0-1.15-0.19-2.11-0.57-2.89c-0.38-0.78-0.83-1.43-1.35-1.95c-0.52-0.52-1.04-0.91-1.58-1.17 c-0.54-0.27-0.94-0.46-1.2-0.57c-0.8-0.34-1.79-0.74-2.95-1.2c-1.17-0.46-2.15-0.86-2.95-1.2c-1.38-0.61-2.53-1.26-3.47-1.95 c-0.94-0.69-1.68-1.44-2.23-2.26c-0.55-0.82-0.95-1.72-1.17-2.69c-0.23-0.97-0.34-2.05-0.34-3.24c0-1.26,0.21-2.57,0.63-3.92 c0.42-1.36,1.14-2.59,2.15-3.7c1.01-1.11,2.38-2.02,4.1-2.75c1.72-0.72,3.88-1.09,6.47-1.09c2.1,0,3.86,0.23,5.27,0.69 c1.41,0.46,2.83,1.01,4.24,1.66c-0.31,0.69-0.54,1.26-0.72,1.72c-0.17,0.46-0.32,0.87-0.43,1.23c-0.11,0.36-0.22,0.74-0.32,1.12 c-0.1,0.38-0.2,0.84-0.31,1.38h-0.8c-0.42-1.64-1.32-2.88-2.69-3.72c-1.38-0.84-2.98-1.26-4.81-1.26c-2.25,0-3.95,0.61-5.07,1.83 c-1.13,1.22-1.69,2.67-1.69,4.35c0,1.03,0.18,1.9,0.54,2.61c0.36,0.71,0.88,1.33,1.55,1.86c0.67,0.54,1.5,1.01,2.49,1.43 c0.99,0.42,2.12,0.88,3.38,1.38c1.11,0.42,2.05,0.79,2.84,1.12c0.78,0.33,1.48,0.64,2.09,0.95c0.61,0.31,1.14,0.62,1.58,0.95 c0.44,0.32,0.87,0.72,1.29,1.17c0.61,0.65,1.1,1.33,1.46,2.03c0.36,0.71,0.64,1.4,0.83,2.09c0.19,0.69,0.32,1.34,0.4,1.95 c0.08,0.61,0.12,1.11,0.12,1.49c0,1.45-0.27,2.92-0.8,4.41c-0.54,1.49-1.38,2.84-2.55,4.04s-2.66,2.19-4.5,2.95 c-1.83,0.76-4.07,1.15-6.7,1.15c-1.22,0-2.38-0.11-3.47-0.31c-1.09-0.21-2.08-0.47-2.98-0.77c-0.9-0.31-1.71-0.62-2.43-0.95 c-0.73-0.32-1.34-0.62-1.83-0.89c0.23-0.73,0.42-1.35,0.57-1.86c0.15-0.52,0.27-1,0.34-1.46c0.08-0.46,0.14-0.93,0.2-1.4 c0.06-0.48,0.12-1.06,0.2-1.75H541.89z"/>
      <path class="st4" d="M587.56,852.51c0.65,1.45,1.32,2.61,2.01,3.47c0.69,0.86,1.4,1.52,2.15,1.98c0.75,0.46,1.51,0.76,2.29,0.92 c0.78,0.15,1.59,0.23,2.44,0.23c1.15,0,2.18-0.18,3.09-0.54c0.92-0.36,1.7-0.86,2.35-1.49c0.65-0.63,1.16-1.38,1.52-2.26 c0.36-0.88,0.54-1.83,0.54-2.87c0-1.15-0.19-2.11-0.57-2.89c-0.38-0.78-0.83-1.43-1.35-1.95c-0.52-0.52-1.04-0.91-1.58-1.17 c-0.54-0.27-0.94-0.46-1.2-0.57c-0.8-0.34-1.79-0.74-2.95-1.2c-1.17-0.46-2.15-0.86-2.95-1.2c-1.38-0.61-2.53-1.26-3.47-1.95 c-0.94-0.69-1.68-1.44-2.23-2.26c-0.55-0.82-0.95-1.72-1.17-2.69c-0.23-0.97-0.34-2.05-0.34-3.24c0-1.26,0.21-2.57,0.63-3.92 c0.42-1.36,1.14-2.59,2.15-3.7c1.01-1.11,2.38-2.02,4.1-2.75c1.72-0.72,3.88-1.09,6.47-1.09c2.1,0,3.86,0.23,5.27,0.69 c1.41,0.46,2.83,1.01,4.24,1.66c-0.31,0.69-0.54,1.26-0.72,1.72c-0.17,0.46-0.32,0.87-0.43,1.23c-0.11,0.36-0.22,0.74-0.32,1.12 c-0.1,0.38-0.2,0.84-0.31,1.38h-0.8c-0.42-1.64-1.32-2.88-2.69-3.72c-1.38-0.84-2.98-1.26-4.81-1.26c-2.25,0-3.95,0.61-5.07,1.83 c-1.13,1.22-1.69,2.67-1.69,4.35c0,1.03,0.18,1.9,0.54,2.61c0.36,0.71,0.88,1.33,1.55,1.86c0.67,0.54,1.5,1.01,2.49,1.43 c0.99,0.42,2.12,0.88,3.38,1.38c1.11,0.42,2.05,0.79,2.84,1.12c0.78,0.33,1.48,0.64,2.09,0.95c0.61,0.31,1.14,0.62,1.58,0.95 c0.44,0.32,0.87,0.72,1.29,1.17c0.61,0.65,1.1,1.33,1.46,2.03c0.36,0.71,0.64,1.4,0.83,2.09c0.19,0.69,0.32,1.34,0.4,1.95 c0.08,0.61,0.12,1.11,0.12,1.49c0,1.45-0.27,2.92-0.8,4.41c-0.54,1.49-1.38,2.84-2.55,4.04s-2.66,2.19-4.5,2.95 c-1.83,0.76-4.07,1.15-6.7,1.15c-1.22,0-2.38-0.11-3.47-0.31c-1.09-0.21-2.08-0.47-2.98-0.77c-0.9-0.31-1.71-0.62-2.43-0.95 c-0.73-0.32-1.34-0.62-1.83-0.89c0.23-0.73,0.42-1.35,0.57-1.86c0.15-0.52,0.27-1,0.34-1.46c0.08-0.46,0.14-0.93,0.2-1.4 c0.06-0.48,0.12-1.06,0.2-1.75H587.56z"/>
      <path class="st4" d="M650.53,829.82h-0.57c-0.19-0.34-0.48-0.82-0.86-1.43c-0.38-0.61-0.97-1.2-1.78-1.78 c-0.8-0.57-1.87-1.08-3.21-1.52c-1.34-0.44-3.04-0.66-5.1-0.66c-4.81,0-8.46,1.49-10.94,4.47c-2.48,2.98-3.72,7.2-3.72,12.66 c0,0.5,0.02,1.18,0.06,2.06c0.04,0.88,0.16,1.86,0.37,2.95s0.55,2.23,1.03,3.44c0.48,1.2,1.16,2.38,2.03,3.52 c0.5,0.69,1.08,1.34,1.75,1.95c0.67,0.61,1.42,1.17,2.26,1.66c0.84,0.5,1.79,0.89,2.84,1.17c1.05,0.29,2.22,0.43,3.52,0.43 c1.76,0,3.31-0.2,4.67-0.6c1.36-0.4,2.56-0.92,3.61-1.55c1.05-0.63,1.98-1.33,2.78-2.09c0.8-0.76,1.53-1.53,2.18-2.29l0.63,0.4 l-0.63,5.67c-4.35,2.41-9.19,3.61-14.5,3.61c-2.79,0-5.42-0.43-7.91-1.29s-4.65-2.12-6.5-3.78c-1.85-1.66-3.32-3.73-4.41-6.22 c-1.09-2.48-1.63-5.33-1.63-8.54c0-2.87,0.45-5.56,1.35-8.08c0.9-2.52,2.26-4.72,4.1-6.59c1.83-1.87,4.15-3.35,6.96-4.44 c2.81-1.09,6.12-1.63,9.94-1.63c2.37,0,4.62,0.22,6.76,0.66c2.14,0.44,4.36,1.17,6.65,2.21L650.53,829.82z"/>
      <path class="st4" d="M685.14,841.79c-1.56-0.08-3.1-0.13-4.63-0.17c-1.52-0.04-3.07-0.06-4.63-0.06c-1.64,0-3.27,0.02-4.88,0.06 c-1.62,0.04-3.25,0.1-4.88,0.17v5.73c0,1.83,0.01,3.41,0.03,4.73c0.02,1.32,0.06,2.48,0.12,3.5c0.06,1.01,0.11,1.93,0.17,2.75 c0.06,0.82,0.12,1.69,0.2,2.61c-0.42-0.04-0.98-0.1-1.69-0.2c-0.71-0.1-1.46-0.14-2.26-0.14c-0.69,0-1.37,0.04-2.03,0.11 c-0.67,0.08-1.35,0.15-2.03,0.23c0.23-4.39,0.37-8.74,0.43-13.04c0.06-4.3,0.09-8.64,0.09-13.04c0-2.25-0.05-4.47-0.14-6.65 c-0.1-2.18-0.24-4.37-0.43-6.59c0.57,0.08,1.29,0.15,2.15,0.23s1.52,0.11,1.98,0.11c0.27,0,0.59-0.01,0.97-0.03 c0.38-0.02,0.76-0.05,1.15-0.09s0.74-0.08,1.06-0.12c0.32-0.04,0.58-0.08,0.77-0.11c-0.08,0.8-0.14,1.6-0.2,2.38 c-0.06,0.78-0.12,1.77-0.17,2.95c-0.06,1.18-0.1,2.65-0.12,4.38c-0.02,1.74-0.03,3.95-0.03,6.62c1.45,0.08,2.88,0.13,4.31,0.17 c1.43,0.04,2.87,0.06,4.31,0.06c1.75,0,3.48-0.02,5.2-0.06c1.71-0.04,3.45-0.09,5.2-0.17c0-0.38,0-1.04,0-1.98 c0-0.94-0.01-1.93-0.03-2.98c-0.02-1.05-0.04-2.04-0.06-2.98c-0.02-0.94-0.03-1.58-0.03-1.92c0-0.46,0-0.85,0-1.17 c0-0.32-0.02-0.71-0.06-1.15c-0.04-0.44-0.08-0.97-0.11-1.6c-0.04-0.63-0.08-1.48-0.12-2.55c0.54,0.08,1.21,0.15,2.02,0.23 c0.81,0.08,1.54,0.11,2.2,0.11c0.54,0,1.21-0.04,2.02-0.11s1.48-0.15,2.01-0.23c-0.19,1.49-0.33,3.39-0.43,5.7 c-0.1,2.31-0.17,4.71-0.23,7.19c-0.06,2.48-0.1,4.88-0.12,7.19c-0.02,2.31-0.03,4.21-0.03,5.7c0,2.29,0.02,4.6,0.06,6.93 c0.04,2.33,0.21,4.53,0.52,6.59c-0.69-0.08-1.39-0.15-2.1-0.23c-0.71-0.08-1.42-0.11-2.11-0.11c-0.62,0-1.27,0.04-1.96,0.11 c-0.69,0.08-1.35,0.15-1.96,0.23c0-0.27,0.03-0.84,0.09-1.72s0.11-1.85,0.17-2.92c0.06-1.07,0.1-2.11,0.14-3.12 c0.04-1.01,0.06-1.79,0.06-2.32L685.14,841.79z"/>
      <path class="st4" d="M721.98,821.34c2.67,0,5.28,0.37,7.82,1.12c2.54,0.74,4.8,1.92,6.79,3.52c1.99,1.6,3.58,3.64,4.78,6.1 s1.8,5.42,1.8,8.85c0,3.21-0.52,6.1-1.55,8.68c-1.03,2.58-2.48,4.78-4.35,6.59c-1.87,1.82-4.13,3.22-6.76,4.21 s-5.54,1.49-8.71,1.49c-2.98,0-5.77-0.43-8.37-1.29s-4.86-2.12-6.79-3.78c-1.93-1.66-3.45-3.71-4.56-6.16 c-1.11-2.44-1.66-5.23-1.66-8.37c0-3.63,0.58-6.76,1.75-9.4s2.73-4.81,4.7-6.53c1.97-1.72,4.25-2.99,6.85-3.81 C716.33,821.75,719.08,821.34,721.98,821.34z M708.29,841.62c0,2.14,0.24,4.25,0.72,6.33c0.48,2.08,1.26,3.93,2.35,5.56 c1.09,1.62,2.48,2.94,4.18,3.95c1.7,1.01,3.79,1.52,6.27,1.52c2.44,0,4.52-0.52,6.22-1.55c1.7-1.03,3.09-2.38,4.18-4.04 c1.09-1.66,1.88-3.52,2.38-5.59c0.5-2.06,0.75-4.12,0.75-6.19c0-2.33-0.24-4.54-0.72-6.65c-0.48-2.1-1.24-3.94-2.29-5.53 c-1.05-1.58-2.44-2.85-4.15-3.78c-1.72-0.94-3.84-1.4-6.36-1.4c-2.48,0-4.58,0.54-6.27,1.6c-1.7,1.07-3.09,2.45-4.18,4.12 c-1.09,1.68-1.87,3.55-2.35,5.62C708.52,837.67,708.29,839.67,708.29,841.62z"/>
      <path class="st4" d="M770.8,821.34c2.67,0,5.28,0.37,7.82,1.12c2.54,0.74,4.8,1.92,6.79,3.52c1.99,1.6,3.58,3.64,4.78,6.1 s1.8,5.42,1.8,8.85c0,3.21-0.52,6.1-1.55,8.68c-1.03,2.58-2.48,4.78-4.35,6.59c-1.87,1.82-4.13,3.22-6.76,4.21 s-5.54,1.49-8.71,1.49c-2.98,0-5.77-0.43-8.37-1.29s-4.86-2.12-6.79-3.78c-1.93-1.66-3.45-3.71-4.56-6.16 c-1.11-2.44-1.66-5.23-1.66-8.37c0-3.63,0.58-6.76,1.75-9.4s2.73-4.81,4.7-6.53c1.97-1.72,4.25-2.99,6.85-3.81 C765.15,821.75,767.9,821.34,770.8,821.34z M757.11,841.62c0,2.14,0.24,4.25,0.72,6.33c0.48,2.08,1.26,3.93,2.35,5.56 c1.09,1.62,2.48,2.94,4.18,3.95c1.7,1.01,3.79,1.52,6.27,1.52c2.44,0,4.52-0.52,6.22-1.55c1.7-1.03,3.09-2.38,4.18-4.04 c1.09-1.66,1.88-3.52,2.38-5.59c0.5-2.06,0.75-4.12,0.75-6.19c0-2.33-0.24-4.54-0.72-6.65c-0.48-2.1-1.24-3.94-2.29-5.53 c-1.05-1.58-2.44-2.85-4.15-3.78c-1.72-0.94-3.84-1.4-6.36-1.4c-2.48,0-4.58,0.54-6.27,1.6c-1.7,1.07-3.09,2.45-4.18,4.12 c-1.09,1.68-1.87,3.55-2.35,5.62C757.34,837.67,757.11,839.67,757.11,841.62z"/>
      <path class="st4" d="M800.37,837.44c0-0.61,0-1.15,0-1.6c0-0.46-0.01-0.96-0.03-1.52c-0.02-0.55-0.04-1.22-0.06-2 c-0.02-0.78-0.05-1.81-0.09-3.07c0-0.31-0.01-0.81-0.03-1.52s-0.05-1.45-0.09-2.24c-0.04-0.78-0.07-1.53-0.09-2.23 c-0.02-0.71-0.03-1.19-0.03-1.46c0.73,0.15,1.38,0.25,1.98,0.29c0.59,0.04,1.25,0.06,1.98,0.06c0.72,0,1.39-0.03,2-0.09 s1.28-0.14,2.01-0.26c-0.11,2.18-0.2,4.28-0.26,6.29c-0.06,2.01-0.11,4.02-0.17,6.03c-0.06,2.01-0.1,4.03-0.11,6.05 c-0.02,2.03-0.03,4.15-0.03,6.37c0,2.03,0.02,3.95,0.06,5.77c0.04,1.82,0.08,3.53,0.11,5.14h1.03c0.42,0,1.18,0,2.29,0 c1.11,0,2.34-0.02,3.7-0.06c1.36-0.04,2.7-0.11,4.04-0.19c1.34-0.08,2.42-0.19,3.27-0.32c-0.08,0.31-0.14,0.6-0.2,0.89 c-0.06,0.29-0.09,0.75-0.09,1.4c0,0.42,0.02,0.75,0.06,1c0.04,0.25,0.12,0.56,0.23,0.95c-0.73-0.04-1.56-0.08-2.49-0.11 c-0.94-0.04-1.9-0.08-2.89-0.12c-0.99-0.04-1.98-0.07-2.95-0.09c-0.97-0.02-1.84-0.03-2.61-0.03c-1.83,0-3.59,0.03-5.27,0.09 c-1.68,0.06-3.57,0.14-5.67,0.26c0-0.15,0.01-0.61,0.03-1.38c0.02-0.76,0.05-1.69,0.09-2.78s0.07-2.25,0.09-3.5 s0.05-2.42,0.09-3.52c0.04-1.11,0.07-2.07,0.09-2.89c0.02-0.82,0.03-1.35,0.03-1.58V837.44z"/>
    </g>
    <g>
      <g>
        <path class="st4" d="M334.85,927.99c-0.47,0.23-1.04,0.44-1.71,0.62c-0.67,0.18-1.41,0.35-2.24,0.49 c-0.82,0.15-1.69,0.22-2.58,0.22c-1.92,0-3.69-0.27-5.31-0.82c-1.63-0.55-3.03-1.38-4.2-2.49c-1.18-1.12-2.1-2.48-2.76-4.09 c-0.67-1.61-1-3.45-1-5.51c0-2.06,0.33-3.9,1-5.51c0.67-1.61,1.6-2.98,2.8-4.09c1.2-1.12,2.64-1.96,4.31-2.55 c1.67-0.58,3.52-0.87,5.53-0.87c1.6,0,3.06,0.16,4.38,0.49c1.32,0.33,2.49,0.72,3.51,1.18c-0.19,0.34-0.35,0.8-0.47,1.38 c-0.12,0.58-0.22,1.07-0.29,1.46l-0.22,0.07c-0.24-0.29-0.58-0.62-1.02-0.98c-0.44-0.36-0.95-0.71-1.53-1.05 s-1.24-0.62-1.96-0.86c-0.73-0.23-1.53-0.35-2.4-0.35c-1.43,0-2.76,0.23-3.98,0.69c-1.23,0.46-2.29,1.17-3.2,2.13 c-0.91,0.96-1.62,2.17-2.13,3.64s-0.76,3.21-0.76,5.22s0.25,3.75,0.76,5.22c0.51,1.47,1.22,2.68,2.13,3.64 c0.91,0.96,1.98,1.67,3.2,2.13c1.22,0.46,2.55,0.69,3.98,0.69c0.87,0,1.68-0.11,2.42-0.33c0.74-0.22,1.42-0.48,2.04-0.78 c0.62-0.3,1.18-0.63,1.67-0.98c0.5-0.35,0.92-0.66,1.25-0.93l0.15,0.15l-0.33,2.15C335.67,927.55,335.32,927.76,334.85,927.99z"/>
        <path class="st4" d="M340.81,908.56c-0.06-1.54-0.13-3.11-0.2-4.71c0.32,0.05,0.62,0.09,0.91,0.13s0.58,0.05,0.87,0.05 s0.58-0.02,0.87-0.05s0.59-0.08,0.91-0.13c-0.07,1.6-0.14,3.17-0.2,4.71c-0.06,1.54-0.09,3.11-0.09,4.71v6.26 c0,1.6,0.03,3.18,0.09,4.73s0.13,3.08,0.2,4.58c-0.56-0.05-1.15-0.07-1.78-0.07s-1.22,0.02-1.78,0.07 c0.07-1.5,0.14-3.03,0.2-4.58s0.09-3.13,0.09-4.73v-6.26C340.91,911.67,340.88,910.1,340.81,908.56z"/>
        <path class="st4" d="M355.53,905.74c-0.63,0-1.29,0.01-1.98,0.02c-0.69,0.01-1.38,0.04-2.07,0.07c-0.69,0.04-1.36,0.08-2,0.13 s-1.22,0.11-1.73,0.18c0.12-0.44,0.18-0.82,0.18-1.16c0-0.27-0.06-0.64-0.18-1.13c1.6,0.05,3.17,0.09,4.69,0.13 s3.09,0.05,4.69,0.05c1.6,0,3.17-0.02,4.69-0.05s3.09-0.08,4.69-0.13c-0.12,0.49-0.18,0.87-0.18,1.16c0,0.32,0.06,0.69,0.18,1.13 c-0.51-0.07-1.09-0.13-1.73-0.18c-0.64-0.05-1.31-0.09-2-0.13c-0.69-0.04-1.38-0.06-2.07-0.07c-0.69-0.01-1.35-0.02-1.98-0.02 c-0.07,2.5-0.11,5.01-0.11,7.53v6.26c0,1.6,0.03,3.18,0.09,4.73s0.13,3.08,0.2,4.58c-0.56-0.05-1.15-0.07-1.78-0.07 s-1.22,0.02-1.78,0.07c0.07-1.5,0.14-3.03,0.2-4.58c0.06-1.55,0.09-3.13,0.09-4.73v-6.26 C355.64,910.75,355.61,908.24,355.53,905.74z"/>
        <path class="st4" d="M375.38,916.82c-0.47-0.79-1-1.66-1.56-2.62c-0.57-0.96-1.17-1.96-1.8-3.02c-0.63-1.06-1.23-2.06-1.8-3.02 c-0.57-0.96-1.09-1.82-1.55-2.58c-0.46-0.76-0.81-1.34-1.05-1.73c0.34,0.05,0.67,0.09,1,0.13c0.33,0.04,0.66,0.05,1,0.05 s0.67-0.02,1-0.05c0.33-0.04,0.66-0.08,1-0.13c1.09,2.11,2.2,4.18,3.33,6.22c1.13,2.04,2.32,4.16,3.58,6.37 c0.56-0.87,1.14-1.83,1.75-2.88c0.61-1.04,1.21-2.11,1.82-3.2c0.61-1.09,1.19-2.19,1.75-3.29c0.56-1.1,1.08-2.18,1.56-3.22 c0.61,0.12,1.08,0.18,1.42,0.18s0.81-0.06,1.42-0.18c-1.16,1.77-2.21,3.37-3.13,4.8c-0.92,1.43-1.73,2.73-2.44,3.89 c-0.7,1.16-1.32,2.21-1.86,3.15s-1,1.78-1.38,2.53c0,0.9,0.01,1.86,0.02,2.87c0.01,1.02,0.03,2.02,0.05,3 c0.02,0.98,0.05,1.89,0.09,2.73s0.08,1.51,0.13,2.02c-0.56-0.05-1.15-0.07-1.78-0.07c-0.63,0-1.23,0.02-1.78,0.07 c0.15-1.26,0.23-2.79,0.25-4.58c0.02-1.79,0.04-3.68,0.04-5.64C376.21,918.21,375.86,917.61,375.38,916.82z"/>
        <path class="st4" d="M420.78,907.71c-0.02-1.87-0.09-3.15-0.18-3.86c0.27,0.05,0.52,0.09,0.76,0.13 c0.24,0.04,0.49,0.05,0.73,0.05c0.32,0,0.68-0.06,1.09-0.18c-0.07,0.85-0.15,1.86-0.22,3.04c-0.07,1.18-0.13,2.44-0.18,3.78 s-0.1,2.73-0.15,4.15s-0.08,2.8-0.11,4.13c-0.02,1.62-0.27,3.08-0.75,4.37c-0.47,1.29-1.15,2.38-2.02,3.27 c-0.87,0.9-1.95,1.58-3.22,2.04s-2.74,0.69-4.38,0.69c-3.64,0-6.28-0.82-7.93-2.47c-1.65-1.65-2.47-4.26-2.47-7.82 c0-1.14,0.03-2.15,0.09-3.04c0.06-0.88,0.09-1.79,0.09-2.71c0-2.04-0.02-3.84-0.07-5.42c-0.05-1.58-0.1-2.91-0.15-4 c0.29,0.05,0.61,0.09,0.95,0.13s0.66,0.05,0.95,0.05c0.27,0,0.53-0.02,0.78-0.05s0.52-0.08,0.78-0.13 c-0.05,0.53-0.1,1.23-0.15,2.09c-0.05,0.86-0.1,1.84-0.15,2.93c-0.05,1.09-0.08,2.27-0.11,3.53c-0.02,1.26-0.04,2.57-0.04,3.93 c0,0.83,0.01,1.68,0.04,2.57s0.11,1.75,0.25,2.58s0.38,1.64,0.71,2.4c0.33,0.76,0.79,1.43,1.4,2s1.37,1.02,2.29,1.35 c0.92,0.33,2.06,0.49,3.42,0.49c1.33,0,2.46-0.19,3.37-0.58c0.91-0.39,1.66-0.9,2.24-1.53c0.58-0.63,1.04-1.36,1.36-2.18 c0.33-0.82,0.56-1.69,0.71-2.58c0.15-0.9,0.23-1.79,0.25-2.69c0.02-0.9,0.04-1.72,0.04-2.47 C420.81,912.23,420.8,909.57,420.78,907.71z"/>
        <path class="st4" d="M441.3,919.4c-3.15-3.38-6.31-6.75-9.46-10.1c-0.02,0.68-0.05,1.59-0.07,2.73 c-0.02,1.14-0.04,2.69-0.04,4.66c0,0.51,0.01,1.14,0.02,1.89c0.01,0.75,0.02,1.54,0.04,2.37c0.01,0.83,0.03,1.66,0.05,2.51 c0.02,0.85,0.05,1.64,0.07,2.37s0.05,1.36,0.07,1.91c0.02,0.55,0.05,0.92,0.07,1.11c-0.39-0.05-0.81-0.07-1.27-0.07 c-0.49,0-0.93,0.02-1.35,0.07c0.05-0.24,0.1-0.69,0.16-1.35s0.12-1.44,0.16-2.35c0.05-0.91,0.1-1.9,0.16-2.97s0.11-2.13,0.15-3.2 c0.04-1.07,0.07-2.11,0.09-3.13c0.02-1.02,0.04-1.93,0.04-2.73c0-2.33-0.01-4.33-0.02-6c-0.01-1.67-0.04-2.92-0.09-3.75h0.58 c1.48,1.6,3.06,3.32,4.75,5.15c1.69,1.83,3.36,3.64,5.02,5.42c1.66,1.78,3.24,3.47,4.73,5.06c1.49,1.59,2.8,2.94,3.91,4.06v-4.95 c0-2.55-0.02-5.03-0.05-7.44c-0.04-2.41-0.12-4.69-0.24-6.82c0.48,0.12,0.9,0.18,1.24,0.18c0.29,0,0.68-0.06,1.16-0.18 c-0.05,0.53-0.1,1.33-0.16,2.4s-0.12,2.21-0.18,3.42c-0.06,1.21-0.12,2.4-0.16,3.57s-0.07,2.1-0.07,2.8c0,0.61,0,1.33,0,2.18 c0,0.82,0.01,1.69,0.02,2.58c0.01,0.9,0.02,1.8,0.04,2.71c0.01,0.91,0.02,1.76,0.04,2.55c0.01,0.79,0.02,1.47,0.02,2.06 c0,0.53,0,0.93,0,1.2h-0.51C447.42,926.09,444.45,922.79,441.3,919.4z"/>
        <path class="st4" d="M457.51,908.56c-0.06-1.54-0.13-3.11-0.2-4.71c0.32,0.05,0.62,0.09,0.91,0.13s0.58,0.05,0.87,0.05 s0.58-0.02,0.87-0.05s0.59-0.08,0.91-0.13c-0.07,1.6-0.14,3.17-0.2,4.71c-0.06,1.54-0.09,3.11-0.09,4.71v6.26 c0,1.6,0.03,3.18,0.09,4.73s0.13,3.08,0.2,4.58c-0.56-0.05-1.15-0.07-1.78-0.07s-1.22,0.02-1.78,0.07 c0.07-1.5,0.14-3.03,0.2-4.58s0.09-3.13,0.09-4.73v-6.26C457.6,911.67,457.57,910.1,457.51,908.56z"/>
        <path class="st4" d="M472.44,923.68c-0.8-2.01-1.66-4.14-2.56-6.37c-0.91-2.23-1.84-4.51-2.8-6.84 c-0.96-2.33-1.87-4.54-2.75-6.62c0.34,0.05,0.67,0.09,0.98,0.13s0.62,0.05,0.91,0.05s0.59-0.02,0.91-0.05s0.64-0.08,0.98-0.13 c0.53,1.6,1.12,3.28,1.77,5.04c0.64,1.76,1.32,3.55,2.04,5.37s1.45,3.66,2.2,5.53s1.52,3.72,2.29,5.57c0.44-1,0.91-2.1,1.42-3.33 c0.51-1.22,1.02-2.5,1.55-3.82c0.52-1.32,1.04-2.67,1.55-4.04c0.51-1.37,1-2.69,1.47-3.95c0.47-1.26,0.9-2.44,1.29-3.53 c0.39-1.09,0.71-2.04,0.98-2.84c0.53,0.12,0.98,0.18,1.35,0.18c0.36,0,0.81-0.06,1.35-0.18c-1.89,4.22-3.71,8.41-5.46,12.55 c-1.75,4.15-3.42,8.3-5.02,12.44c-0.39-0.05-0.79-0.07-1.2-0.07c-0.49,0-0.89,0.02-1.2,0.07 C473.92,927.42,473.25,925.69,472.44,923.68z"/>
        <path class="st4" d="M491.02,908.51c-0.06-1.55-0.13-3.1-0.2-4.66c1.09,0.05,2.18,0.09,3.26,0.13s2.17,0.05,3.26,0.05 s2.17-0.02,3.24-0.05s2.15-0.08,3.24-0.13c-0.07,0.36-0.11,0.73-0.11,1.09c0,0.36,0.04,0.73,0.11,1.09 c-0.78-0.05-1.49-0.1-2.13-0.15c-0.64-0.05-1.32-0.1-2.04-0.15c-0.72-0.05-1.5-0.09-2.35-0.13c-0.85-0.04-1.87-0.05-3.06-0.05 c-0.02,0.78-0.05,1.52-0.09,2.22c-0.04,0.7-0.05,1.5-0.05,2.4c0,0.95,0.01,1.87,0.02,2.77c0.01,0.9,0.02,1.58,0.02,2.04 c1.07,0,2.03-0.01,2.88-0.04c0.85-0.02,1.62-0.05,2.33-0.09s1.35-0.07,1.95-0.11c0.59-0.04,1.16-0.08,1.69-0.13 c-0.07,0.36-0.11,0.74-0.11,1.13c0,0.36,0.04,0.73,0.11,1.09c-0.63-0.07-1.36-0.13-2.2-0.18c-0.84-0.05-1.67-0.08-2.51-0.09 c-0.84-0.01-1.62-0.02-2.37-0.04c-0.74-0.01-1.33-0.02-1.76-0.02c0,0.22-0.01,0.46-0.02,0.71c-0.01,0.25-0.02,0.58-0.02,0.96 v1.42v2.18c0,1.38,0.01,2.52,0.02,3.42c0.01,0.9,0.03,1.58,0.05,2.04c0.8,0,1.65,0,2.55,0c0.92,0,1.82-0.02,2.71-0.05 s1.72-0.08,2.51-0.15s1.47-0.15,2.06-0.27c-0.05,0.17-0.08,0.36-0.09,0.56c-0.01,0.21-0.02,0.39-0.02,0.56 c0,0.39,0.04,0.7,0.11,0.95c-1.09-0.05-2.18-0.07-3.26-0.07c-1.08,0-2.18,0-3.29,0c-1.12,0-2.22,0-3.31,0s-2.2,0.02-3.31,0.07 c0.07-1.55,0.14-3.1,0.2-4.64c0.06-1.54,0.09-3.11,0.09-4.71v-6.26C491.11,911.64,491.08,910.06,491.02,908.51z"/>
        <path class="st4" d="M508.78,908.56c-0.06-1.54-0.13-3.11-0.2-4.71c0.7,0.05,1.4,0.09,2.07,0.13s1.37,0.05,2.07,0.05 c0.7,0,1.39-0.03,2.07-0.09c0.68-0.06,1.37-0.09,2.07-0.09c1.02,0,1.99,0.1,2.91,0.29c0.92,0.19,1.73,0.52,2.42,0.96 c0.69,0.45,1.24,1.04,1.64,1.76c0.4,0.73,0.6,1.64,0.6,2.73c0,1.16-0.26,2.17-0.78,3c-0.52,0.84-1.16,1.53-1.91,2.07 c-0.75,0.55-1.56,0.97-2.42,1.27c-0.86,0.3-1.64,0.5-2.35,0.6c0.29,0.36,0.69,0.87,1.2,1.53c0.51,0.66,1.08,1.38,1.71,2.17 c0.63,0.79,1.29,1.61,1.96,2.47c0.68,0.86,1.33,1.69,1.96,2.47s1.22,1.51,1.78,2.17c0.56,0.66,1.01,1.15,1.35,1.49 c-0.36-0.05-0.73-0.07-1.09-0.07s-0.73,0-1.09,0c-0.34,0-0.69,0-1.05,0c-0.36,0-0.72,0.02-1.06,0.07 c-0.36-0.51-0.92-1.27-1.66-2.29c-0.74-1.02-1.56-2.11-2.46-3.27c-0.9-1.17-1.81-2.32-2.75-3.48c-0.93-1.15-1.79-2.13-2.57-2.93 h-1.38v2.66c0,1.6,0.03,3.18,0.09,4.73s0.13,3.08,0.2,4.58c-0.56-0.05-1.15-0.07-1.78-0.07s-1.22,0.02-1.78,0.07 c0.07-1.5,0.14-3.03,0.2-4.58s0.09-3.13,0.09-4.73v-6.26C508.87,911.67,508.84,910.1,508.78,908.56z M512.96,915.49 c0.4,0.02,0.84,0.04,1.33,0.04c0.75,0,1.53-0.08,2.35-0.25c0.81-0.17,1.56-0.47,2.24-0.89c0.68-0.42,1.24-1,1.69-1.71 c0.45-0.71,0.67-1.62,0.67-2.71c0-0.95-0.18-1.73-0.53-2.35c-0.35-0.62-0.81-1.11-1.37-1.47c-0.56-0.36-1.16-0.61-1.82-0.75 c-0.65-0.13-1.3-0.2-1.93-0.2c-0.85,0-1.55,0.02-2.11,0.05c-0.56,0.04-1.03,0.08-1.42,0.13c-0.05,1.33-0.1,2.66-0.15,3.97 s-0.07,2.62-0.07,3.93v2.07C512.19,915.42,512.56,915.47,512.96,915.49z"/>
        <path class="st4" d="M530.64,925.45c0.33,0.45,0.73,0.85,1.2,1.22c0.47,0.36,1.03,0.66,1.66,0.89c0.63,0.23,1.33,0.35,2.11,0.35 c0.8,0,1.52-0.14,2.17-0.42c0.64-0.28,1.19-0.65,1.64-1.13c0.45-0.47,0.79-1.03,1.04-1.67c0.24-0.64,0.36-1.33,0.36-2.06 c0-1.12-0.29-2-0.86-2.66c-0.57-0.66-1.28-1.2-2.13-1.64c-0.85-0.44-1.76-0.84-2.75-1.2c-0.98-0.36-1.9-0.82-2.75-1.37 c-0.85-0.54-1.56-1.24-2.13-2.09c-0.57-0.85-0.86-1.99-0.86-3.42c0-1.02,0.18-1.95,0.55-2.78s0.89-1.56,1.58-2.17 c0.69-0.61,1.52-1.08,2.49-1.42c0.97-0.34,2.06-0.51,3.28-0.51c1.16,0,2.17,0.14,3.02,0.42c0.85,0.28,1.64,0.71,2.37,1.29 c-0.22,0.41-0.4,0.85-0.55,1.31s-0.29,1.04-0.44,1.75h-0.44c-0.12-0.34-0.29-0.71-0.49-1.11s-0.49-0.77-0.84-1.11 s-0.77-0.62-1.26-0.86s-1.07-0.35-1.75-0.35c-0.68,0-1.3,0.11-1.87,0.33c-0.57,0.22-1.07,0.53-1.49,0.93 c-0.42,0.4-0.75,0.88-0.98,1.44c-0.23,0.56-0.35,1.17-0.35,1.82c0,1.14,0.29,2.04,0.86,2.69c0.57,0.65,1.28,1.21,2.13,1.66 c0.85,0.45,1.76,0.85,2.75,1.2c0.98,0.35,1.9,0.78,2.75,1.29c0.85,0.51,1.56,1.17,2.13,1.96c0.57,0.8,0.85,1.87,0.85,3.2 c0,1.12-0.2,2.17-0.6,3.17c-0.4,1-0.98,1.86-1.75,2.6c-0.76,0.74-1.7,1.31-2.8,1.71c-1.1,0.4-2.36,0.6-3.77,0.6 c-1.5,0-2.72-0.2-3.66-0.6c-0.93-0.4-1.72-0.86-2.35-1.36c0.22-0.56,0.37-1.06,0.45-1.51c0.08-0.45,0.16-1.03,0.24-1.73h0.44 C530.06,924.55,530.32,925,530.64,925.45z"/>
        <path class="st4" d="M548.33,908.56c-0.06-1.54-0.13-3.11-0.2-4.71c0.32,0.05,0.62,0.09,0.91,0.13s0.58,0.05,0.87,0.05 s0.58-0.02,0.87-0.05s0.59-0.08,0.91-0.13c-0.07,1.6-0.14,3.17-0.2,4.71c-0.06,1.54-0.09,3.11-0.09,4.71v6.26 c0,1.6,0.03,3.18,0.09,4.73s0.13,3.08,0.2,4.58c-0.56-0.05-1.15-0.07-1.78-0.07s-1.22,0.02-1.78,0.07 c0.07-1.5,0.14-3.03,0.2-4.58s0.09-3.13,0.09-4.73v-6.26C548.42,911.67,548.39,910.1,548.33,908.56z"/>
        <path class="st4" d="M562.76,905.74c-0.63,0-1.29,0.01-1.98,0.02c-0.69,0.01-1.38,0.04-2.07,0.07c-0.69,0.04-1.36,0.08-2,0.13 s-1.22,0.11-1.73,0.18c0.12-0.44,0.18-0.82,0.18-1.16c0-0.27-0.06-0.64-0.18-1.13c1.6,0.05,3.17,0.09,4.69,0.13 s3.09,0.05,4.69,0.05c1.6,0,3.17-0.02,4.69-0.05s3.09-0.08,4.69-0.13c-0.12,0.49-0.18,0.87-0.18,1.16c0,0.32,0.06,0.69,0.18,1.13 c-0.51-0.07-1.09-0.13-1.73-0.18c-0.64-0.05-1.31-0.09-2-0.13c-0.69-0.04-1.38-0.06-2.07-0.07c-0.69-0.01-1.35-0.02-1.98-0.02 c-0.07,2.5-0.11,5.01-0.11,7.53v6.26c0,1.6,0.03,3.18,0.09,4.73s0.13,3.08,0.2,4.58c-0.56-0.05-1.15-0.07-1.78-0.07 s-1.22,0.02-1.78,0.07c0.07-1.5,0.14-3.03,0.2-4.58c0.06-1.55,0.09-3.13,0.09-4.73v-6.26 C562.87,910.75,562.83,908.24,562.76,905.74z"/>
        <path class="st4" d="M583.08,916.82c-0.47-0.79-1-1.66-1.56-2.62c-0.57-0.96-1.17-1.96-1.8-3.02c-0.63-1.06-1.23-2.06-1.8-3.02 c-0.57-0.96-1.09-1.82-1.55-2.58c-0.46-0.76-0.81-1.34-1.05-1.73c0.34,0.05,0.67,0.09,1,0.13c0.33,0.04,0.66,0.05,1,0.05 s0.67-0.02,1-0.05c0.33-0.04,0.66-0.08,1-0.13c1.09,2.11,2.2,4.18,3.33,6.22c1.13,2.04,2.32,4.16,3.58,6.37 c0.56-0.87,1.14-1.83,1.75-2.88c0.61-1.04,1.21-2.11,1.82-3.2c0.61-1.09,1.19-2.19,1.75-3.29c0.56-1.1,1.08-2.18,1.56-3.22 c0.61,0.12,1.08,0.18,1.42,0.18s0.81-0.06,1.42-0.18c-1.16,1.77-2.21,3.37-3.13,4.8c-0.92,1.43-1.73,2.73-2.44,3.89 c-0.7,1.16-1.32,2.21-1.86,3.15s-1,1.78-1.38,2.53c0,0.9,0.01,1.86,0.02,2.87c0.01,1.02,0.03,2.02,0.05,3 c0.02,0.98,0.05,1.89,0.09,2.73s0.08,1.51,0.13,2.02c-0.56-0.05-1.15-0.07-1.78-0.07c-0.63,0-1.23,0.02-1.78,0.07 c0.15-1.26,0.23-2.79,0.25-4.58c0.02-1.79,0.04-3.68,0.04-5.64C583.91,918.21,583.55,917.61,583.08,916.82z"/>
        <path class="st4" d="M608.51,910.89c0.67-1.61,1.6-2.98,2.8-4.09c1.2-1.12,2.64-1.96,4.31-2.55c1.67-0.58,3.5-0.87,5.49-0.87 c2.01,0,3.86,0.29,5.53,0.87c1.67,0.58,3.11,1.43,4.31,2.55c1.2,1.12,2.13,2.48,2.8,4.09s1,3.45,1,5.51c0,2.06-0.33,3.9-1,5.51 c-0.67,1.61-1.6,2.98-2.8,4.09c-1.2,1.12-2.64,1.95-4.31,2.49c-1.67,0.54-3.52,0.82-5.53,0.82c-1.99,0-3.82-0.27-5.49-0.82 c-1.67-0.55-3.11-1.38-4.31-2.49c-1.2-1.12-2.14-2.48-2.8-4.09c-0.67-1.61-1-3.45-1-5.51 C607.51,914.34,607.85,912.5,608.51,910.89z M630.44,911.18c-0.51-1.47-1.22-2.68-2.13-3.64c-0.91-0.96-1.98-1.67-3.2-2.13 s-2.55-0.69-3.98-0.69c-1.41,0-2.72,0.23-3.95,0.69c-1.23,0.46-2.29,1.17-3.2,2.13c-0.91,0.96-1.62,2.17-2.13,3.64 s-0.76,3.21-0.76,5.22s0.25,3.75,0.76,5.22c0.51,1.47,1.22,2.68,2.13,3.64c0.91,0.96,1.98,1.67,3.2,2.13 c1.22,0.46,2.54,0.69,3.95,0.69c1.43,0,2.76-0.23,3.98-0.69c1.22-0.46,2.29-1.17,3.2-2.13c0.91-0.96,1.62-2.17,2.13-3.64 c0.51-1.47,0.76-3.21,0.76-5.22S630.95,912.65,630.44,911.18z"/>
        <path class="st4" d="M639.33,908.56c-0.06-1.54-0.13-3.11-0.2-4.71c1.09,0.05,2.18,0.09,3.26,0.13s2.17,0.05,3.26,0.05 s2.2-0.02,3.31-0.05c1.12-0.04,2.33-0.08,3.64-0.13c-0.07,0.36-0.11,0.73-0.11,1.09c0,0.36,0.04,0.73,0.11,1.09 c-0.66-0.07-1.44-0.14-2.37-0.2c-0.92-0.06-1.86-0.11-2.82-0.15c-0.96-0.04-1.88-0.07-2.77-0.09c-0.89-0.02-1.62-0.04-2.2-0.04 c-0.02,0.85-0.04,1.66-0.05,2.44c-0.01,0.78-0.02,1.55-0.02,2.33c0,0.85,0,1.63,0.02,2.35c0.01,0.72,0.02,1.46,0.02,2.24 c1.6,0,3.18-0.02,4.75-0.07c1.56-0.05,3.11-0.15,4.64-0.29c-0.1,0.36-0.15,0.73-0.15,1.09s0.05,0.73,0.15,1.09 c-0.61-0.07-1.29-0.13-2.06-0.16c-0.76-0.04-1.56-0.07-2.38-0.09c-0.83-0.02-1.66-0.04-2.51-0.04c-0.85,0-1.66,0-2.44,0v3.09 c0,1.6,0.03,3.18,0.09,4.73s0.13,3.08,0.2,4.58c-0.56-0.05-1.15-0.07-1.78-0.07s-1.22,0.02-1.78,0.07 c0.07-1.5,0.14-3.03,0.2-4.58s0.09-3.13,0.09-4.73v-6.26C639.42,911.67,639.39,910.1,639.33,908.56z"/>
        <path class="st4" d="M666.77,908.56c-0.06-1.54-0.13-3.11-0.2-4.71c0.32,0.05,0.62,0.09,0.91,0.13s0.58,0.05,0.87,0.05 s0.58-0.02,0.87-0.05s0.59-0.08,0.91-0.13c-0.07,1.6-0.14,3.17-0.2,4.71c-0.06,1.54-0.09,3.11-0.09,4.71 c0,3.06,0.01,5.71,0.04,7.95c0.02,2.24,0.05,4.25,0.07,6.02c1.72,0,3.37-0.02,4.95-0.05c1.58-0.04,3.27-0.18,5.09-0.42 c-0.12,0.44-0.18,0.8-0.18,1.09c0,0.27,0.06,0.59,0.18,0.98c-1.12-0.05-2.23-0.07-3.35-0.07c-1.12,0-2.23,0-3.35,0 c-1.17,0-2.29,0-3.37,0c-1.08,0-2.2,0.02-3.37,0.07c0.07-1.5,0.14-3.03,0.2-4.58s0.09-3.13,0.09-4.73v-6.26 C666.86,911.67,666.83,910.1,666.77,908.56z"/>
        <path class="st4" d="M683.58,910.89c0.67-1.61,1.6-2.98,2.8-4.09c1.2-1.12,2.64-1.96,4.31-2.55c1.67-0.58,3.5-0.87,5.49-0.87 c2.01,0,3.86,0.29,5.53,0.87c1.67,0.58,3.11,1.43,4.31,2.55c1.2,1.12,2.13,2.48,2.8,4.09s1,3.45,1,5.51c0,2.06-0.33,3.9-1,5.51 c-0.67,1.61-1.6,2.98-2.8,4.09c-1.2,1.12-2.64,1.95-4.31,2.49c-1.67,0.54-3.52,0.82-5.53,0.82c-1.99,0-3.82-0.27-5.49-0.82 c-1.67-0.55-3.11-1.38-4.31-2.49c-1.2-1.12-2.14-2.48-2.8-4.09c-0.67-1.61-1-3.45-1-5.51 C682.58,914.34,682.91,912.5,683.58,910.89z M705.5,911.18c-0.51-1.47-1.22-2.68-2.13-3.64c-0.91-0.96-1.98-1.67-3.2-2.13 s-2.55-0.69-3.98-0.69c-1.41,0-2.72,0.23-3.95,0.69c-1.23,0.46-2.29,1.17-3.2,2.13c-0.91,0.96-1.62,2.17-2.13,3.64 s-0.76,3.21-0.76,5.22s0.25,3.75,0.76,5.22c0.51,1.47,1.22,2.68,2.13,3.64c0.91,0.96,1.98,1.67,3.2,2.13 c1.22,0.46,2.54,0.69,3.95,0.69c1.43,0,2.76-0.23,3.98-0.69c1.22-0.46,2.29-1.17,3.2-2.13c0.91-0.96,1.62-2.17,2.13-3.64 c0.51-1.47,0.76-3.21,0.76-5.22S706.01,912.65,705.5,911.18z"/>
        <path class="st4" d="M726.06,919.4c-3.15-3.38-6.31-6.75-9.46-10.1c-0.02,0.68-0.05,1.59-0.07,2.73 c-0.02,1.14-0.04,2.69-0.04,4.66c0,0.51,0.01,1.14,0.02,1.89c0.01,0.75,0.02,1.54,0.04,2.37c0.01,0.83,0.03,1.66,0.05,2.51 c0.02,0.85,0.05,1.64,0.07,2.37s0.05,1.36,0.07,1.91c0.02,0.55,0.05,0.92,0.07,1.11c-0.39-0.05-0.81-0.07-1.27-0.07 c-0.49,0-0.93,0.02-1.35,0.07c0.05-0.24,0.1-0.69,0.16-1.35s0.12-1.44,0.16-2.35c0.05-0.91,0.1-1.9,0.16-2.97s0.11-2.13,0.15-3.2 c0.04-1.07,0.07-2.11,0.09-3.13c0.02-1.02,0.04-1.93,0.04-2.73c0-2.33-0.01-4.33-0.02-6c-0.01-1.67-0.04-2.92-0.09-3.75h0.58 c1.48,1.6,3.06,3.32,4.75,5.15c1.69,1.83,3.36,3.64,5.02,5.42c1.66,1.78,3.24,3.47,4.73,5.06c1.49,1.59,2.8,2.94,3.91,4.06v-4.95 c0-2.55-0.02-5.03-0.05-7.44c-0.04-2.41-0.12-4.69-0.24-6.82c0.48,0.12,0.9,0.18,1.24,0.18c0.29,0,0.68-0.06,1.16-0.18 c-0.05,0.53-0.1,1.33-0.16,2.4s-0.12,2.21-0.18,3.42c-0.06,1.21-0.12,2.4-0.16,3.57s-0.07,2.1-0.07,2.8c0,0.61,0,1.33,0,2.18 c0,0.82,0.01,1.69,0.02,2.58c0.01,0.9,0.02,1.8,0.04,2.71c0.01,0.91,0.02,1.76,0.04,2.55c0.01,0.79,0.02,1.47,0.02,2.06 c0,0.53,0,0.93,0,1.2h-0.51C732.18,926.09,729.21,922.79,726.06,919.4z"/>
        <path class="st4" d="M742.27,908.56c-0.06-1.54-0.13-3.11-0.2-4.71c0.92,0.05,1.84,0.09,2.75,0.13c0.91,0.04,1.82,0.05,2.75,0.05 c0.92,0,1.84-0.03,2.75-0.09c0.91-0.06,1.83-0.09,2.75-0.09c2.13,0,3.96,0.28,5.48,0.84c1.52,0.56,2.76,1.35,3.73,2.38 c0.97,1.03,1.68,2.29,2.13,3.78c0.45,1.49,0.67,3.17,0.67,5.04c0,2.43-0.42,4.47-1.26,6.13c-0.84,1.66-1.9,3-3.2,4.02 c-1.3,1.02-2.73,1.74-4.29,2.17c-1.56,0.42-3.06,0.64-4.49,0.64c-0.83,0-1.64-0.01-2.44-0.04c-0.8-0.02-1.61-0.04-2.44-0.04 s-1.64,0-2.44,0s-1.61,0.02-2.44,0.07c0.07-1.5,0.14-3.03,0.2-4.58s0.09-3.13,0.09-4.73v-6.26 C742.36,911.67,742.33,910.1,742.27,908.56z M745.56,927.25c0.51,0.12,1.2,0.21,2.07,0.27s1.77,0.09,2.69,0.09 c1.33,0,2.67-0.16,4-0.47c1.33-0.31,2.53-0.91,3.58-1.78c1.06-0.87,1.92-2.07,2.58-3.58c0.67-1.52,1-3.47,1-5.88 c0-2.11-0.26-3.84-0.78-5.2s-1.24-2.43-2.15-3.22c-0.91-0.79-2-1.33-3.26-1.64c-1.26-0.3-2.64-0.45-4.15-0.45 c-1.09,0-2.11,0.04-3.06,0.11c-0.95,0.07-1.8,0.16-2.55,0.25c-0.07,1.17-0.13,2.38-0.16,3.66c-0.04,1.27-0.05,2.57-0.05,3.88 v6.26C745.35,922.15,745.42,924.72,745.56,927.25z"/>
        <path class="st4" d="M769.2,910.89c0.67-1.61,1.6-2.98,2.8-4.09c1.2-1.12,2.64-1.96,4.31-2.55c1.67-0.58,3.5-0.87,5.49-0.87 c2.01,0,3.86,0.29,5.53,0.87c1.67,0.58,3.11,1.43,4.31,2.55c1.2,1.12,2.13,2.48,2.8,4.09s1,3.45,1,5.51c0,2.06-0.33,3.9-1,5.51 c-0.67,1.61-1.6,2.98-2.8,4.09c-1.2,1.12-2.64,1.95-4.31,2.49c-1.67,0.54-3.52,0.82-5.53,0.82c-1.99,0-3.82-0.27-5.49-0.82 c-1.67-0.55-3.11-1.38-4.31-2.49c-1.2-1.12-2.14-2.48-2.8-4.09c-0.67-1.61-1-3.45-1-5.51C768.2,914.34,768.53,912.5,769.2,910.89 z M791.12,911.18c-0.51-1.47-1.22-2.68-2.13-3.64c-0.91-0.96-1.98-1.67-3.2-2.13s-2.55-0.69-3.98-0.69 c-1.41,0-2.72,0.23-3.95,0.69c-1.23,0.46-2.29,1.17-3.2,2.13c-0.91,0.96-1.62,2.17-2.13,3.64s-0.76,3.21-0.76,5.22 s0.25,3.75,0.76,5.22c0.51,1.47,1.22,2.68,2.13,3.64c0.91,0.96,1.98,1.67,3.2,2.13c1.22,0.46,2.54,0.69,3.95,0.69 c1.43,0,2.76-0.23,3.98-0.69c1.22-0.46,2.29-1.17,3.2-2.13c0.91-0.96,1.62-2.17,2.13-3.64c0.51-1.47,0.76-3.21,0.76-5.22 S791.63,912.65,791.12,911.18z"/>
        <path class="st4" d="M811.68,919.4c-3.15-3.38-6.31-6.75-9.46-10.1c-0.02,0.68-0.05,1.59-0.07,2.73 c-0.02,1.14-0.04,2.69-0.04,4.66c0,0.51,0.01,1.14,0.02,1.89c0.01,0.75,0.02,1.54,0.04,2.37c0.01,0.83,0.03,1.66,0.05,2.51 c0.02,0.85,0.05,1.64,0.07,2.37s0.05,1.36,0.07,1.91c0.02,0.55,0.05,0.92,0.07,1.11c-0.39-0.05-0.81-0.07-1.27-0.07 c-0.49,0-0.93,0.02-1.35,0.07c0.05-0.24,0.1-0.69,0.16-1.35s0.12-1.44,0.16-2.35c0.05-0.91,0.1-1.9,0.16-2.97s0.11-2.13,0.15-3.2 c0.04-1.07,0.07-2.11,0.09-3.13c0.02-1.02,0.04-1.93,0.04-2.73c0-2.33-0.01-4.33-0.02-6c-0.01-1.67-0.04-2.92-0.09-3.75h0.58 c1.48,1.6,3.06,3.32,4.75,5.15c1.69,1.83,3.36,3.64,5.02,5.42c1.66,1.78,3.24,3.47,4.73,5.06c1.49,1.59,2.8,2.94,3.91,4.06v-4.95 c0-2.55-0.02-5.03-0.05-7.44c-0.04-2.41-0.12-4.69-0.24-6.82c0.48,0.12,0.9,0.18,1.24,0.18c0.29,0,0.68-0.06,1.16-0.18 c-0.05,0.53-0.1,1.33-0.16,2.4s-0.12,2.21-0.18,3.42c-0.06,1.21-0.12,2.4-0.16,3.57s-0.07,2.1-0.07,2.8c0,0.61,0,1.33,0,2.18 c0,0.82,0.01,1.69,0.02,2.58c0.01,0.9,0.02,1.8,0.04,2.71c0.01,0.91,0.02,1.76,0.04,2.55c0.01,0.79,0.02,1.47,0.02,2.06 c0,0.53,0,0.93,0,1.2h-0.51C817.8,926.09,814.83,922.79,811.68,919.4z"/>
      </g>
      <path class="st4" d="M384.93,931.03c1.26-1.53,2.93-3.59,4.09-5.9c-0.71,0.03-0.86,0.06-1.42,0.03c-0.36-0.02-0.58-0.04-1.12-0.2 c-0.27,0.64-0.59,1.39-0.98,2.27c-0.39,0.87-0.82,1.81-1.29,2.82c-0.12,0.26-0.18,0.38-0.3,0.64 C384.33,930.87,384.93,931.03,384.93,931.03z"/>
    </g>
    <g>
      <path class="st3" d="M821.26,885.29h-505.9c-1.1,0-2-0.9-2-2s0.9-2,2-2h505.9c1.1,0,2,0.9,2,2S822.36,885.29,821.26,885.29z"/>
    </g>
    <g>
      <path class="st4" d="M315.47,725.6c0-9.63-0.12-18.18-0.35-25.67c-0.23-7.48-0.58-14.99-1.04-22.53c1.97,0.23,4.12,0.44,6.44,0.61 c2.32,0.17,4.93,0.26,7.83,0.26c4.99,0,10.21-0.14,15.66-0.43c5.45-0.29,10.67-0.44,15.66-0.44c5.22,0,9.98,0.52,14.27,1.57 c4.29,1.04,8,2.64,11.14,4.79c3.13,2.15,5.54,4.93,7.22,8.35c1.68,3.42,2.52,7.51,2.52,12.27c0,4.76-0.99,8.85-2.96,12.27 c-1.97,3.42-4.38,6.26-7.22,8.53c-2.84,2.26-5.92,4.03-9.22,5.31c-3.31,1.28-6.29,2.15-8.96,2.61v0.35 c2.67,0.12,5.8,0.73,9.4,1.83c3.59,1.1,7.02,2.81,10.27,5.13c3.25,2.32,6,5.31,8.26,8.96c2.26,3.65,3.39,8.09,3.39,13.31 c0,6.26-1.13,11.6-3.39,16.01c-2.26,4.41-5.28,8-9.05,10.79c-3.77,2.78-8.09,4.73-12.96,5.83c-4.87,1.1-9.92,1.65-15.14,1.65 c-4.64,0-8.96-0.06-12.96-0.17c-4-0.12-8.21-0.17-12.62-0.17c-3.13,0-6.35,0-9.66,0c-3.31,0-5.95,0.11-7.92,0.35 c0.46-7.19,0.81-14.53,1.04-22.01c0.23-7.48,0.35-16.04,0.35-25.67V725.6z M369.07,707.67c0-2.78-0.32-5.42-0.96-7.92 c-0.64-2.49-1.71-4.64-3.22-6.44c-1.51-1.8-3.42-3.25-5.74-4.35c-2.32-1.1-5.22-1.65-8.7-1.65c-2.55,0-4.32,0.03-5.31,0.09 c-0.99,0.06-2.06,0.2-3.22,0.43c-0.23,4.29-0.41,8.64-0.52,13.05c-0.12,4.41-0.17,8.12-0.17,11.14c0,3.13,0.03,6.12,0.09,8.96 c0.06,2.84,0.09,5.77,0.09,8.79h7.83c2.44,0,4.84-0.46,7.22-1.39c2.38-0.93,4.49-2.29,6.35-4.09c1.85-1.8,3.36-4.09,4.52-6.87 C368.48,714.63,369.07,711.39,369.07,707.67z M370.28,763.88c0-8.12-1.83-14.18-5.48-18.18c-3.65-4-8.96-6-15.92-6 c-1.62,0-3.02,0.03-4.18,0.09c-1.16,0.06-2.26,0.09-3.31,0.09c0,2.44-0.03,4.96-0.09,7.57c-0.06,2.61-0.09,5.71-0.09,9.31 c0,2.78,0.03,5.63,0.09,8.53c0.06,2.9,0.09,5.74,0.09,8.53s0.03,5.34,0.09,7.66c0.06,2.32,0.09,4.24,0.09,5.74 c1.62,0.12,3.13,0.2,4.52,0.26c1.39,0.06,3.07,0.09,5.05,0.09c2.55,0,4.99-0.52,7.31-1.57c2.32-1.04,4.35-2.58,6.09-4.61 c1.74-2.03,3.13-4.49,4.18-7.4C369.76,771.07,370.28,767.7,370.28,763.88z"/>
      <path class="st4" d="M524.8,796.94c-2.78-0.23-5.42-0.35-7.92-0.35c-2.5,0-4.96,0-7.4,0c-2.44,0-4.9,0-7.39,0 c-2.5,0-4.96,0.11-7.4,0.35c-1.86-5.68-3.77-11.48-5.74-17.4c-1.97-5.92-4.06-11.83-6.26-17.75c-3.71-0.11-7.42-0.2-11.14-0.26 c-3.71-0.06-7.42-0.09-11.14-0.09c-3.02,0-6.03,0.03-9.05,0.09c-3.02,0.06-6.03,0.15-9.05,0.26c-2.32,5.92-4.47,11.83-6.44,17.75 c-1.97,5.92-3.77,11.72-5.39,17.4c-1.39-0.23-2.76-0.35-4.09-0.35c-1.33,0-2.7,0-4.09,0c-1.39,0-2.78,0-4.18,0 s-2.9,0.11-4.52,0.35c1.39-3.01,3.25-7.19,5.57-12.53c2.32-5.33,4.87-11.37,7.66-18.1c2.78-6.73,5.77-13.95,8.96-21.66 c3.19-7.71,6.38-15.51,9.57-23.4c3.19-7.89,6.32-15.66,9.4-23.32c3.07-7.66,5.89-14.79,8.44-21.4c1.16,0.23,2.26,0.43,3.31,0.61 s2.15,0.26,3.31,0.26c1.16,0,2.26-0.09,3.31-0.26s2.14-0.38,3.31-0.61c3.71,9.86,7.68,20.42,11.92,31.67 c4.23,11.25,8.5,22.3,12.79,33.15c4.29,10.85,8.47,21.14,12.53,30.88C517.72,781.97,521.43,790.21,524.8,796.94z M463.2,710.11 c-3.02,6.96-5.86,13.83-8.53,20.62c-2.67,6.79-5.28,13.72-7.83,20.79h31.84c-2.55-7.07-5.08-14.01-7.57-20.79 C468.62,723.94,465.98,717.07,463.2,710.11z"/>
      <path class="st4" d="M589.05,718.2c2.32-4.23,4.58-8.67,6.79-13.31c2.2-4.64,4.35-9.31,6.44-14.01c2.09-4.7,4.12-9.19,6.09-13.49 c1.27,0.23,2.58,0.44,3.92,0.61c1.33,0.17,2.7,0.26,4.09,0.26c1.39,0,2.75-0.09,4.09-0.26c1.33-0.17,2.75-0.38,4.26-0.61 c-1.97,3.25-4.44,7.51-7.39,12.79c-2.96,5.28-6.12,10.99-9.48,17.14c-3.37,6.15-6.76,12.44-10.18,18.88 c-3.42,6.44-6.53,12.38-9.31,17.83c0,2.78-0.06,5.6-0.17,8.44c-0.12,2.84-0.17,5.71-0.17,8.61c0,5.92,0.09,11.78,0.26,17.57 c0.17,5.8,0.67,11.89,1.48,18.27c-2.44-0.23-4.9-0.35-7.4-0.35c-2.5,0-4.96,0-7.39,0c-2.44,0-4.9,0-7.4,0 c-2.5,0-4.96,0.11-7.39,0.35c0.23-5.33,0.64-10.79,1.22-16.36c0.58-5.57,0.87-11.14,0.87-16.7c0-2.67-0.03-5.36-0.09-8.09 c-0.06-2.72-0.15-5.42-0.26-8.09c-2.9-5.8-6.24-12.27-10-19.4c-3.77-7.13-7.43-14.06-10.96-20.79 c-3.54-6.73-6.79-12.82-9.74-18.27c-2.96-5.45-5.13-9.4-6.53-11.83c2.67,0.23,5.28,0.44,7.83,0.61c2.55,0.17,5.16,0.26,7.83,0.26 c2.67,0,5.25-0.09,7.74-0.26c2.49-0.17,5.07-0.38,7.74-0.61c1.97,4.29,4.2,9.05,6.7,14.27c2.49,5.22,4.96,10.33,7.4,15.31 c2.44,4.99,4.7,9.51,6.79,13.57c2.09,4.06,3.77,7.08,5.05,9.05h0.35C584.41,726.23,586.73,722.44,589.05,718.2z"/>
      <path class="st4" d="M652.86,699.93c-0.23-7.48-0.58-14.99-1.04-22.53c5.22,0.12,10.38,0.29,15.49,0.52 c5.1,0.23,10.27,0.35,15.49,0.35c8.58,0,16.21-0.09,22.88-0.26c6.67-0.17,11.16-0.38,13.49-0.61c-0.46,1.86-0.7,4.29-0.7,7.31 c0,1.86,0.06,3.31,0.17,4.35c0.11,1.04,0.29,2.21,0.52,3.48c-3.37-0.23-7.05-0.46-11.05-0.7c-4-0.23-7.89-0.46-11.66-0.7 c-3.77-0.23-7.16-0.4-10.18-0.52c-3.02-0.11-5.16-0.17-6.44-0.17c-0.46,6.38-0.73,12.7-0.78,18.97 c-0.06,6.26-0.09,12.59-0.09,18.97c7.54-0.11,14.36-0.29,20.45-0.52c6.09-0.23,12.44-0.52,19.05-0.87 c-0.35,1.97-0.58,3.48-0.7,4.52c-0.12,1.04-0.17,2.15-0.17,3.31c0,0.93,0.09,1.89,0.26,2.87c0.17,0.99,0.38,2.41,0.61,4.26 c-13.22-1.04-26.39-1.57-39.5-1.57c0,3.71-0.03,7.42-0.09,11.14c-0.06,3.71-0.09,7.43-0.09,11.14c0,7.54,0.17,14.79,0.52,21.75 c6.61,0,13.22-0.17,19.84-0.52c6.61-0.35,13.28-0.93,20.01-1.74c-0.23,1.28-0.41,2.44-0.52,3.48c-0.12,1.04-0.17,2.5-0.17,4.35 c0,1.86,0.06,3.31,0.17,4.35c0.11,1.04,0.29,1.91,0.52,2.61c-3.13-0.12-6.99-0.2-11.57-0.26c-4.58-0.06-10.88-0.09-18.88-0.09 c-7.08,0-12.82,0-17.23,0c-4.29,0-7.74,0-10.35,0s-4.58,0.03-5.92,0.09c-1.33,0.06-2.47,0.14-3.39,0.26 c0.46-7.19,0.81-14.53,1.04-22.01c0.23-7.48,0.35-16.04,0.35-25.67V725.6C653.21,715.97,653.09,707.41,652.86,699.93z"/>
      <path class="st4" d="M787.36,685.92c-5.34,0-9.69,1.57-13.05,4.7c-3.37,3.13-5.05,6.79-5.05,10.96c0,4.29,1.3,7.8,3.92,10.53 c2.61,2.73,5.89,5.19,9.83,7.39c3.94,2.21,8.18,4.32,12.7,6.35c4.52,2.03,8.76,4.52,12.7,7.48c3.94,2.96,7.22,6.55,9.83,10.79 c2.61,4.24,3.91,9.66,3.91,16.27c0,5.8-1.1,11.11-3.31,15.92c-2.21,4.82-5.34,8.93-9.4,12.35c-4.06,3.42-8.9,6.03-14.53,7.83 c-5.63,1.8-11.92,2.7-18.88,2.7c-6.26,0-11.86-0.67-16.79-2c-4.93-1.33-8.67-2.99-11.22-4.96c1.16-4.06,2.14-7.77,2.96-11.14 c0.81-3.36,1.51-7.02,2.09-10.96h3.31c0.46,2.55,1.33,4.96,2.61,7.22c1.27,2.26,2.9,4.26,4.87,6c1.97,1.74,4.35,3.1,7.13,4.09 c2.78,0.99,5.92,1.48,9.4,1.48c6.96,0,12.09-1.74,15.4-5.22c3.31-3.48,4.96-7.66,4.96-12.53c0-4.41-1.28-8-3.83-10.79 c-2.55-2.78-5.74-5.25-9.57-7.39c-3.83-2.15-8-4.23-12.53-6.26c-4.52-2.03-8.7-4.49-12.53-7.4c-3.83-2.9-7.02-6.46-9.57-10.7 c-2.55-4.23-3.83-9.66-3.83-16.27c0-6.03,1.07-11.37,3.22-16.01c2.14-4.64,5.02-8.53,8.61-11.66c3.59-3.13,7.74-5.51,12.44-7.13 c4.7-1.62,9.66-2.44,14.88-2.44c6.26,0,11.75,0.76,16.44,2.26c4.7,1.51,8.73,3.6,12.09,6.26c-1.04,2.67-1.94,5.25-2.7,7.74 c-0.76,2.5-1.71,5.65-2.87,9.48h-2.61C804.7,690.91,797.69,685.92,787.36,685.92z"/>
    </g>
  </g>
</svg>