<svg class="cpicon-support" width="1792" height="1792" viewBox="0 0 1792 1792" xmlns="http://www.w3.org/2000/svg"><title>Support</title><g fill="none" fill-rule="evenodd"><path d="M1690.581 468.149H746.417c-37.855 0-68.83 30.965-68.83 68.813v633.805c0 37.848 30.975 68.813 68.83 68.813h508.5l282.33 233.29 2.052 1.695c16.624 13.735 41.726 1.765 41.51-19.8l-.06-5.68-2.098-209.505h111.93c37.842 0 68.803-30.945 68.823-68.775V536.923c-.02-37.83-30.98-68.774-68.823-68.774" fill="#3A0F2F"/><path d="M824.495 702.084v-89h788v89h-788zm0 128.635v-94h788v94h-788zm406 123.636v-89h382v89h-382z" fill="#FFF"/><path d="M100.837 1083.223H212.78l-2.091 209.449-.061 5.68c-.216 21.558 24.891 33.525 43.564 18.1l282.383-233.229h508.588c37.857 0 68.837-30.956 68.837-68.794V380.794c0-37.837-30.98-68.794-68.837-68.794H100.837C62.977 312 32 342.957 32 380.794v633.635c0 37.838 30.977 68.794 68.837 68.794" fill="#34CBB5"/><path d="M824.495 659.584c0 131.586-106.672 238.258-238.259 238.258-131.586 0-238.258-106.672-238.258-238.258 0-131.587 106.672-238.259 238.258-238.259 131.587 0 238.26 106.672 238.26 238.26" fill="#FFF"/><path d="M446.465 816.846a136.629 136.629 0 0 0-26.88 14.992c42.966 42.062 101.775 68.005 166.65 68.005 64.44 0 122.894-25.593 165.782-67.154-8.45-6.154-17.756-11.398-27.758-15.565a142.432 142.432 0 0 0-14.791-5.225l-14.414-4.257c7.073-9.762 12.359-21.943 16.288-35.224.016-.054.03-.109.048-.164 16.067-54.514 9.312-127.422 9.312-127.422-6.683-87.134-61.298-152.94-130.754-153.798a179.31 179.31 0 0 0-3.28 0c-69.632.772-128.48 66.992-134.95 154.377 0 0-10.193 72.226 6.36 126.843l.049.164c4.008 13.173 9.579 25.313 17.227 35.161l-14.014 3.987a142.487 142.487 0 0 0-14.875 5.28" fill="#34CBB5"/><path d="M695.875 681.461c-3.574 15.49-6.665 31.747-18.9 29.46v.308c-11.311 44.403-47.823 76.912-91.12 76.912-42.511 0-78.418-34.05-90.412-77.22-12.237 2.287-15.331-13.97-18.902-29.46-3.572-15.49-6.269-30.263 5.966-32.55l.791.613 14.717 20.171s13.407-39.989 71.542-34.136c53 5.33 110.987-51.363 110.987-51.363l-4.186 28.178a200.927 200.927 0 0 0-2.178 29.517v13.047l15.867-5.49c12.235 2.285 9.399 16.523 5.828 32.013" fill="#FFF"/></g></svg>