<svg class="cpicon-id" width="1792" height="1792" viewBox="0 0 1792 1792" xmlns="http://www.w3.org/2000/svg"><title>ID card</title><g fill="none" fill-rule="evenodd"><path d="M1575.558 415.073H217.312c-60.704 0-110.118 49.31-110.312 109.994v847.939c.194 60.685 49.608 109.994 110.312 109.994h1358.246c60.83 0 110.317-49.502 110.317-110.352V525.426c0-60.849-49.487-110.353-110.317-110.353" fill="#3A0F2F"/><path d="M926 823v-89h688.032v89H926zm0 149v-94h688.032v94H926zm0 144v-89h333.538v89H926zm-746 226.287V734h608.287v608.287H180zm867.556-758.242H745c-22 0-40-18-40-40V529c0-22 18-40 40-40h302.556c22 0 40 18 40 40v15.045c0 22-18 40-40 40z" fill="#FFF"/><path d="M788.287 1337.391l-5.668-14.966c-16.916-44.654-53.338-80.745-100.356-100.34a204.826 204.826 0 0 0-21.232-7.5l-20.69-6.11c10.153-14.011 17.741-31.496 23.379-50.561l.069-.234c23.064-78.251 13.369-182.903 13.369-182.903-9.595-125.075-87.989-219.534-187.687-220.766a263.877 263.877 0 0 0-4.708 0c-99.951 1.11-184.423 96.162-193.71 221.598 0 0-14.631 103.673 9.13 182.07l.07.235c5.753 18.91 13.75 36.335 24.728 50.472l-20.116 5.722a204.384 204.384 0 0 0-21.351 7.58c-46.814 19.608-83.344 55.664-100.241 100.263l-3.273 8.646v12.153h608.287v-5.359z" fill="#34CBB5"/><path d="M630.79 981.664l-22.775 7.879v-18.728c0-14.182 1.044-28.344 3.127-42.368L617.15 888s-83.236 81.378-159.312 73.727c-83.448-8.401-102.694 49-102.694 49l-21.124-28.954-1.136-.88c-17.562 3.284-13.69 24.487-8.563 46.723 5.126 22.233 9.567 45.569 27.132 42.286 17.216 61.967 68.757 110.843 129.78 110.843 62.148 0 114.558-46.664 130.793-110.401v-.442c17.563 3.283 22-20.053 27.13-42.286 5.126-22.236 9.197-42.672-8.366-45.952" fill="#FFF"/><path d="M896.917 309C814.743 309 809 413.542 809 428.202v106.529c0 7.842 6.417 14.257 14.257 14.257h147.32c7.841 0 14.257-6.415 14.257-14.257V428.202c0-14.66 0-119.202-87.917-119.202" fill="#34CBB5"/><path d="M931.551 376.276c0 17.825-14.45 32.275-32.276 32.275-17.825 0-32.275-14.45-32.275-32.275C867 358.45 881.45 344 899.275 344c17.826 0 32.276 14.45 32.276 32.276" fill="#FFF"/></g></svg>