<svg class="cpicon-briefcase" width="1792" height="1792" viewBox="0 0 1792 1792" xmlns="http://www.w3.org/2000/svg"><title>Briefcase</title><g fill="none" fill-rule="evenodd"><path d="M1522.243 774H269.657C253.898 774 241 786.916 241 802.702v651.102c0 15.786 12.898 28.701 28.657 28.701h1252.586c15.758 0 28.656-12.915 28.656-28.701V802.702c0-15.786-12.898-28.702-28.656-28.702M1053.52 309.86c33.447.02 60.655 30.094 60.655 67.056V602.12c0 36.969-27.227 67.05-60.69 67.05H737.372c-33.464 0-60.695-30.081-60.695-67.05V376.916c0-36.962 27.213-67.036 60.661-67.056l.034-.001h316.147zM730.925 601.974c0 3.536 2.704 6.525 5.898 6.525h316.571c3.194 0 5.893-2.99 5.893-6.525V376.05c0-3.536-2.699-6.525-5.893-6.525h-316.57c-3.195 0-5.899 2.989-5.899 6.525v225.924z" fill="#3A0F2F"/><path d="M891.954 1210.365s677.92-243.381 678.104-283.995V531.762c-.024-40.543-30.015-73.704-66.666-73.704H287.662c-36.666 0-66.662 33.187-66.662 73.75v394.545c0 40.564 670.954 284.012 670.954 284.012" fill="#34CBB5"/><path d="M351 458l.966 541.149c25.933 11.332 54.482 23.34 84.51 35.662L435.509 458H351zm1002 577.507c30.04-12.209 58.59-24.111 84.509-35.325V458H1353v577.507zm-456.285 255.928c-40.161 0-72.715-32.559-72.715-72.718 0-40.159 32.554-72.717 72.715-72.717 40.16 0 72.72 32.558 72.72 72.717s-32.56 72.718-72.72 72.718" fill="#FFF"/></g></svg>