<svg id="Logo" xmlns="http://www.w3.org/2000/svg" viewBox="0 0 509.9 724.02"><defs><style>.cls-1{fill:#c00f23;}.cls-2{fill:#1d1d1b;}</style></defs><title>city-law-school-full</title><path class="cls-1" d="M429,314.92l-2.1.28a50.18,50.18,0,0,0-6.34,13.38,11.33,11.33,0,0,0,2,1.08A95.34,95.34,0,0,1,429,314.92m7.55,15.43c1.5-3.91,5.34-13,6.75-15.32a19.57,19.57,0,0,0-3.92-.39c-2.22,3.8-6.41,13.27-7.43,15.82,1.47,0.06,2.89-.11,4.59-0.11m-8.5.17a112.15,112.15,0,0,1,7.42-16s-2.38,0-3.29.12a107.26,107.26,0,0,0-7.51,15.75s0.8,0.43,3.38.13M546.78,579.19c6.07,2.72,10.1,15.88-3.18,21.86,6.77-17.13-19.53-32.86-46.85-16.39,0.9-1.12,1.83-2.21,2.69-3.35,28.49-18.19,75.27,2.25,93.28-24.35,1.08,6.91-5.44,16.56-19.51,19.22,14.8,1.82,22.29,9,32.33,11-9.86.34-34.37-12.42-58.76-8M453.46,609.4c-47.88-29.64-69-92.6-71.81-162.83,6-.59,19.49-1.84,35-2.74,0.2,37.41,3.9,83.73,22.15,132.07-1.8-27-4.38-81.46-3.77-132.89,6.14-.18,12.25-0.27,18.06-0.18l0.35-.26,0.34,0.26c27.14-.38,61,2.71,71.47,3.74-2.77,70.22-23.93,133.19-71.81,162.83M364,601.52c-13.28-6-9.25-19.14-3.18-21.87-24.39-4.42-48.89,8.33-58.77,8,10-2,17.53-9.2,32.34-11-14.07-2.67-20.59-12.31-19.51-19.24,17.9,26.44,64.22,6.42,92.75,24,0.88,1.15,1.83,2.25,2.73,3.39-27.14-16-53.09-.37-46.36,16.67M382.16,403c8.65-1.35,21.64-2.79,35.37-3.8-0.21,7.87-.51,16.69-0.7,26.33-13.59.94-25.86,2.16-35.5,3.14q0.06-12.75.83-25.67m16.31-27.94c5.75-6.54,18.79-12.44,25.22-18.86a56.09,56.09,0,0,1,3.58,16.86c-2.38,3.06-10.55,5.11-13.28,9.64a35.23,35.23,0,0,0-.65,6.61l-5,.4c3.22-5.36-.87-9.94-6.27-11.43,0.68,5.44-1.93,8.27-3.74,8.62-3.92-1.08-3.09-8.16.14-11.83m20.17-32.53c-3.58-1.07-6.13-7-4.65-10.78,0.8-.78,2.07-0.91,3.29-2,2.16-2,1.87-11.51,12.25-20.53,7.6-1.7,18.49-2.27,24.45-1.31,0.66,0.42,7.73,3.16,9.24,26.27a91.64,91.64,0,0,0,15.32-3c-10.66,8.85-57.57,12-59.9,11.34m7.94-46.65a24.5,24.5,0,0,1,10.8-.17c2-.68,7.49-1.28,10.72-0.17,4.94-1.2,11.13-.72,13.59.2,3-1.37,8.77-.71,11.26.14,8.84-2.13,13.41,2.18,13.41,5,0,2-.61,2.52-1.64,3.08-3.61,2-2.59-3.54-10.27-5.3,3.34,1.68,3.6,5.42,7.34,6.18-12.5,2-10-7.83-19.05-7.83,3.85,1.13,4.45,5.85,8.2,7.65-12.8,1.28-11.69-8.17-21.11-7.94,4.66,1.36,5,6.1,10,7.69-13.62,1.86-11.37-8.38-21.47-7.63,4.76,2.1,5.64,6.18,10.15,7.29-12.65,3.37-12.28-7.15-20.59-6.3,3.74,0.94,5.36,5.22,8.42,6.46-7.14,2.64-6.89-3.32-13-3.24,2.38,0.94,3.29,2.84,5.5,3.95-11.88,1.76-10.35-9.9-2.27-9M474.74,322a2.81,2.81,0,1,1-2.9,2.81,2.85,2.85,0,0,1,2.9-2.81m14.35,55.47c-4.31-.23-4.82.62-7.2,1.19-6-9-6.64-25-1.2-34.77-0.45,12,1.37,29.16,8.4,33.58m19.37-2.35c3.24,3.68,4.07,10.77.15,11.85-1.82-.34-4.42-3.18-3.74-8.63a12.47,12.47,0,0,0-4.75,2.46,9.75,9.75,0,0,0-6.48-2.91c-5-5.38-6.95-12.18-7.47-19,6.89,5.45,17.32,10.63,22.29,16.27m-11,10.52a7,7,0,0,0,1.05,4.05q-7.31-.61-14.12-1a23.26,23.26,0,0,1,13.06-3m-22.91-10.1c-5.75-4.56-10.38-20.83-4.77-32.79,1.2-3.24,5.11-5.28,4.66-2.61-3.18,10.21-2.83,26.32.11,35.39m-47.65,18.78c5.28-10,6.47-23.65-.68-42.89,5.44,5.1,8.67,18.38,9.18,24.85,1.76-2.5,2.5-10.44,1.82-15.72,4.19,16.67,1,39.82-3.07,43.45-2.67-1.36-4.76-4.42-6.47-7a27.19,27.19,0,0,0,5.33,9.92c26.54-9,45.83-30.57,61-24.9-8.4.45-14.63,4.31-20.42,9.76-9-1.37-15.77,15.65-43.79,24.1-3.51-2.21-7.35-13.5-8.73-17.47s-2.71-4.89-4.59-4.94a20.15,20.15,0,0,1,.68-10s2.1-2.21,7.77-4.25a51.09,51.09,0,0,0,1.93,15.15M524.77,403q0.78,12.91.83,25.67c-17.8-1.82-44.66-4.46-72.13-4.57-6.07,0-12.11.18-18,.41,0.05-2.14.13-4.26,0.2-6.38,15-5,26.6-15.59,33.71-20a524.27,524.27,0,0,1,55.42,4.9m-160.08-8.12c0,7.56,0,14.71,0,21.61-1-3.47-3.45-7.22-8.13-11.1-4.54,21.94-28.66,22-40,8.38,4.32-17.17,25.61-26.71,46.71-31.87,0.54,5.7,2.56,9.67,5.42,12.38l-4,.6m-14.56,41.7c3.85-.34,12.49-5.46,14.62-13.06,0.08,11.08.28,21.61,0.8,32.21-2.45-6.54-7.11-13.16-15.42-19.15M543.66,382c21.11,5.16,42.38,14.7,46.72,31.87-11.36,13.57-35.47,13.55-40-8.39-4.68,3.89-7.15,7.63-8.13,11.1,0-6.92,0-14.09,0-21.68l-3.95-.59c2.84-2.69,4.82-6.66,5.36-12.31m-2.27,73.83c0.53-10.59.72-21.13,0.8-32.21,2.14,7.59,10.78,12.72,14.63,13.06-8.32,6-13,12.61-15.43,19.15m76.41,129.1a23.29,23.29,0,0,0,8.85-16.28c-15.66,13.62-38,7.32-38,7.32s26.09-8.68,4.65-38c1.36,26.89-27.11,30.31-48.67,30.3-15.57,0-29.95,1.74-40.16,6.12,18.11-25.74,29.61-54,32.73-75.32,1.09-7.48,1.94-14.59,2.61-21.49l0.11,0.69c2,11.1,6.24,16,25,23.81s17.62,20.12,7.88,27.66c14.52,4.14,24.71-17.82,9.1-37.61,1.53-1.28,8.25-10.64-.77-22-4.65,8.49-15,11.41-21.67,10,13.84,6.57,20.65-2.61,21.78-4.08,3.74,8.84-1,16-5.44,16.11,7.72,5.9,13,12.86,11.21,23.94-1.39-8.08-19.77-14.9-29.36-20.43-7.49-4.31-11.91-16.16-1.3-22.16s21.09-10.75,29.21-19c1.36,5.68,7,18.61,28.25,24.84-23.95-35.5,9.18-37.1-7.15-69.54C603.9,440.64,561,447.9,561,447.9c35.73-14.3,47.09-35.34,40.51-56.17-4.38-13.81-17.65-27.51-46.41-36.86,5.68-1.13,9.65-2.67,12.59-5.33-17,4-21.84,3.4-29.16,2.38,35.18,9.74,53.36,21.81,57,38.12,1.77,8,.45,14.88-2.63,20.23-6.36-21.37-39.74-30.34-51.94-32.71,0,6.91-2.89,11.25-6.94,13.86l-21.52-3.28a12.51,12.51,0,0,0,2.42-11.09c-1.7-7-8.77-15.73-28.61-29.51,0.13-1.7.3-3.35,0.46-4.94,8.81,7,25.83,16,41,20.14-12.07-5.17-31.13-14.87-40.58-24.47,0-.36.08-0.73,0.1-1.08,0.11-1.17.18-2.35,0.25-3.52,17.39,13.14,32.38,16.13,37.84,16.13-8.48-2.31-41.72-17.62-57.69-42.6,3.48,0.1,6.95.23,10.35,0.36a93.22,93.22,0,0,0,23,24,71.89,71.89,0,0,1-16.76-24.16h-0.14a6.33,6.33,0,0,0,5.25-6.24c0-2.68-1.3-8.61-16.17-7.79h-0.73a59.88,59.88,0,0,0-15.94-2.69c-0.68-4.26-4.09-6.3-5.79,0a93.65,93.65,0,0,0-13.9,2.49c-3.35-.3-7.46-0.28-10.26.63-6.49.41-9,3.77-9.14,7.1a6.48,6.48,0,0,0,6.2,6.71c-2.19,3.41-10.63,16.31-17.83,24.09,5-3.07,11.47-9.42,11.47-9.42l0.62-1c-0.75,2.5-1.38,4.73-2,6.18a11.62,11.62,0,0,1-3.55,2c-0.28.14-2.09,0.93-2.21,2.26l0,0.53c-10.5,11.87-50,30.44-66.27,38.15,17.89-7.51,41.11-14.51,66.35-33.24a15.14,15.14,0,0,0,.9,3.6c-9.08,9.1-22.55,16.52-30.82,22.44,12.75-5.13,24.66-13.88,32.66-19.26a6.43,6.43,0,0,0,1.6,1.34,18.62,18.62,0,0,0,3,.45,15,15,0,0,1,2.11,2.48c-19,13.35-25.91,21.86-27.57,28.77a12.47,12.47,0,0,0,2.55,11.26l-21.46,3.26c-4.16-2.6-7.1-7-7.13-14-12.19,2.38-45.58,11.35-51.94,32.71-3.08-5.36-4.4-12.2-2.63-20.23,3.59-16.31,21.77-28.36,57-38.12-7.32,1-12.14,1.58-29.16-2.38,2.95,2.67,6.92,4.2,12.59,5.33-28.75,9.36-42,23.06-46.4,36.87-6.59,20.83,4.77,41.87,40.5,56.16,0,0-42.88-7.26-45.6-38.12-16.34,32.45,16.79,34-7.15,69.55C314.38,473,320,460.07,321.41,454.4c8.11,8.27,18.59,13,29.2,19s6.2,17.86-1.29,22.16c-9.58,5.52-29,13.05-29.28,20.76-2-11.12,3.41-18.37,11.12-24.28-4.48-.05-9.19-7.25-5.45-16.1,1.13,1.47,7.94,10.66,21.78,4.07-6.69,1.42-17-1.5-21.67-10-9,11.4-2.3,20.76-.77,22-2.62,3.5-12.82,17.66-4.89,31.76,1.77,3.13,6.9,8.14,13.94,5.87-9.53-7.49-10.78-19.86,7.95-27.68s22.91-12.71,25-23.83l0.11-.65c0.67,6.93,1.52,14,2.61,21.54,3.13,21.35,14.71,49.77,32.93,75.59-10.19-4.25-24.38-5.95-39.73-5.94-21.56,0-50-3.41-48.67-30.29-21.44,29.28,4.65,38,4.65,38s-22.35,6.29-38-7.32a23.34,23.34,0,0,0,8.85,16.28c-2,.23-24.17,3.11-36-15.49,7.5,46.06,77.38,21.79,88.27,16.28-4.44,4.19-13.39,15.88-4.54,24.05,0.23-11.53,12.48-17.42,15.66-18,1.47,7.21,7.83,11.69,13.61,13-1.36-7.72-.37-20.34,25.3-18.95,12.33,0.67,24.46,8.88,34.66,16.84l0.87,0.69a155,155,0,0,0,25.84,20.08A154.67,154.67,0,0,0,479.12,604l1.69-1.32,34.66-16.85c25.67-1.39,26.66,11.23,25.3,18.94,5.79-1.36,12.14-5.84,13.61-13,3.18,0.63,15.43,6.53,15.65,18,8.85-8.16-.11-19.85-4.53-24,10.88,5.5,80.77,29.78,88.25-16.29-11.79,18.61-33.92,15.72-36,15.49M524.48,340.58c-8.56-1-13.16-2.5-18.92-5.89,16.72,13.11,42.12,16.66,66.12,12.24,10.45-1.93,26.43-1.19,36.07,3.63-3.06-6-19.17-16.9-27.43-18.07,10-16,2.65-27.42,19-37.63-2.89-2.84-12.65-4.65-20,.32-3.35-3.89-9.81-9.59-19.21-10.58-11.21-1.2-19.14,1-26.17,10.77,9.36-10.55,28.65-12.87,40.9-1.3-19.51-9.53-33.24,9.3-34.43,29.72-5.27-6.8-7.94-17.64-7.77-20.87-7,.68-13.33,6.69-13.84,16.56-2.55-3.4-9.53-22.58,3.86-32-3.86-4.54-5.22-9.53-4-12.88,8.68,5.27,21.73,3.8,36,7.2-13.84-8.39-28.79-3.12-39.42-13-2.35,6.3.17,13,3.4,18.21-14.8,16.34-3.91,37.61,3.07,41.52-0.85-7.49,1.92-16.41,8.22-19.74,1.44,10.62,10.83,20.59,12.37,23.32,0.18-5.28,2-26.42,9.53-25.81,4.64,0.38,8.27,9.19,6.58,15.55-2.29,8.63-8.86,21.54-33.93,18.72M446,329.33c1-2.13,2.93-8.39,4.55-13.28l-3.66-.64c-2.13,5.11-5.59,13.23-6,14.55a51,51,0,0,0,5.1-.63M335.25,346.85c24,4.42,49.39.87,66.12-12.23-5.76,3.38-10.35,4.92-18.93,5.88-25.06,2.83-31.62-10.09-33.92-18.72-1.7-6.34,1.93-15.16,6.58-15.54,7.56-.6,9.35,20.54,9.53,25.81,1.53-2.72,10.92-12.69,12.36-23.32,6.3,3.33,9.08,12.26,8.22,19.74,7-3.91,17.87-25.19,3.07-41.52,3.23-5.21,5.75-11.91,3.4-18.2-10.64,9.87-25.58,4.59-39.42,13,14.3-3.4,27.34-1.93,36-7.21,1.18,3.36-.18,8.34-4,12.88,13.39,9.41,6.41,28.59,3.86,32-0.51-9.87-6.86-15.88-13.84-16.56,0.17,3.23-2.5,14.06-7.77,20.87-1.2-20.42-14.92-39.26-34.43-29.72,12.25-11.57,31.54-9.25,40.9,1.3-7-9.74-15-12-26.17-10.77-9.4,1-15.86,6.69-19.21,10.59-7.32-5-17.07-3.16-20-.32,16.33,10.21,9,21.61,19,37.63-8.27,1.16-24.37,12.11-27.44,18.07,9.65-4.82,25.62-5.56,36.08-3.63M461,334.49c-6.83.65-24.84,2.67-38.12,1.3a12.52,12.52,0,0,1-5.11-4.42,13.41,13.41,0,0,0,2.72,7.32c6.24,0.91,36-1.82,40.51-4.19m-20.65-85c0.91,8.85,5.21,13.61,7.26,12.71s-2.27-17.7,7.5-26.32c-4.54,9.3,0,16.65,1.58,25.41,1.09,5.83-.68,14.53-3.63,16.12s-15.89-7.72-12.71-27.91m-6.24,20.08c2.05,8.32,9.74,14.27,19.4,15.08,4.71,0.4,12.93-2.49,14.07-11.12-8.17,2.95-4.09-4.54,1.59-7.49s10.72-11.45,4.93-21.67c-1.36,11.23-12.8,16.1-11.51,9.65,0.9-4.54,14.29-20,4.53-37.89-1.36,5.44-1,10.55-5.45,9.53s-9.64-19.17-1.13-27c-9.24,1-15.71,12-14.52,19.51s4.94,16.85,0,19.74c-2.76,1.62-4.72.4-5.28-1.87-1.05-4.3.25-12.82-8.34-15.83,5.78,11.57-2.48,32.46,1.7,49.35" transform="translate(-198.83 -198.69)"/><path class="cls-1" d="M535.65,905.08l4.76-6.72c1.53-2.19,2.94-4.2,4.24-6.09s2.35-3.46,3.18-4.78a7.35,7.35,0,0,0,1.76.26,6.1,6.1,0,0,0,1.65-.26c-0.1,2.28-.19,4.84-0.26,7.69s-0.1,5.76-.1,8.76v5.69c1,0,1.94,0,2.85-.13s1.64-.19,2.22-0.29a5.84,5.84,0,0,0,0,3.42,18.55,18.55,0,0,0-2.22-.24c-0.91,0-1.85-.07-2.85-0.07v2.17c0,1.36,0,2.73.1,4.18s0.13,2.55.2,3.38c-0.68-.06-1.45-0.09-2.27-0.09s-1.58,0-2.28.09c0.08-.89.16-2,0.27-3.46s0.15-2.77.15-4.09v-2.17l-3.44,0-4.71.07c-1.64,0-3.2.08-4.67,0.13l-3.31.13v-0.94c1.51-2.13,3.09-4.36,4.73-6.66M547,892.24q-1.09,1.51-2.74,3.85L540.8,901c-1.18,1.67-2.29,3.28-3.34,4.84s-1.87,2.84-2.46,3.83h12.06V892.24H547ZM507,920.54a6.81,6.81,0,0,0,2.74.57,7.54,7.54,0,0,0,4.78-1.55,11.52,11.52,0,0,0,3.24-4.06,21.57,21.57,0,0,0,1.83-5.61,32.75,32.75,0,0,0,.6-6.21h-0.1a9.66,9.66,0,0,1-3.23,3.51,9.17,9.17,0,0,1-5.15,1.35,10,10,0,0,1-7.37-2.66c-1.77-1.79-2.66-4.32-2.66-7.63a11.63,11.63,0,0,1,.81-4.4,10.13,10.13,0,0,1,2.29-3.5,10.94,10.94,0,0,1,3.62-2.32,12.54,12.54,0,0,1,4.76-.86,12.22,12.22,0,0,1,4.43.81,9.31,9.31,0,0,1,3.66,2.59,13.13,13.13,0,0,1,2.53,4.61,21.59,21.59,0,0,1,1,6.9,30.23,30.23,0,0,1-1,8.06,20.92,20.92,0,0,1-3,6.57,14.17,14.17,0,0,1-4.78,4.34,13.19,13.19,0,0,1-6.44,1.55,11.44,11.44,0,0,1-2.44-.23,15.73,15.73,0,0,1-1.66-.44c-0.09-.38-0.25-0.85-0.44-1.39a8.94,8.94,0,0,0-.59-1.4l0.26-.15a8.86,8.86,0,0,0,2.38,1.55m11.09-29.47a6.22,6.22,0,0,0-5-2.24,6,6,0,0,0-5,2.51,11.18,11.18,0,0,0-1.89,6.9c0,3,.57,5.14,1.71,6.44a5.87,5.87,0,0,0,4.65,1.93,6,6,0,0,0,3.19-.83,7.53,7.53,0,0,0,2.29-2.17,10.45,10.45,0,0,0,1.43-3.11,13.65,13.65,0,0,0,.48-3.62,8.78,8.78,0,0,0-1.89-5.83m-44.28,15.81a10.59,10.59,0,0,1,5.77-4v-0.36a6.53,6.53,0,0,1-2-.81,7.77,7.77,0,0,1-1.84-1.5,7.16,7.16,0,0,1-1.34-2.15,6.73,6.73,0,0,1-.52-2.69,7.28,7.28,0,0,1,.7-3.13,8.33,8.33,0,0,1,2-2.6,9.46,9.46,0,0,1,3.05-1.81,11.34,11.34,0,0,1,4-.68,13.71,13.71,0,0,1,4.44.65,9.31,9.31,0,0,1,3,1.68,6.77,6.77,0,0,1,1.79,2.4,7.31,7.31,0,0,1,.59,2.88,7.79,7.79,0,0,1-1.47,4.57,8.19,8.19,0,0,1-4.31,3v0.36a12.69,12.69,0,0,1,2.17.64,8.35,8.35,0,0,1,2.46,1.51,8.77,8.77,0,0,1,2,2.61,8.64,8.64,0,0,1,.83,4,11.54,11.54,0,0,1-.91,4.65,10.51,10.51,0,0,1-2.48,3.54,10.16,10.16,0,0,1-3.68,2.2,13.51,13.51,0,0,1-4.46.73,17,17,0,0,1-4.55-.6,9.68,9.68,0,0,1-3.68-1.9A9,9,0,0,1,473,917a9.93,9.93,0,0,1-.89-4.3,10.35,10.35,0,0,1,1.73-5.79m15.13-14a5.85,5.85,0,0,0-1-2.09,5.19,5.19,0,0,0-1.73-1.45,6.16,6.16,0,0,0-5,0,4.85,4.85,0,0,0-1.73,1.45,6.05,6.05,0,0,0-1,2.09,10.36,10.36,0,0,0-.31,2.53,10.51,10.51,0,0,0,.31,2.52,6.12,6.12,0,0,0,1,2.12,5,5,0,0,0,1.73,1.45,6.16,6.16,0,0,0,5,0,5.3,5.3,0,0,0,1.73-1.45,5.91,5.91,0,0,0,1-2.12,10.1,10.1,0,0,0,.31-2.52,10,10,0,0,0-.31-2.53m1.16,16a8.52,8.52,0,0,0-1.39-2.73,6.63,6.63,0,0,0-8-1.81,6.38,6.38,0,0,0-2.19,1.81,8.46,8.46,0,0,0-1.4,2.73,12.54,12.54,0,0,0,0,7,8.5,8.5,0,0,0,1.4,2.74,6.59,6.59,0,0,0,8,1.8,6.52,6.52,0,0,0,2.2-1.8,8.56,8.56,0,0,0,1.39-2.74,12.52,12.52,0,0,0,0-7m-39.63-15a4.5,4.5,0,0,0-1.55-1.65v-0.36c2-.8,4-1.66,6-2.61s4-1.87,5.76-2.76l0.36,0.25q-0.2,3.42-.31,6.75c-0.07,2.22-.1,4.48-0.1,6.75v8.64q0,3.42.1,6.69t0.31,6.43a7.77,7.77,0,0,0-1.21-.09h-2.44a7.78,7.78,0,0,0-1.21.09c0.17-2.13.28-4.29,0.33-6.46s0.08-4.39.08-6.67V890.49Zm-35.38-4.7-2.83,0c-1,0-2,0-2.94.1s-1.93.11-2.85,0.18-1.73.16-2.46,0.26a6.29,6.29,0,0,0,.26-1.65,7,7,0,0,0-.26-1.6l6.68,0.18q3.26,0.07,6.68.07t6.66-.07l6.68-.18a7.12,7.12,0,0,0-.26,1.66,6.15,6.15,0,0,0,.26,1.6c-0.73-.1-1.54-0.2-2.45-0.26s-1.87-.13-2.85-0.18-2-.08-2.94-0.1l-2.82,0c-0.1,3.54-.16,7.11-0.16,10.71v8.89c0,2.28.05,4.51,0.14,6.72s0.18,4.38.29,6.51c-0.8-.06-1.64-0.09-2.53-0.09s-1.74,0-2.54.09c0.1-2.13.2-4.3,0.28-6.51s0.14-4.44.14-6.72v-8.89q0-5.4-.15-10.71m-35.07,28a8.29,8.29,0,0,0,1.71,1.72,8.46,8.46,0,0,0,5.35,1.77,7.75,7.75,0,0,0,3.08-.6,7,7,0,0,0,2.33-1.61A6.92,6.92,0,0,0,394,916.1a8.21,8.21,0,0,0,.51-2.91,5.59,5.59,0,0,0-1.22-3.78,10,10,0,0,0-3-2.32,35.62,35.62,0,0,0-3.91-1.72,20.23,20.23,0,0,1-3.9-1.93,10.48,10.48,0,0,1-3-3,8.51,8.51,0,0,1-1.22-4.85,9.92,9.92,0,0,1,.77-4,8.82,8.82,0,0,1,2.25-3.08,10.73,10.73,0,0,1,3.54-2,14,14,0,0,1,4.66-.73,13.62,13.62,0,0,1,4.28.6,10.72,10.72,0,0,1,3.37,1.82,11.87,11.87,0,0,0-.78,1.87c-0.21.66-.41,1.49-0.62,2.48H395.1a13.86,13.86,0,0,0-.7-1.58,6,6,0,0,0-1.19-1.58,6.85,6.85,0,0,0-1.78-1.21,5.64,5.64,0,0,0-2.49-.49,7.23,7.23,0,0,0-2.65.46,6.58,6.58,0,0,0-2.12,1.31,6,6,0,0,0-1.4,2.06,6.73,6.73,0,0,0-.48,2.58,5.66,5.66,0,0,0,1.21,3.83,10.59,10.59,0,0,0,3,2.35,29.75,29.75,0,0,0,3.91,1.7,22,22,0,0,1,3.9,1.84,9.94,9.94,0,0,1,3,2.79,7.68,7.68,0,0,1,1.22,4.55,11.87,11.87,0,0,1-.86,4.5,10.68,10.68,0,0,1-2.48,3.7,11,11,0,0,1-4,2.43,15.7,15.7,0,0,1-5.35.86,13.35,13.35,0,0,1-5.2-.86,14,14,0,0,1-3.33-1.93,13.89,13.89,0,0,0,.65-2.15c0.12-.64.23-1.46,0.33-2.46H379a10.06,10.06,0,0,0,1.11,1.9m-28.18-24.08q-0.13-3.31-.28-6.61l4.63,0.18c1.53,0,3.08.07,4.63,0.07s3.08,0,4.61-.07l4.6-.18a7.89,7.89,0,0,0-.15,1.55,8.17,8.17,0,0,0,.15,1.55l-3-.21-2.91-.2c-1-.07-2.12-0.13-3.33-0.19s-2.65-.07-4.34-0.07c0,1.11-.07,2.15-0.13,3.15s-0.08,2.14-.08,3.41,0,2.66,0,3.93,0,2.24,0,2.9c1.52,0,2.88,0,4.09-.06s2.31-.07,3.3-0.12l2.77-.15c0.84-.06,1.65-0.11,2.4-0.19a8.27,8.27,0,0,0-.15,1.6,8,8,0,0,0,.15,1.55q-1.34-.15-3.12-0.25t-3.57-.14l-3.36,0-2.51,0c0,0.32,0,.65,0,1s0,0.82,0,1.37V912q0,2.94,0,4.85c0,1.27,0,2.25.07,2.9H360c1.32,0,2.6,0,3.86-.08s2.45-.11,3.57-0.2a23.49,23.49,0,0,0,2.91-.39,3.83,3.83,0,0,0-.12.8c0,0.3,0,.56,0,0.8a5.2,5.2,0,0,0,.15,1.34q-2.32-.1-4.63-0.09h-9.39c-1.55,0-3.12,0-4.71.09,0.1-2.19.2-4.4,0.28-6.58s0.14-4.43.14-6.7v-8.9q0-3.4-.14-6.72" transform="translate(-198.83 -198.69)"/><path class="cls-1" d="M328.72,908H201.16a2,2,0,0,1,0-3.91H328.72A2,2,0,1,1,328.72,908Z" transform="translate(-198.83 -198.69)"/><path class="cls-1" d="M706.3,908.06H578.74a2,2,0,0,1,0-4H706.3A2,2,0,0,1,706.3,908.06Z" transform="translate(-198.83 -198.69)"/><path class="cls-1" d="M706.72,648.15H200.83a2,2,0,0,1,0-4h505.9A2,2,0,0,1,706.72,648.15Z" transform="translate(-198.83 -198.69)"/><path class="cls-2" d="M239.59,735.65q0,6.77.3,10.28t0.53,6l-5.11-.48q-2.5-.24-3.57-0.24a30.31,30.31,0,0,0-3.21.18l-4.87.54q0.36-6.77.77-13.61t0.42-13.61l-0.12-33.16q0-3.33-.06-6.54t-0.18-6.66h-5.94l-2.5.06-4.93.12q-2.79.06-5.82,0.24t-5.29.42a16.58,16.58,0,0,0,0-8.8q3.57,0.24,7.67.36L216,671q4.22,0.12,8.26.12h7.49q7.49,0,15.33-.12t16.4-.59a31.31,31.31,0,0,0-.6,4.52,10.26,10.26,0,0,0,.18,1.9c0.12,0.64.26,1.43,0.42,2.38q-5.35-.59-11.41-0.71t-12.24-.12q-0.12,3.21-.18,6.54t-0.06,6.78v44Z" transform="translate(-198.83 -198.69)"/><path class="cls-2" d="M329.92,711.88q-4.86-.24-9.6-0.36t-9.6-.12q-5.1,0-10.13.12t-10.13.36v11.89q0,5.71.06,9.81t0.24,7.25q0.18,3.15.36,5.71t0.42,5.41q-1.31-.12-3.51-0.42a35.27,35.27,0,0,0-4.7-.3,37.2,37.2,0,0,0-4.22.24l-4.22.48q0.71-13.67.89-27t0.18-27q0-7-.3-13.79t-0.89-13.67q1.78,0.24,4.46.48t4.1,0.24c0.55,0,1.23,0,2-.06s1.58-.1,2.38-0.18l2.2-.24q1-.12,1.6-0.24-0.24,2.5-.42,4.93t-0.36,6.12q-0.18,3.69-.24,9.09t-0.06,13.73q4.5,0.24,8.95.36t8.95,0.12q5.45,0,10.78-.12t10.79-.36v-4.1q0-2.91-.06-6.18t-0.12-6.18q-0.06-2.91-.06-4v-2.44c0-.67,0-1.46-0.12-2.38s-0.16-2-.24-3.33-0.16-3.07-.24-5.29q1.68,0.24,4.19.48t4.55,0.24q1.68,0,4.19-.24t4.18-.48q-0.6,4.63-.89,11.83t-0.48,14.92q-0.18,7.73-.24,14.92t-0.06,11.83q0,7.13.12,14.38a104.77,104.77,0,0,0,1.07,13.67l-4.36-.48a41.09,41.09,0,0,0-4.37-.24,37.35,37.35,0,0,0-4.07.24l-4.07.48q0-.83.18-3.57t0.36-6.06q0.18-3.33.3-6.48T329.8,731Z" transform="translate(-198.83 -198.69)"/><path class="cls-2" d="M381,705.7h5.65q3.39,0,7.07-.12t7.13-.3q3.45-.18,5.82-0.42c-0.16.63-.3,1.29-0.42,2a13.44,13.44,0,0,0-.18,2.32,10.82,10.82,0,0,0,.59,4q-2.38-.24-4.64-0.36l-4.52-.24q-4.16-.12-8.26-0.18t-8.26-.06v32.21q1.19,0,4.34-.06t7.25-.18l8.56-.24q4.46-.12,8.26-0.36a9.9,9.9,0,0,0-.59,3.92,12.89,12.89,0,0,0,.59,4.28q-10.7-.71-21.87-0.71-10.85,0-22.35.71,0.24-3.8.36-7.43t0.24-7.43q0.12-2.61.18-6.36t0.12-7.61q0.06-3.86.12-7.37t0.06-5.53q0-1.9-.06-6.66t-0.18-10.64q-0.12-5.88-.3-11.95t-0.53-10.58q2.15,0.12,4.9.24l5.69,0.24q2.94,0.12,5.8.18t5.24,0.06q4.16,0,9.81-.24l12.06-.48q-0.24,1.07-.42,1.9a9.12,9.12,0,0,0-.18,1.9,12.71,12.71,0,0,0,.59,4.4L397.55,678c-1.11-.08-2.08-0.14-2.91-0.18s-1.8-.06-2.91-0.06H381V705.7Z" transform="translate(-198.83 -198.69)"/><path class="cls-2" d="M522.36,687h-1.19q-0.59-1.07-1.78-3a13.52,13.52,0,0,0-3.68-3.68,24.92,24.92,0,0,0-6.66-3.15,34.55,34.55,0,0,0-10.58-1.37q-15,0-22.7,9.27T468,711.4q0,1.55.12,4.28a42.15,42.15,0,0,0,.77,6.12,39.78,39.78,0,0,0,2.14,7.13,30.51,30.51,0,0,0,4.22,7.31,26.44,26.44,0,0,0,3.63,4,28,28,0,0,0,4.7,3.45,23.79,23.79,0,0,0,5.88,2.44,27.79,27.79,0,0,0,7.31.89,34.21,34.21,0,0,0,9.69-1.25,32.08,32.08,0,0,0,13.25-7.55,62.32,62.32,0,0,0,4.52-4.75l1.31,0.83-1.31,11.77a61.13,61.13,0,0,1-30.07,7.49,49.78,49.78,0,0,1-16.4-2.67,39.08,39.08,0,0,1-13.49-7.84,37,37,0,0,1-9.15-12.9,43.71,43.71,0,0,1-3.39-17.71,49.59,49.59,0,0,1,2.79-16.76A37,37,0,0,1,463,682a40.24,40.24,0,0,1,14.44-9.21,56.93,56.93,0,0,1,20.62-3.39,69.7,69.7,0,0,1,14,1.37,66.17,66.17,0,0,1,13.79,4.58Z" transform="translate(-198.83 -198.69)"/><path class="cls-2" d="M540.9,697.85q0-5.71-.12-12.24t-1.07-15.21q1.66,0.24,4.4.48t4,0.24a37.51,37.51,0,0,0,4.16-.24l4.28-.48q-0.47,3.33-.77,8.5t-0.42,11q-0.12,5.83-.12,11.59v10.28q0,13.31.24,23.12t1,17.06q-2-.12-4.16-0.42a30.37,30.37,0,0,0-4.16-.3,33,33,0,0,0-4.28.3q-2.26.3-4.28,0.42,0.95-10.7,1.13-24.72T540.9,697.85Z" transform="translate(-198.83 -198.69)"/><path class="cls-2" d="M607.34,735.65q0,6.77.3,10.28t0.53,6l-5.11-.48q-2.5-.24-3.57-0.24a30.29,30.29,0,0,0-3.21.18l-4.87.54q0.36-6.77.77-13.61t0.42-13.61l-0.12-33.16q0-3.33-.06-6.54t-0.18-6.66H586.3l-2.5.06-4.93.12q-2.79.06-5.82,0.24t-5.29.42a16.56,16.56,0,0,0,0-8.8q3.57,0.24,7.67.36l8.32,0.24q4.22,0.12,8.26.12h7.49q7.49,0,15.33-.12t16.4-.59a31.41,31.41,0,0,0-.59,4.52,10.26,10.26,0,0,0,.18,1.9c0.12,0.64.26,1.43,0.42,2.38q-5.35-.59-11.41-0.71t-12.24-.12q-0.12,3.21-.18,6.54t-0.06,6.78v44Z" transform="translate(-198.83 -198.69)"/><path class="cls-2" d="M679.73,724.48q0,3.81.06,7t0.18,6.36q0.12,3.21.24,6.6t0.36,7.55l-4.13-.48a36.7,36.7,0,0,0-4.13-.24,39.64,39.64,0,0,0-4.07.24q-2.27.24-4,.48,0.12-3.45.24-7.9t0.24-8.92q0.12-4.46.18-8.56t0.06-6.83l-7-12.12q-2.26-3.92-5.17-8.79t-5.94-9.87q-3-5-6-9.81t-5.23-8.74q3.33,0.36,5.53.54t4.22,0.18q2.14,0,4.63-.12a38.67,38.67,0,0,0,5.11-.59q2.26,4.88,4.4,9.27t4.52,9q2.38,4.63,5.26,9.92T676,710.57q3.83-6.53,6.33-11t4.58-8.56q2.08-4.1,4.28-8.85t5.41-11.77q1.43,0.24,3.15.48a27.36,27.36,0,0,0,3.74.24,19.43,19.43,0,0,0,2.91-.18,10.72,10.72,0,0,0,2.08-.54l-2.44,4q-1.72,2.85-3.68,6l-3.68,5.94q-1.72,2.79-2.44,3.86-4,6.42-7.61,13t-7.37,13q-0.6,1.07-1.07,2a4,4,0,0,0-.47,1.78v4.4Z" transform="translate(-198.83 -198.69)"/><path class="cls-2" d="M201.16,788.36v-2.18q0-.94,0-2.07T201,781.38q0-1.6-.12-4.17,0-.62,0-2.07t-0.12-3q-0.08-1.6-.12-3t0-2a19,19,0,0,0,2.69.39q1.21,0.08,2.69.08t2.73-.12q1.25-.12,2.73-0.35-0.23,4.45-.35,8.56l-0.23,8.2q-0.12,4.1-.16,8.24t0,8.67q0,4.14.08,7.85t0.16,7h4.52q2.26,0,5-.09t5.5-.26q2.73-.17,4.45-0.43c-0.1.42-.19,0.82-0.27,1.21a10.92,10.92,0,0,0-.12,1.91,9.29,9.29,0,0,0,.08,1.37,9.78,9.78,0,0,0,.31,1.29l-3.39-.16-3.94-.16q-2-.08-4-0.12t-3.55,0q-3.74,0-7.18.12t-7.72.35q0-.31,0-1.87t0.12-3.78q0.08-2.22.12-4.76t0.12-4.8q0.08-2.26.12-3.94t0-2.14V788.36Z" transform="translate(-198.83 -198.69)"/><path class="cls-2" d="M268.63,811.92l-3.28-8.27q-2.5-.16-5-0.23t-5-.08q-2.34,0-4.68.08t-4.68.23q-1.87,4.52-3.59,9t-2.65,7.88q-0.78-.16-1.79-0.31a12.78,12.78,0,0,0-2-.16,9.79,9.79,0,0,0-1.83.16l-1.68.31,9-20.12q3-6.63,5.3-11.89t4.1-9.4q1.75-4.13,3-7.29t1.91-5.58q0.62,0.16,1.25.27a7.17,7.17,0,0,0,1.33.12,9.43,9.43,0,0,0,2.5-.39q1.4,4,2.92,8t3,7.64q1.52,3.67,2.85,6.9t2.42,5.66q1.09,2.57,2.57,5.89t3,6.86q1.56,3.55,3.12,7.06t2.89,6.32l-2.65-.27a32.07,32.07,0,0,0-3.43-.19,25,25,0,0,0-3.16.19q-1.52.2-2.61,0.27Zm-12.87-32.29-8,19.19q2,0.08,4.06.19t4.06,0.12q1.79,0,3.59-.08t3.59-.23Z" transform="translate(-198.83 -198.69)"/><path class="cls-2" d="M308.18,806.69l2-5.07q0.16-.54.94-2.65t1.83-5.15q1.05-3,2.34-6.71t2.46-7.33q1.17-3.67,2.18-7t1.64-5.69l1.56,0.31a9.55,9.55,0,0,0,1.87.16,8.88,8.88,0,0,0,1.87-.16c0.47-.1,1-0.21,1.56-0.31,0,0.05.13,0.47,0.39,1.25s0.57,1.79.94,3,0.78,2.63,1.25,4.13l1.37,4.41q0.66,2.15,1.25,3.94t0.9,2.73q1.72,5.15,3.51,10.22t3.67,10.14q0.86-2.18,1.44-3.78t1.21-3.39l1.48-4.29q0.86-2.49,2.26-6.63,0.86-2.49,1.56-4.8t1.44-4.8q0.74-2.5,1.56-5.42t1.91-6.75q0.62,0.16,1.56.31a12.18,12.18,0,0,0,2,.16,13.9,13.9,0,0,0,3.51-.47q-1.79,4.37-3.2,8l-2.77,7.21q-1.37,3.55-2.69,7.29t-3,8.27q-1.09,3.12-1.87,5.38t-1.4,4q-0.63,1.75-1.09,3.16t-0.94,2.89q-0.47,1.48-1.05,3.2t-1.29,4.06q-0.86-.16-1.56-0.31a7.18,7.18,0,0,0-1.56-.16,9.44,9.44,0,0,0-1.83.19q-1,.2-1.52.27-1.09-3.51-1.75-5.66T333,811.37q-0.43-1.4-.78-2.42l-0.82-2.34q-0.39-1-1.21-3.43T328.5,798q-0.9-2.73-1.72-5.11t-1.13-3.31q-0.63-1.87-1.6-4.49t-1.6-4.48l-2.34,6.47-2.42,6.75q-0.94,2.61-1.64,4.72t-1.44,4.25l-1.91,5.5q-0.86,2.42-1.87,5.81t-2,6.43q-1-.23-1.68-0.35a7.4,7.4,0,0,0-1.29-.12,8.41,8.41,0,0,0-1.48.16l-1.72.31-2-5.93q-1.09-3.2-2.07-6.2t-2-6.08L294.49,796l-2.46-7.1q-1.56-4.45-3.59-10T284,767.07q1.17,0.16,2.92.31t3.16,0.16a35.27,35.27,0,0,0,5.46-.47q0.94,3.43,2.26,7.84t2.85,9.17q1.52,4.76,3.08,9.48t3,8.78Z" transform="translate(-198.83 -198.69)"/><path class="cls-2" d="M388.21,808.88a21.93,21.93,0,0,0,2.73,4.72,11.63,11.63,0,0,0,2.92,2.69,9.33,9.33,0,0,0,3.12,1.25,17.27,17.27,0,0,0,3.32.31,11.36,11.36,0,0,0,4.21-.74,9.61,9.61,0,0,0,3.2-2,9.06,9.06,0,0,0,2.07-3.08,10.11,10.11,0,0,0,.74-3.9,8.94,8.94,0,0,0-.78-3.94,9.78,9.78,0,0,0-1.83-2.65,8.37,8.37,0,0,0-2.14-1.6q-1.09-.54-1.64-0.78-1.64-.7-4-1.64t-4-1.64a25.47,25.47,0,0,1-4.72-2.65,12.6,12.6,0,0,1-3-3.08,11,11,0,0,1-1.6-3.67,19.29,19.29,0,0,1-.47-4.41,18,18,0,0,1,.86-5.34,13.2,13.2,0,0,1,2.93-5,15.68,15.68,0,0,1,5.58-3.74,22.8,22.8,0,0,1,8.81-1.48,23.56,23.56,0,0,1,7.18.94,53.1,53.1,0,0,1,5.77,2.26q-0.63,1.4-1,2.34t-0.58,1.68c-0.16.5-.3,1-0.43,1.52s-0.27,1.14-.43,1.87h-1.09A8,8,0,0,0,410.2,772a12.32,12.32,0,0,0-6.55-1.72q-4.6,0-6.9,2.5a8.45,8.45,0,0,0-2.3,5.93,7.69,7.69,0,0,0,.74,3.55,7.77,7.77,0,0,0,2.11,2.54,14.34,14.34,0,0,0,3.39,2q2,0.86,4.6,1.87,2.26,0.86,3.86,1.52t2.85,1.29a14.82,14.82,0,0,1,2.14,1.29,12.42,12.42,0,0,1,1.75,1.6,12.24,12.24,0,0,1,2,2.77,15.19,15.19,0,0,1,1.13,2.85,18.63,18.63,0,0,1,.55,2.65,17.19,17.19,0,0,1,.16,2,17.7,17.7,0,0,1-1.09,6,15.29,15.29,0,0,1-3.47,5.5,18,18,0,0,1-6.12,4,23.75,23.75,0,0,1-9.13,1.56,25,25,0,0,1-4.72-.43,30.74,30.74,0,0,1-4.06-1.05q-1.83-.62-3.32-1.29t-2.5-1.21q0.47-1.48.78-2.54a17,17,0,0,0,.47-2c0.1-.62.2-1.26,0.27-1.91s0.17-1.44.27-2.38h1.09Z" transform="translate(-198.83 -198.69)"/><path class="cls-2" d="M473.93,778h-0.78q-0.39-.7-1.17-2a8.89,8.89,0,0,0-2.42-2.42,16.33,16.33,0,0,0-4.37-2.07,22.66,22.66,0,0,0-6.94-.9q-9.83,0-14.9,6.08T438.28,794q0,1,.08,2.81a27.55,27.55,0,0,0,.51,4,26,26,0,0,0,1.4,4.68,20,20,0,0,0,2.77,4.8,17.41,17.41,0,0,0,2.38,2.65,18.44,18.44,0,0,0,3.08,2.26,15.62,15.62,0,0,0,3.86,1.6,18.2,18.2,0,0,0,4.8.58,22.46,22.46,0,0,0,6.36-.82,21.26,21.26,0,0,0,4.91-2.11,21.49,21.49,0,0,0,3.78-2.85,41,41,0,0,0,3-3.12L476,809l-0.86,7.72a40.11,40.11,0,0,1-19.73,4.91,32.67,32.67,0,0,1-10.76-1.75,25.66,25.66,0,0,1-8.85-5.15,24.28,24.28,0,0,1-6-8.46,28.7,28.7,0,0,1-2.22-11.62,32.53,32.53,0,0,1,1.83-11,24.29,24.29,0,0,1,5.58-9,26.41,26.41,0,0,1,9.48-6A37.38,37.38,0,0,1,458,766.45a45.78,45.78,0,0,1,9.2.9,43.48,43.48,0,0,1,9,3Z" transform="translate(-198.83 -198.69)"/><path class="cls-2" d="M521,794.29q-3.19-.16-6.3-0.23t-6.3-.08q-3.34,0-6.65.08t-6.65.23v7.8q0,3.74,0,6.44t0.16,4.76q0.12,2.07.23,3.74t0.27,3.55q-0.86-.08-2.3-0.27a23.23,23.23,0,0,0-3.08-.19,24.24,24.24,0,0,0-2.77.16l-2.77.31q0.47-9,.58-17.75t0.12-17.75q0-4.6-.2-9t-0.58-9q1.17,0.16,2.93.31t2.69,0.16c0.36,0,.81,0,1.33,0s1-.06,1.56-0.12l1.44-.16q0.66-.08,1.05-0.16-0.16,1.64-.27,3.24t-0.23,4q-0.12,2.42-.16,6t0,9q3,0.16,5.87.23t5.87,0.08q3.58,0,7.08-.08t7.08-.23v-2.69q0-1.91,0-4.06t-0.08-4.06q0-1.91,0-2.61v-1.6q0-.66-0.08-1.56t-0.16-2.18q-0.08-1.29-.16-3.47,1.1,0.16,2.75.31t3,0.16q1.1,0,2.75-.16t2.74-.31q-0.39,3-.58,7.76t-0.31,9.79q-0.12,5.07-.16,9.79t0,7.76q0,4.68.08,9.44a68.76,68.76,0,0,0,.7,9l-2.86-.31a26.78,26.78,0,0,0-2.87-.16,24.36,24.36,0,0,0-2.67.16l-2.67.31q0-.54.12-2.34t0.23-4q0.12-2.18.19-4.25t0.08-3.16Z" transform="translate(-198.83 -198.69)"/><path class="cls-2" d="M571.19,766.45A37.66,37.66,0,0,1,581.84,768a26.36,26.36,0,0,1,9.24,4.8,24.1,24.1,0,0,1,6.51,8.31,27.23,27.23,0,0,1,2.46,12.05,31.58,31.58,0,0,1-2.11,11.82,25.52,25.52,0,0,1-5.93,9,26.41,26.41,0,0,1-9.2,5.73,33.39,33.39,0,0,1-11.86,2,36,36,0,0,1-11.39-1.75,27,27,0,0,1-9.24-5.15,23.93,23.93,0,0,1-6.2-8.39A27.29,27.29,0,0,1,541.86,795a31.45,31.45,0,0,1,2.38-12.79,25,25,0,0,1,6.4-8.89,25.81,25.81,0,0,1,9.32-5.19A37.07,37.07,0,0,1,571.19,766.45Zm-18.64,27.61a38.34,38.34,0,0,0,1,8.62,22.43,22.43,0,0,0,3.2,7.57,17.58,17.58,0,0,0,5.69,5.38,16.42,16.42,0,0,0,8.54,2.07,16,16,0,0,0,8.46-2.11,17.71,17.71,0,0,0,5.69-5.5,24,24,0,0,0,3.24-7.6,36,36,0,0,0,1-8.42,40.77,40.77,0,0,0-1-9,22.58,22.58,0,0,0-3.12-7.53,15.66,15.66,0,0,0-5.66-5.15,17.92,17.92,0,0,0-8.66-1.91,15.74,15.74,0,0,0-8.54,2.18,18.33,18.33,0,0,0-5.69,5.62,23.79,23.79,0,0,0-3.2,7.64A36.19,36.19,0,0,0,552.55,794.06Z" transform="translate(-198.83 -198.69)"/><path class="cls-2" d="M637.65,766.45A37.66,37.66,0,0,1,648.29,768a26.36,26.36,0,0,1,9.24,4.8,24.1,24.1,0,0,1,6.51,8.31,27.23,27.23,0,0,1,2.46,12.05,31.58,31.58,0,0,1-2.11,11.82,25.52,25.52,0,0,1-5.93,9,26.41,26.41,0,0,1-9.2,5.73,33.39,33.39,0,0,1-11.86,2A36,36,0,0,1,626,819.91a27,27,0,0,1-9.24-5.15,23.93,23.93,0,0,1-6.2-8.39A27.29,27.29,0,0,1,608.32,795a31.45,31.45,0,0,1,2.38-12.79,25,25,0,0,1,6.4-8.89,25.81,25.81,0,0,1,9.32-5.19A37.07,37.07,0,0,1,637.65,766.45ZM619,794.06a38.34,38.34,0,0,0,1,8.62,22.43,22.43,0,0,0,3.2,7.57,17.58,17.58,0,0,0,5.69,5.38,16.42,16.42,0,0,0,8.54,2.07,16,16,0,0,0,8.46-2.11,17.71,17.71,0,0,0,5.69-5.5,24,24,0,0,0,3.24-7.6,36,36,0,0,0,1-8.42,40.77,40.77,0,0,0-1-9,22.58,22.58,0,0,0-3.12-7.53,15.66,15.66,0,0,0-5.66-5.15,17.92,17.92,0,0,0-8.66-1.91,15.74,15.74,0,0,0-8.54,2.18,18.33,18.33,0,0,0-5.69,5.62,23.79,23.79,0,0,0-3.2,7.64A36.19,36.19,0,0,0,619,794.06Z" transform="translate(-198.83 -198.69)"/><path class="cls-2" d="M677.89,788.36v-2.18q0-.94,0-2.07t-0.08-2.73q0-1.6-.12-4.17,0-.62,0-2.07t-0.12-3q-0.08-1.6-.12-3c0-1,0-1.62,0-2a19,19,0,0,0,2.69.39q1.21,0.08,2.69.08t2.73-.12q1.25-.12,2.73-0.35-0.23,4.45-.35,8.56l-0.23,8.2q-0.12,4.1-.16,8.24t0,8.67q0,4.14.08,7.85t0.16,7h4.52q2.26,0,5-.09t5.5-.26q2.73-.17,4.45-0.43-0.16.63-.27,1.21a10.92,10.92,0,0,0-.12,1.91,9.43,9.43,0,0,0,.08,1.37,9.81,9.81,0,0,0,.31,1.29l-3.39-.16-3.94-.16q-2-.08-4-0.12t-3.55,0q-3.74,0-7.18.12t-7.72.35c0-.21,0-0.83,0-1.87s0.06-2.3.12-3.78,0.09-3.07.12-4.76,0.06-3.29.12-4.8,0.09-2.82.12-3.94,0-1.83,0-2.14V788.36Z" transform="translate(-198.83 -198.69)"/><path class="cls-2" d="M220.66,861.84a9.82,9.82,0,0,1-1.71.62q-1,.27-2.24.49a14.84,14.84,0,0,1-2.58.22,16.61,16.61,0,0,1-5.31-.82,11.19,11.19,0,0,1-4.2-2.49,11.71,11.71,0,0,1-2.76-4.09,15.68,15.68,0,0,1,0-11,11.49,11.49,0,0,1,2.8-4.09A12.07,12.07,0,0,1,209,838.1a16.72,16.72,0,0,1,5.53-.87,18.25,18.25,0,0,1,4.38.49,20.62,20.62,0,0,1,3.51,1.18,4.8,4.8,0,0,0-.47,1.38c-0.12.58-.22,1.07-0.29,1.46l-0.22.07a8.12,8.12,0,0,0-1-1,11.27,11.27,0,0,0-1.53-1.05,9.69,9.69,0,0,0-2-.86,7.93,7.93,0,0,0-2.4-.35,11.22,11.22,0,0,0-4,.69,8.48,8.48,0,0,0-3.2,2.13,9.92,9.92,0,0,0-2.13,3.64,18.21,18.21,0,0,0,0,10.44,9.91,9.91,0,0,0,2.13,3.64,8.45,8.45,0,0,0,3.2,2.13,11.22,11.22,0,0,0,4,.69,8.54,8.54,0,0,0,2.42-.33,13,13,0,0,0,2-.78,12.31,12.31,0,0,0,1.67-1q0.75-.53,1.25-0.93l0.15,0.15-0.33,2.15A4.73,4.73,0,0,1,220.66,861.84Z" transform="translate(-198.83 -198.69)"/><path class="cls-2" d="M226.63,842.41q-0.09-2.31-.2-4.71l0.91,0.13a7,7,0,0,0,1.75,0l0.91-.13q-0.11,2.4-.2,4.71t-0.09,4.71v6.26q0,2.4.09,4.73t0.2,4.58q-0.84-.07-1.78-0.07t-1.78.07q0.11-2.26.2-4.58t0.09-4.73v-6.26Q226.72,844.72,226.63,842.41Z" transform="translate(-198.83 -198.69)"/><path class="cls-2" d="M241.35,839.59l-2,0q-1,0-2.07.07l-2,.13q-1,.07-1.73.18a4.42,4.42,0,0,0,.18-1.16,5,5,0,0,0-.18-1.13l4.69,0.13q2.29,0.05,4.69.05t4.69-.05l4.69-.13a5.08,5.08,0,0,0-.18,1.16,4.32,4.32,0,0,0,.18,1.13c-0.51-.07-1.09-0.13-1.73-0.18l-2-.13q-1-.05-2.07-0.07l-2,0q-0.11,3.75-.11,7.53v6.26q0,2.4.09,4.73t0.2,4.58q-0.84-.07-1.78-0.07t-1.78.07q0.11-2.26.2-4.58t0.09-4.73v-6.26Q241.46,843.34,241.35,839.59Z" transform="translate(-198.83 -198.69)"/><path class="cls-2" d="M261.2,850.67L259.63,848l-1.8-3-1.8-3-1.55-2.58-1.05-1.73,1,0.13a9.19,9.19,0,0,0,2,0l1-.13q1.64,3.17,3.33,6.22t3.58,6.37q0.84-1.31,1.75-2.87t1.82-3.2q0.91-1.64,1.75-3.29t1.56-3.22a5.63,5.63,0,0,0,2.84,0q-1.75,2.66-3.13,4.8t-2.44,3.89q-1.05,1.75-1.86,3.15t-1.38,2.53q0,1.35,0,2.87t0.05,3q0,1.47.09,2.73t0.13,2q-0.84-.07-1.78-0.07t-1.78.07q0.22-1.89.25-4.58t0-5.64Z" transform="translate(-198.83 -198.69)"/><path class="cls-2" d="M306.59,841.55a37.46,37.46,0,0,0-.18-3.86l0.76,0.13a4.93,4.93,0,0,0,.73.05,3.94,3.94,0,0,0,1.09-.18q-0.11,1.27-.22,3t-0.18,3.78q-0.07,2-.15,4.15t-0.11,4.13a13.15,13.15,0,0,1-.75,4.37,9.14,9.14,0,0,1-2,3.27,8.41,8.41,0,0,1-3.22,2,12.85,12.85,0,0,1-4.38.69q-5.46,0-7.93-2.47t-2.47-7.82q0-1.71.09-3t0.09-2.71q0-3.06-.07-5.42t-0.15-4l0.95,0.13a9,9,0,0,0,.95.05,5.57,5.57,0,0,0,.78-0.05l0.78-.13q-0.07.8-.15,2.09t-0.15,2.93q-0.07,1.64-.11,3.53t0,3.93q0,1.24,0,2.57a17.94,17.94,0,0,0,.25,2.58,10.71,10.71,0,0,0,.71,2.4,5.91,5.91,0,0,0,1.4,2,6.43,6.43,0,0,0,2.29,1.35,10.28,10.28,0,0,0,3.42.49A8.58,8.58,0,0,0,302,861a6.4,6.4,0,0,0,2.24-1.53,7,7,0,0,0,1.36-2.18,12.26,12.26,0,0,0,.71-2.58,20.23,20.23,0,0,0,.25-2.69q0-1.35,0-2.47Q306.63,844.36,306.59,841.55Z" transform="translate(-198.83 -198.69)"/><path class="cls-2" d="M327.11,853.25q-4.73-5.08-9.46-10.1,0,1-.07,2.73t0,4.66q0,0.76,0,1.89t0,2.37q0,1.24.05,2.51t0.07,2.37q0,1.09.07,1.91t0.07,1.11a10,10,0,0,0-1.27-.07,11.29,11.29,0,0,0-1.35.07q0.07-.36.16-1.35t0.16-2.35q0.07-1.37.16-3t0.15-3.2q0.06-1.6.09-3.13t0-2.73q0-3.49,0-6t-0.09-3.75h0.58l4.75,5.15q2.53,2.75,5,5.42l4.73,5.06q2.24,2.38,3.91,4.06V852q0-3.82-.05-7.44t-0.24-6.82a5.25,5.25,0,0,0,1.24.18,5.08,5.08,0,0,0,1.16-.18q-0.07.8-.16,2.4t-0.18,3.42q-0.09,1.82-.16,3.57t-0.07,2.8v2.18q0,1.24,0,2.58t0,2.71q0,1.36,0,2.55t0,2.06v1.2H336Q331.84,858.33,327.11,853.25Z" transform="translate(-198.83 -198.69)"/><path class="cls-2" d="M343.32,842.41q-0.09-2.31-.2-4.71l0.91,0.13a7,7,0,0,0,1.75,0l0.91-.13q-0.11,2.4-.2,4.71t-0.09,4.71v6.26q0,2.4.09,4.73t0.2,4.58q-0.84-.07-1.78-0.07t-1.78.07q0.11-2.26.2-4.58t0.09-4.73v-6.26Q343.41,844.72,343.32,842.41Z" transform="translate(-198.83 -198.69)"/><path class="cls-2" d="M358.26,857.53q-1.2-3-2.56-6.37l-2.8-6.84q-1.44-3.49-2.75-6.62l1,0.13a7.59,7.59,0,0,0,1.82,0l1-.13q0.8,2.4,1.77,5t2,5.37q1.07,2.73,2.2,5.53t2.29,5.57q0.65-1.49,1.42-3.33t1.55-3.82q0.78-2,1.55-4l1.47-3.95q0.71-1.89,1.29-3.53t1-2.84a5.08,5.08,0,0,0,2.69,0q-2.84,6.33-5.46,12.55t-5,12.44a9.42,9.42,0,0,0-1.2-.07,8,8,0,0,0-1.2.07Q359.46,860.55,358.26,857.53Z" transform="translate(-198.83 -198.69)"/><path class="cls-2" d="M376.84,842.36q-0.09-2.33-.2-4.66l3.26,0.13q1.62,0.05,3.26.05t3.24-.05l3.24-.13a5.55,5.55,0,0,0,0,2.18l-2.13-.15-2-.15-2.35-.13q-1.27-.05-3.06-0.05,0,1.16-.09,2.22t-0.05,2.4q0,1.42,0,2.77t0,2q1.6,0,2.88,0l2.33-.09,1.95-.11,1.69-.13a5.78,5.78,0,0,0-.11,1.13,5.6,5.6,0,0,0,.11,1.09q-0.95-.11-2.2-0.18t-2.51-.09l-2.37,0-1.76,0q0,0.33,0,.71t0,1v3.6q0,2.07,0,3.42t0.05,2h2.55q1.38,0,2.71-.05t2.51-.15a16.43,16.43,0,0,0,2.06-.27,2.62,2.62,0,0,0-.09.56c0,0.21,0,.39,0,0.56a3.36,3.36,0,0,0,.11.95q-1.64-.07-3.26-0.07h-6.6q-1.64,0-3.31.07,0.11-2.33.2-4.64t0.09-4.71v-6.26Q376.93,844.68,376.84,842.36Z" transform="translate(-198.83 -198.69)"/><path class="cls-2" d="M394.59,842.41q-0.09-2.31-.2-4.71l2.07,0.13q1,0.05,2.07.05t2.07-.09q1-.09,2.07-0.09a14.1,14.1,0,0,1,2.91.29,7.1,7.1,0,0,1,2.42,1,4.87,4.87,0,0,1,1.64,1.76,6.31,6.31,0,0,1-.18,5.73,7.32,7.32,0,0,1-1.91,2.07,9.48,9.48,0,0,1-2.42,1.27,12.1,12.1,0,0,1-2.35.6l1.2,1.53q0.76,1,1.71,2.17l2,2.47,2,2.47q0.95,1.18,1.78,2.17t1.35,1.49a8,8,0,0,0-1.09-.07h-2.15a7.27,7.27,0,0,0-1.06.07l-1.66-2.29q-1.11-1.53-2.46-3.27t-2.75-3.48q-1.4-1.73-2.57-2.93h-1.38v2.66q0,2.4.09,4.73t0.2,4.58q-0.84-.07-1.78-0.07t-1.78.07q0.11-2.26.2-4.58t0.09-4.73v-6.26Q394.68,844.72,394.59,842.41Zm4.18,6.93q0.6,0,1.33,0a11.41,11.41,0,0,0,2.35-.25,6.81,6.81,0,0,0,2.24-.89,5.32,5.32,0,0,0,1.69-1.71,5,5,0,0,0,.67-2.71,4.7,4.7,0,0,0-.53-2.35,4.21,4.21,0,0,0-1.37-1.47,5.21,5.21,0,0,0-1.82-.75,9.68,9.68,0,0,0-1.93-.2q-1.27,0-2.11.05t-1.42.13q-0.07,2-.15,4t-0.07,3.93v2.07A7.4,7.4,0,0,0,398.78,849.34Z" transform="translate(-198.83 -198.69)"/><path class="cls-2" d="M416.46,859.29a6,6,0,0,0,1.2,1.22,6.09,6.09,0,0,0,3.77,1.24,5.38,5.38,0,0,0,2.17-.42,4.83,4.83,0,0,0,2.67-2.8,5.78,5.78,0,0,0,.36-2.06,3.91,3.91,0,0,0-.86-2.66,7.05,7.05,0,0,0-2.13-1.64,24.91,24.91,0,0,0-2.75-1.2,14.19,14.19,0,0,1-2.75-1.37,7.26,7.26,0,0,1-2.13-2.09,6,6,0,0,1-.86-3.42,6.9,6.9,0,0,1,.55-2.78,6.07,6.07,0,0,1,1.58-2.17,7.49,7.49,0,0,1,2.49-1.42,9.86,9.86,0,0,1,3.28-.51,9.73,9.73,0,0,1,3,.42,7.52,7.52,0,0,1,2.37,1.29,7.86,7.86,0,0,0-.55,1.31q-0.22.69-.44,1.75H427a9.44,9.44,0,0,0-.49-1.11,4.24,4.24,0,0,0-.84-1.11,4.67,4.67,0,0,0-1.26-.86,4,4,0,0,0-1.75-.35,5.21,5.21,0,0,0-1.87.33,4.51,4.51,0,0,0-1.49.93,4.12,4.12,0,0,0-1,1.44,4.72,4.72,0,0,0-.35,1.82,4,4,0,0,0,.86,2.69,7.3,7.3,0,0,0,2.13,1.66,20.83,20.83,0,0,0,2.75,1.2,15.56,15.56,0,0,1,2.75,1.29,7,7,0,0,1,2.13,2,5.42,5.42,0,0,1,.85,3.2,8.41,8.41,0,0,1-.6,3.17,7.45,7.45,0,0,1-1.75,2.6,7.77,7.77,0,0,1-2.8,1.71,11,11,0,0,1-3.77.6,9.39,9.39,0,0,1-3.66-.6,10,10,0,0,1-2.35-1.36,8.64,8.64,0,0,0,.45-1.51q0.13-.67.24-1.73h0.44A7.29,7.29,0,0,0,416.46,859.29Z" transform="translate(-198.83 -198.69)"/><path class="cls-2" d="M434.14,842.41q-0.09-2.31-.2-4.71l0.91,0.13a7,7,0,0,0,1.75,0l0.91-.13q-0.11,2.4-.2,4.71t-0.09,4.71v6.26q0,2.4.09,4.73t0.2,4.58q-0.84-.07-1.78-0.07t-1.78.07q0.11-2.26.2-4.58t0.09-4.73v-6.26Q434.24,844.72,434.14,842.41Z" transform="translate(-198.83 -198.69)"/><path class="cls-2" d="M448.57,839.59l-2,0q-1,0-2.07.07l-2,.13q-1,.07-1.73.18a4.42,4.42,0,0,0,.18-1.16,5,5,0,0,0-.18-1.13l4.69,0.13q2.29,0.05,4.69.05t4.69-.05l4.69-.13a5.08,5.08,0,0,0-.18,1.16,4.32,4.32,0,0,0,.18,1.13c-0.51-.07-1.09-0.13-1.73-0.18l-2-.13q-1-.05-2.07-0.07l-2,0q-0.11,3.75-.11,7.53v6.26q0,2.4.09,4.73t0.2,4.58q-0.84-.07-1.78-0.07t-1.78.07q0.11-2.26.2-4.58t0.09-4.73v-6.26Q448.68,843.34,448.57,839.59Z" transform="translate(-198.83 -198.69)"/><path class="cls-2" d="M468.89,850.67L467.33,848l-1.8-3-1.8-3-1.55-2.58-1.05-1.73,1,0.13a9.19,9.19,0,0,0,2,0l1-.13q1.64,3.17,3.33,6.22t3.58,6.37q0.84-1.31,1.75-2.87t1.82-3.2q0.91-1.64,1.75-3.29t1.56-3.22a5.63,5.63,0,0,0,2.84,0q-1.75,2.66-3.13,4.8t-2.44,3.89q-1.05,1.75-1.86,3.15T473,852.07q0,1.35,0,2.87t0.05,3q0,1.47.09,2.73t0.13,2q-0.84-.07-1.78-0.07t-1.78.07q0.22-1.89.25-4.58t0-5.64Z" transform="translate(-198.83 -198.69)"/><path class="cls-2" d="M494.33,844.74a11.49,11.49,0,0,1,2.8-4.09,12.07,12.07,0,0,1,4.31-2.55,17.82,17.82,0,0,1,11,0,12.07,12.07,0,0,1,4.31,2.55,11.5,11.5,0,0,1,2.8,4.09,15.68,15.68,0,0,1,0,11,11.23,11.23,0,0,1-7.11,6.59,19,19,0,0,1-11,0,11.23,11.23,0,0,1-7.11-6.59A15.68,15.68,0,0,1,494.33,844.74ZM516.25,845a9.92,9.92,0,0,0-2.13-3.64,8.48,8.48,0,0,0-3.2-2.13,11.72,11.72,0,0,0-7.93,0,8.48,8.48,0,0,0-3.2,2.13,9.92,9.92,0,0,0-2.13,3.64,18.21,18.21,0,0,0,0,10.44,9.91,9.91,0,0,0,2.13,3.64,8.45,8.45,0,0,0,3.2,2.13,11.72,11.72,0,0,0,7.93,0,8.46,8.46,0,0,0,3.2-2.13,9.91,9.91,0,0,0,2.13-3.64A18.23,18.23,0,0,0,516.25,845Z" transform="translate(-198.83 -198.69)"/><path class="cls-2" d="M525.15,842.41q-0.09-2.31-.2-4.71l3.26,0.13q1.62,0.05,3.26.05t3.31-.05l3.64-.13a5.5,5.5,0,0,0,0,2.18q-1-.11-2.37-0.2t-2.82-.15l-2.77-.09-2.2,0q0,1.27-.05,2.44t0,2.33q0,1.27,0,2.35t0,2.24q2.4,0,4.75-.07t4.64-.29a4.17,4.17,0,0,0,0,2.18q-0.91-.11-2.06-0.16l-2.38-.09q-1.24,0-2.51,0h-2.44v3.09q0,2.4.09,4.73t0.2,4.58q-0.84-.07-1.78-0.07t-1.78.07q0.11-2.26.2-4.58t0.09-4.73v-6.26Q525.24,844.72,525.15,842.41Z" transform="translate(-198.83 -198.69)"/><path class="cls-2" d="M552.58,842.41q-0.09-2.31-.2-4.71l0.91,0.13a7,7,0,0,0,1.75,0l0.91-.13q-0.11,2.4-.2,4.71t-0.09,4.71q0,4.58,0,8t0.07,6q2.58,0,4.95-.05a46.91,46.91,0,0,0,5.09-.42,4.23,4.23,0,0,0-.18,1.09,3.41,3.41,0,0,0,.18,1q-1.67-.07-3.35-0.07h-6.71q-1.62,0-3.37.07,0.11-2.26.2-4.58t0.09-4.73v-6.26Q552.67,844.72,552.58,842.41Z" transform="translate(-198.83 -198.69)"/><path class="cls-2" d="M569.39,844.74a11.49,11.49,0,0,1,2.8-4.09,12.07,12.07,0,0,1,4.31-2.55,17.82,17.82,0,0,1,11,0,12.07,12.07,0,0,1,4.31,2.55,11.5,11.5,0,0,1,2.8,4.09,15.68,15.68,0,0,1,0,11,11.23,11.23,0,0,1-7.11,6.59,19,19,0,0,1-11,0,11.23,11.23,0,0,1-7.11-6.59A15.68,15.68,0,0,1,569.39,844.74ZM591.32,845a9.92,9.92,0,0,0-2.13-3.64,8.48,8.48,0,0,0-3.2-2.13,11.72,11.72,0,0,0-7.93,0,8.48,8.48,0,0,0-3.2,2.13,9.92,9.92,0,0,0-2.13,3.64,18.21,18.21,0,0,0,0,10.44,9.91,9.91,0,0,0,2.13,3.64,8.45,8.45,0,0,0,3.2,2.13,11.72,11.72,0,0,0,7.93,0,8.46,8.46,0,0,0,3.2-2.13,9.91,9.91,0,0,0,2.13-3.64A18.23,18.23,0,0,0,591.32,845Z" transform="translate(-198.83 -198.69)"/><path class="cls-2" d="M611.88,853.25q-4.73-5.08-9.46-10.1,0,1-.07,2.73t0,4.66q0,0.76,0,1.89t0,2.37q0,1.24.05,2.51t0.07,2.37q0,1.09.07,1.91t0.07,1.11a10,10,0,0,0-1.27-.07,11.29,11.29,0,0,0-1.35.07q0.07-.36.16-1.35t0.16-2.35q0.07-1.37.16-3t0.15-3.2q0.06-1.6.09-3.13t0-2.73q0-3.49,0-6t-0.09-3.75h0.58l4.75,5.15q2.53,2.75,5,5.42l4.73,5.06q2.24,2.38,3.91,4.06V852q0-3.82-.05-7.44t-0.24-6.82a5.25,5.25,0,0,0,1.24.18,5.08,5.08,0,0,0,1.16-.18q-0.07.8-.16,2.4t-0.18,3.42q-0.09,1.82-.16,3.57t-0.07,2.8v2.18q0,1.24,0,2.58t0,2.71q0,1.36,0,2.55t0,2.06v1.2h-0.51Q616.61,858.33,611.88,853.25Z" transform="translate(-198.83 -198.69)"/><path class="cls-2" d="M628.09,842.41q-0.09-2.31-.2-4.71l2.75,0.13q1.36,0.05,2.75.05t2.75-.09q1.36-.09,2.75-0.09a15.91,15.91,0,0,1,5.48.84,9.56,9.56,0,0,1,3.73,2.38,9.37,9.37,0,0,1,2.13,3.78,17.5,17.5,0,0,1,.67,5,13.53,13.53,0,0,1-1.26,6.13,11.7,11.7,0,0,1-3.2,4,12,12,0,0,1-4.29,2.17,17.15,17.15,0,0,1-4.49.64q-1.24,0-2.44,0t-2.44,0h-2.44q-1.2,0-2.44.07,0.11-2.26.2-4.58t0.09-4.73v-6.26Q628.18,844.72,628.09,842.41Zm3.29,18.68a13.26,13.26,0,0,0,2.07.27q1.31,0.09,2.69.09a17.35,17.35,0,0,0,4-.47,8.67,8.67,0,0,0,3.58-1.78,9.54,9.54,0,0,0,2.58-3.58,17.73,17.73,0,0,0,.22-11.08,7.92,7.92,0,0,0-2.15-3.22,7.61,7.61,0,0,0-3.26-1.64,17.77,17.77,0,0,0-4.15-.45q-1.64,0-3.06.11t-2.55.25q-0.11,1.75-.16,3.66t-0.05,3.88v6.26Q631.16,857.31,631.38,861.09Z" transform="translate(-198.83 -198.69)"/><path class="cls-2" d="M655,844.74a11.49,11.49,0,0,1,2.8-4.09,12.07,12.07,0,0,1,4.31-2.55,17.82,17.82,0,0,1,11,0,12.07,12.07,0,0,1,4.31,2.55,11.5,11.5,0,0,1,2.8,4.09,15.68,15.68,0,0,1,0,11,11.23,11.23,0,0,1-7.11,6.59,19,19,0,0,1-11,0,11.23,11.23,0,0,1-7.11-6.59A15.68,15.68,0,0,1,655,844.74ZM676.94,845a9.92,9.92,0,0,0-2.13-3.64,8.48,8.48,0,0,0-3.2-2.13,11.72,11.72,0,0,0-7.93,0,8.48,8.48,0,0,0-3.2,2.13,9.92,9.92,0,0,0-2.13,3.64,18.21,18.21,0,0,0,0,10.44,9.91,9.91,0,0,0,2.13,3.64,8.45,8.45,0,0,0,3.2,2.13,11.72,11.72,0,0,0,7.93,0,8.46,8.46,0,0,0,3.2-2.13,9.91,9.91,0,0,0,2.13-3.64A18.23,18.23,0,0,0,676.94,845Z" transform="translate(-198.83 -198.69)"/><path class="cls-2" d="M697.49,853.25q-4.73-5.08-9.46-10.1,0,1-.07,2.73t0,4.66q0,0.76,0,1.89t0,2.37q0,1.24.05,2.51t0.07,2.37q0,1.09.07,1.91t0.07,1.11a10,10,0,0,0-1.27-.07,11.29,11.29,0,0,0-1.35.07q0.07-.36.16-1.35T686,859q0.07-1.37.16-3t0.15-3.2q0.06-1.6.09-3.13t0-2.73q0-3.49,0-6t-0.09-3.75h0.58l4.75,5.15q2.53,2.75,5,5.42l4.73,5.06q2.24,2.38,3.91,4.06V852q0-3.82-.05-7.44T705,837.7a5.25,5.25,0,0,0,1.24.18,5.08,5.08,0,0,0,1.16-.18q-0.07.8-.16,2.4T707,843.52q-0.09,1.82-.16,3.57t-0.07,2.8v2.18q0,1.24,0,2.58t0,2.71q0,1.36,0,2.55t0,2.06v1.2h-0.51Q702.22,858.33,697.49,853.25Z" transform="translate(-198.83 -198.69)"/><path class="cls-2" d="M270.74,865.88a32.83,32.83,0,0,0,4.09-5.9,11.75,11.75,0,0,1-1.42,0,4.12,4.12,0,0,1-1.12-.2q-0.4,1-1,2.27T270,864.89l-0.3.64A9.53,9.53,0,0,0,270.74,865.88Z" transform="translate(-198.83 -198.69)"/></svg>