<svg xmlns="http://www.w3.org/2000/svg" width="401" height="426" viewBox="0 0 401 426">
  <title>
    Shape
  </title>
  <path fill="#4A4A4A" d="M176.19,116.23 L174.09,116.51 C171.326691,120.63197 169.190105,125.141041 167.75,129.89 C168.378779,130.316131 169.048817,130.677951 169.75,130.97 C171.489976,125.879313 173.657713,120.945034 176.23,116.22 M183.78,131.65 C185.28,127.74 189.12,118.65 190.53,116.33 C189.239777,116.068483 187.926458,115.937821 186.61,115.94 C184.39,119.74 180.2,129.21 179.18,131.76 C180.65,131.82 182.07,131.65 183.77,131.65 M175.27,131.82 C177.319486,126.300155 179.800489,120.950283 182.69,115.82 C182.69,115.82 180.31,115.82 179.4,115.94 C176.461808,120.982776 173.940103,126.256952 171.86,131.71 C171.86,131.71 172.66,132.14 175.24,131.84 M293.96,380.5 C300.03,383.22 304.06,396.38 290.78,402.36 C297.55,385.23 271.25,369.5 243.93,385.97 C244.83,384.85 245.76,383.76 246.62,382.62 C275.11,364.43 321.89,384.87 339.9,358.27 C340.98,365.18 334.46,374.83 320.39,377.49 C335.19,379.31 342.68,386.49 352.72,388.49 C342.86,388.83 318.35,376.07 293.96,380.49 M200.67,410.71 C152.79,381.07 131.67,318.11 128.86,247.88 C134.86,247.29 148.35,246.04 163.86,245.14 C164.06,282.55 167.76,328.87 186.01,377.21 C184.21,350.21 181.63,295.75 182.24,244.32 C188.38,244.14 194.49,244.05 200.3,244.14 L200.65,243.88 L200.99,244.14 C228.13,243.76 261.99,246.85 272.46,247.88 C269.67,318.11 248.52,381.07 200.67,410.71 M111.16,402.82 C97.88,396.82 101.91,383.68 107.98,380.95 C83.59,376.53 59.09,389.28 49.21,388.95 C59.21,386.95 66.74,379.75 81.55,377.95 C67.48,375.28 60.96,365.64 62.04,358.71 C79.94,385.15 126.26,365.13 154.79,382.71 C155.67,383.86 156.62,384.96 157.52,386.1 C130.38,370.1 104.43,385.73 111.16,402.77 M129.36,204.26 C138.01,202.91 151,201.47 164.73,200.46 C164.52,208.33 164.22,217.15 164.03,226.79 C150.44,227.73 138.17,228.95 128.53,229.93 C128.57,221.43 128.846667,212.873333 129.36,204.26 M145.67,176.37 C151.42,169.83 164.46,163.93 170.89,157.51 C172.944848,162.91199 174.152436,168.59912 174.47,174.37 C172.09,177.43 163.92,179.48 161.19,184.01 C160.765657,186.187947 160.548023,188.401114 160.54,190.62 L155.54,191.02 C158.76,185.66 154.67,181.08 149.27,179.59 C149.95,185.03 147.34,187.86 145.53,188.21 C141.61,187.13 142.44,180.05 145.67,176.38 M165.84,143.85 C162.26,142.78 159.71,136.85 161.19,133.07 C161.99,132.29 163.26,132.16 164.48,131.07 C166.64,129.07 166.35,119.56 176.73,110.54 C184.33,108.84 195.22,108.27 201.18,109.23 C201.84,109.65 208.91,112.39 210.42,135.5 C215.602701,134.937575 220.72796,133.933934 225.74,132.5 C215.08,141.35 168.17,144.5 165.84,143.84 M173.78,97.19 C177.322525,96.3305895 181.012182,96.2725115 184.58,97.02 C186.58,96.34 192.07,95.74 195.3,96.85 C200.24,95.65 206.43,96.13 208.89,97.05 C211.89,95.68 217.66,96.34 220.15,97.19 C228.99,95.06 233.56,99.37 233.56,102.19 C233.56,104.19 232.95,104.71 231.92,105.27 C228.31,107.27 229.33,101.73 221.65,99.97 C224.99,101.65 225.25,105.39 228.99,106.15 C216.49,108.15 218.99,98.32 209.94,98.32 C213.79,99.45 214.39,104.17 218.14,105.97 C205.34,107.25 206.45,97.8 197.03,98.03 C201.69,99.39 202.03,104.13 207.03,105.72 C193.41,107.58 195.66,97.34 185.56,98.09 C190.32,100.19 191.2,104.27 195.71,105.38 C183.06,108.75 183.43,98.23 175.12,99.08 C178.86,100.02 180.48,104.3 183.54,105.54 C176.4,108.18 176.65,102.22 170.54,102.3 C172.92,103.24 173.83,105.14 176.04,106.25 C164.16,108.01 165.69,96.35 173.77,97.25 M221.93,123.37 C223.469238,123.419325 224.681992,124.698401 224.649369,126.238084 C224.616746,127.777766 223.350902,129.004326 221.810956,128.988408 C220.27101,128.972491 219.03079,127.720028 219.03,126.18 C219.040517,125.422349 219.352312,124.700074 219.896482,124.172792 C220.440651,123.645511 221.172393,123.356634 221.93,123.37 M236.28,178.84 C231.97,178.61 231.46,179.46 229.08,180.03 C223.08,171.03 222.44,155.03 227.88,145.26 C227.43,157.26 229.25,174.42 236.28,178.84 M255.67,176.44 C258.91,180.12 259.74,187.21 255.82,188.29 C254,187.95 251.4,185.11 252.08,179.66 C250.337361,180.126749 248.716746,180.966057 247.33,182.12 C245.612767,180.369677 243.299074,179.330657 240.85,179.21 C235.85,173.83 233.9,167.03 233.38,160.21 C240.27,165.66 250.7,170.84 255.67,176.48 M244.67,187 C244.598934,188.425475 244.965303,189.838612 245.72,191.05 C240.846667,190.643333 236.14,190.31 231.6,190.05 C235.56479,187.790519 240.106634,186.747216 244.66,187.05 M221.75,176.95 C216,172.39 211.37,156.12 216.98,144.16 C218.18,140.92 222.09,138.88 221.64,141.55 C218.46,151.76 218.81,167.87 221.75,176.94 M174.1,195.72 C179.38,185.72 180.57,172.07 173.42,152.83 C178.86,157.93 182.09,171.21 182.6,177.68 C184.36,175.18 185.1,167.24 184.42,161.96 C188.61,178.63 185.42,201.78 181.35,205.41 C178.68,204.05 176.59,200.99 174.88,198.41 C175.944939,202.052386 177.76054,205.431516 180.21,208.33 C206.75,199.33 226.04,177.76 241.21,183.43 C232.81,183.88 226.58,187.74 220.79,193.19 C211.79,191.82 205.02,208.84 177,217.29 C173.49,215.08 169.65,203.79 168.27,199.82 C166.89,195.85 165.56,194.93 163.68,194.88 C163.060775,191.542599 163.294678,188.102852 164.36,184.88 C164.36,184.88 166.46,182.67 172.13,180.63 C172.010633,185.748176 172.661234,190.855223 174.06,195.78 M271.91,204.45 C272.43,213.056667 272.706667,221.613333 272.74,230.12 C254.94,228.3 228.08,225.66 200.61,225.55 C194.54,225.55 188.5,225.73 182.61,225.96 C182.66,223.82 182.74,221.7 182.81,219.58 C197.81,214.58 209.41,203.99 216.52,199.58 C235.067039,200.231284 253.566414,201.86692 271.94,204.48 M111.86,196.36 C111.86,203.92 111.86,211.07 111.86,217.97 C110.86,214.5 108.41,210.75 103.73,206.87 C99.19,228.81 75.07,228.87 63.73,215.25 C68.05,198.08 89.34,188.54 110.44,183.38 C110.98,189.08 113,193.05 115.86,195.76 L111.86,196.36 M97.3,238.06 C101.15,237.72 109.79,232.6 111.92,225 C112,236.08 112.2,246.61 112.72,257.21 C110.27,250.67 105.61,244.05 97.3,238.06 M290.84,183.46 C311.95,188.62 333.22,198.16 337.56,215.33 C326.2,228.9 302.09,228.88 297.56,206.94 C292.88,210.83 290.41,214.57 289.43,218.04 C289.43,211.12 289.43,203.95 289.43,196.36 L285.48,195.77 C288.32,193.08 290.3,189.11 290.84,183.46 M288.57,257.29 C289.1,246.7 289.29,236.16 289.37,225.08 C291.51,232.67 300.15,237.8 304,238.14 C295.68,244.14 291,250.75 288.57,257.29 M364.98,386.39 C370.054728,382.420962 373.258677,376.527142 373.83,370.11 C358.17,383.73 335.83,377.43 335.83,377.43 C335.83,377.43 361.92,368.75 340.48,339.43 C341.84,366.32 313.37,369.74 291.81,369.73 C276.24,369.73 261.86,371.47 251.65,375.85 C269.76,350.11 281.26,321.85 284.38,300.53 C285.47,293.05 286.32,285.94 286.99,279.04 L287.1,279.73 C289.1,290.83 293.34,295.73 312.1,303.54 C330.86,311.35 329.72,323.66 319.98,331.2 C334.5,335.34 344.69,313.38 329.08,293.59 C330.61,292.31 337.33,282.95 328.31,271.59 C323.66,280.08 313.31,283 306.64,281.59 C320.48,288.16 327.29,278.98 328.42,277.51 C332.16,286.35 327.42,293.51 322.98,293.62 C330.7,299.52 335.98,306.48 334.19,317.56 C332.8,309.48 314.42,302.66 304.83,297.13 C297.34,292.82 292.92,280.97 303.53,274.97 C314.14,268.97 324.62,264.22 332.74,255.97 C334.1,261.65 339.74,274.58 360.99,280.81 C337.04,245.31 370.17,243.71 353.84,211.27 C351.12,242.12 308.23,249.39 308.23,249.39 C343.96,235.09 355.32,214.05 348.74,193.22 C344.36,179.41 331.09,165.71 302.33,156.36 C308.01,155.23 311.98,153.69 314.92,151.03 C297.92,155.03 293.08,154.43 285.76,153.41 C320.94,163.15 339.12,175.22 342.76,191.53 C344.53,199.53 343.21,206.41 340.13,211.76 C333.77,190.39 300.39,181.42 288.19,179.05 C288.19,185.96 285.3,190.3 281.25,192.91 L259.67,189.45 C262.203846,186.353096 263.103357,182.230956 262.09,178.36 C260.39,171.36 253.32,162.63 233.48,148.85 C233.61,147.15 233.78,145.5 233.94,143.91 C242.75,150.91 259.77,159.91 274.94,164.05 C262.87,158.88 243.81,149.18 234.36,139.58 C234.36,139.22 234.44,138.85 234.46,138.5 C234.57,137.33 234.64,136.15 234.71,134.98 C252.1,148.12 267.09,151.11 272.55,151.11 C264.07,148.8 230.83,133.49 214.86,108.51 C218.34,108.61 221.81,108.74 225.21,108.87 C231.376859,118.183367 239.167362,126.312587 248.21,132.87 C241.014837,126.058351 235.305383,117.832924 231.44,108.71 L231.3,108.71 C234.335164,108.184447 236.551369,105.550328 236.55,102.47 C236.55,99.79 235.25,93.86 220.38,94.68 L219.67,94.68 C214.485291,93.0480337 209.102519,92.1295983 203.67,91.95 C202.99,87.69 199.58,85.65 197.88,91.95 C193.190604,92.4289946 188.544064,93.2613603 183.98,94.44 C180.63,94.14 176.52,94.16 173.72,95.07 C167.23,95.48 164.72,98.84 164.58,102.17 C164.4503,105.730884 167.219981,108.728394 170.78,108.88 C168.59,112.29 160.15,125.19 152.95,132.97 C157.95,129.9 164.42,123.55 164.42,123.55 L165.04,122.55 C164.29,125.05 163.66,127.28 163.04,128.73 C161.983701,129.600554 160.781894,130.277627 159.49,130.73 C159.21,130.87 157.4,131.66 157.28,132.99 L157.28,133.52 C146.78,145.39 107.28,163.96 91.01,171.67 C108.9,164.16 132.12,157.16 157.36,138.43 C157.51125,139.662364 157.813519,140.871444 158.26,142.03 C149.18,151.13 135.71,158.55 127.44,164.47 C140.19,159.34 152.1,150.59 160.1,145.21 C160.556803,145.740817 161.097254,146.193444 161.7,146.55 C162.686096,146.781346 163.689425,146.931845 164.7,147 C165.49124,147.747653 166.198741,148.579218 166.81,149.48 C147.81,162.83 140.9,171.34 139.24,178.25 C138.196704,182.194484 139.149077,186.399864 141.79,189.51 L120.33,192.77 C116.17,190.17 113.23,185.77 113.2,178.77 C101.01,181.15 67.62,190.12 61.26,211.48 C58.18,206.12 56.86,199.28 58.63,191.25 C62.22,174.94 80.4,162.89 115.63,153.13 C108.31,154.13 103.49,154.71 86.47,150.75 C89.42,153.42 93.39,154.95 99.06,156.08 C70.31,165.44 57.06,179.14 52.66,192.95 C46.07,213.78 57.43,234.82 93.16,249.11 C93.16,249.11 50.28,241.85 47.56,210.99 C31.22,243.44 64.35,244.99 40.41,280.54 C61.62,274.29 67.29,261.36 68.66,255.7 C76.77,263.97 87.25,268.7 97.86,274.7 C108.47,280.7 104.06,292.56 96.57,296.86 C86.99,302.38 67.57,309.91 67.29,317.62 C65.29,306.5 70.7,299.25 78.41,293.34 C73.93,293.29 69.22,286.09 72.96,277.24 C74.09,278.71 80.9,287.9 94.74,281.31 C88.05,282.73 77.74,279.81 73.07,271.31 C64.07,282.71 70.77,292.07 72.3,293.31 C69.68,296.81 59.48,310.97 67.41,325.07 C69.18,328.2 74.31,333.21 81.35,330.94 C71.82,323.45 70.57,311.08 89.3,303.26 C108.03,295.44 112.21,290.55 114.3,279.43 L114.41,278.78 C115.08,285.71 115.93,292.78 117.02,300.32 C120.15,321.67 131.73,350.09 149.95,375.91 C139.76,371.66 125.57,369.96 110.22,369.97 C88.66,369.97 60.22,366.56 61.55,339.68 C40.11,368.96 66.2,377.68 66.2,377.68 C66.2,377.68 43.85,383.97 28.2,370.36 C28.7310278,376.782939 31.8942616,382.70043 36.94,386.71 C34.94,386.94 12.77,389.82 0.94,371.22 C8.44,417.28 78.32,393.01 89.21,387.5 C84.77,391.69 75.82,403.38 84.67,411.55 C84.9,400.02 97.15,394.13 100.33,393.55 C101.8,400.76 108.16,405.24 113.94,406.55 C112.58,398.83 113.57,386.21 139.24,387.6 C151.57,388.27 163.7,396.48 173.9,404.44 L174.77,405.13 C182.669986,412.71629 191.351816,419.44387 200.67,425.2 C209.897413,419.488541 218.498115,412.821823 226.33,405.31 L228.02,403.99 L262.67,387.14 C288.34,385.75 289.33,398.37 287.97,406.08 C293.76,404.72 300.11,400.24 301.58,393.08 C304.76,393.71 317.01,399.61 317.23,411.08 C326.08,402.92 317.12,391.23 312.7,387.08 C323.58,392.58 393.47,416.86 400.95,370.79 C389.16,389.4 367.03,386.51 364.95,386.28 M271.67,141.89 C263.11,140.89 258.51,139.39 252.75,136 C269.47,149.11 294.87,152.66 318.87,148.24 C329.32,146.31 345.3,147.05 354.94,151.87 C351.88,145.87 335.77,134.97 327.51,133.8 C337.51,117.8 330.16,106.38 346.51,96.17 C343.62,93.33 333.86,91.52 326.51,96.49 C323.16,92.6 316.7,86.9 307.3,85.91 C296.09,84.71 288.16,86.91 281.13,96.68 C290.49,86.13 309.78,83.81 322.03,95.38 C302.52,85.85 288.79,104.68 287.6,125.1 C282.33,118.3 279.66,107.46 279.83,104.23 C272.83,104.91 266.5,110.92 265.99,120.79 C263.44,117.39 256.46,98.21 269.85,88.79 C265.99,84.25 264.63,79.26 265.85,75.91 C274.53,81.18 287.58,79.71 301.85,83.11 C288.01,74.72 273.06,79.99 262.43,70.11 C260.08,76.41 262.6,83.11 265.83,88.32 C251.03,104.66 261.92,125.93 268.9,129.84 C268.05,122.35 270.82,113.43 277.12,110.1 C278.54,120.71 287.93,130.71 289.47,133.44 C289.65,128.16 291.47,107.02 299,107.63 C303.64,108.01 307.27,116.82 305.58,123.18 C303.29,131.81 296.72,144.72 271.65,141.9 M193.19,130.65 C194.19,128.52 196.12,122.26 197.74,117.37 L194.08,116.73 C191.95,121.84 188.49,129.96 188.08,131.28 C189.789506,131.155834 191.491667,130.945567 193.18,130.65 M82.43,148.16 C106.43,152.58 131.82,149.03 148.55,135.93 C142.79,139.31 138.2,140.85 129.62,141.81 C104.56,144.64 98,131.71 95.67,123.09 C93.97,116.75 97.6,107.93 102.25,107.55 C109.81,106.95 111.6,128.09 111.78,133.36 C113.31,130.64 122.7,120.67 124.14,110.04 C130.44,113.37 133.22,122.3 132.36,129.78 C139.36,125.87 150.23,104.59 135.43,88.26 C138.66,83.05 141.18,76.35 138.83,70.06 C128.19,79.93 113.25,74.65 99.41,83.06 C113.71,79.66 126.75,81.13 135.41,75.85 C136.59,79.21 135.23,84.19 131.41,88.73 C144.8,98.14 137.82,117.32 135.27,120.73 C134.76,110.86 128.41,104.85 121.43,104.17 C121.6,107.4 118.93,118.23 113.66,125.04 C112.46,104.62 98.74,85.78 79.23,95.32 C91.48,83.75 110.77,86.07 120.13,96.62 C113.13,86.88 105.13,84.62 93.96,85.85 C84.56,86.85 78.1,92.54 74.75,96.44 C67.43,91.44 57.68,93.28 54.75,96.12 C71.08,106.33 63.75,117.73 73.75,133.75 C65.48,134.91 49.38,145.86 46.31,151.82 C55.96,147 71.93,146.26 82.39,148.19 M208.09,135.83 C201.26,136.48 183.25,138.5 169.97,137.13 C167.893801,136.152789 166.126097,134.623777 164.86,132.71 C165.020419,135.365805 165.967238,137.913864 167.58,140.03 C173.82,140.94 203.58,138.21 208.09,135.84 M187.44,50.84 C188.35,59.69 192.65,64.45 194.7,63.55 C196.75,62.65 192.43,45.85 202.2,37.23 C197.66,46.53 202.2,53.88 203.78,62.64 C204.87,68.47 203.1,77.17 200.15,78.76 C197.2,80.35 184.26,71.04 187.44,50.85 M181.2,70.93 C183.25,79.25 190.94,85.2 200.6,86.01 C205.31,86.41 213.53,83.52 214.67,74.89 C206.5,77.84 210.58,70.35 216.26,67.4 C221.94,64.45 226.98,55.95 221.19,45.73 C219.83,56.96 208.39,61.83 209.68,55.38 C210.58,50.84 223.97,35.38 214.21,17.49 C212.85,22.93 213.21,28.04 208.76,27.02 C204.31,26 199.12,7.85 207.63,0.02 C198.39,1.02 191.92,12.02 193.11,19.53 C194.3,27.04 198.05,36.38 193.11,39.27 C190.35,40.89 188.39,39.67 187.83,37.4 C186.78,33.1 188.08,24.58 179.49,21.57 C185.27,33.14 177.01,54.03 181.19,70.92"/>
</svg>
