<svg class="cpicon-faith" width="1792" height="1792" viewBox="0 0 1792 1792" xmlns="http://www.w3.org/2000/svg"><title>Faith</title><g fill="none" fill-rule="evenodd"><path d="M1421.11 1243.42c14.323-16.182 32.416-33.79 41.941-53.308-24.876-23.782-64.622-29.874-94.96-13.103-25.254 13.96-47.739 32.868-71.784 49.087-32.523 21.935-64.226 45.432-98.345 64.582-49.3 27.673-103.335 31.81-158.545 22.785-42.59-6.963-85.229-21.324-122.569-43.12-3.37-1.967-7.04-4.5-7.583-8.364 35.228-.392 70.442 3.214 105.604-.581 42.636-4.603 84.84-14.181 126.804-23.512 15.128-3.364 31.75-10.726 43.35-21.157 6.045-5.435 10.785-12.79 11.37-20.9.586-8.133-3.008-16-7.393-22.875-15.998-25.085-43.62-42.985-73.969-41.337-103.767 5.635-206.526-8.21-308.929-23.69l-2.523-.383c-28.424-4.335-56.094-9.458-83.69-12.937-39.192-4.94-78.236-6.564-119.076 2.099-63.02 13.369-121.968 45.053-166.753 91.518a323.115 323.115 0 0 0-38.96 49.218c-1.482 1.48-2.538 4.012-3.625 5.806-9.824 16.209-17.482 33.428-24.78 50.88-1.15 2.749-1.59 5.168-.023 7.842 1.631 2.779 4.456 4.665 6.998 6.53 3.666 2.69 7.348 5.36 11.05 8.003a758.887 758.887 0 0 0 21.115 14.565c15.3 10.158 31.053 19.606 47.186 28.379 13.047 7.095 26.075 14.318 39.46 20.754 34.458 16.572 60.72 23.6 98.714 15.279 31.018-6.794 59.65-7.936 91.312-7.31 41.91.833 83.67 4.815 125.36 8.909a3710.757 3710.757 0 0 1 194.553 24.32c134.205 20.38 266.027-36.564 365.133-124.401a626.503 626.503 0 0 0 53.556-53.577" fill="#3A0F2F"/><path d="M856.388 394.043c14.897-13.365 28.625-27.428 44.06-39.24 84.876-65.005 204.095-56.832 277.665 19 35.861 36.964 52.862 82.555 58.69 133.204 7.205 62.792-12.799 118.296-44.09 170.874-34.783 58.457-79.764 108.553-128.668 155.244-61.672 58.899-128.252 111.665-199.28 158.827-5.442 3.601-9.054 3.687-14.524.028-94.889-63.594-182.946-135.246-259.011-220.924-40.16-45.243-75.72-93.833-97.422-150.992-29.209-76.958-23.082-151.631 22.35-220.283 59.457-89.834 181.603-115.08 276.21-59.728 22.838 13.368 42.983 29.949 60.293 50.012 1.399 1.627 2.929 3.14 3.727 3.978zM547.823 1483L300 1335.319l36.703-61.592 247.824 147.681L547.824 1483z" fill="#34CBB5"/><path d="M1376.434 676.911c4.511-4.046 8.666-8.303 13.338-11.878 25.692-19.678 61.781-17.203 84.051 5.751 10.856 11.19 16.002 24.99 17.766 40.322 2.181 19.008-3.874 35.81-13.346 51.725-10.53 17.696-24.146 32.86-38.949 46.994-18.669 17.83-38.823 33.802-60.324 48.077-1.647 1.091-2.74 1.117-4.396.01-28.724-19.25-55.379-40.94-78.405-66.876-12.157-13.695-22.922-28.404-29.49-45.707-8.842-23.295-6.987-45.9 6.765-66.68 18-27.195 54.973-34.837 83.611-18.08 6.913 4.045 13.012 9.065 18.252 15.138.423.493.886.951 1.127 1.204zm-874.897 743.017c15.04-6.54 32.533.355 39.07 15.396 6.537 15.041-.355 32.535-15.396 39.071-15.042 6.537-32.534-.357-39.07-15.398-6.54-15.04.355-32.533 15.396-39.069zm-24.62-.906c-7.736 3.362-16.732-.183-20.094-7.918-3.362-7.736.183-16.732 7.918-20.093 7.736-3.364 16.732.182 20.094 7.917 3.36 7.736-.183 16.733-7.918 20.094z" fill="#FFF"/></g></svg>