<svg class="cpicon-guide" width="1792" height="1792" viewBox="0 0 1792 1792" xmlns="http://www.w3.org/2000/svg"><title>Guide</title><g fill="none" fill-rule="evenodd"><path d="M278.612 269c-9.344.065-17.756 7.439-18.054 17.641l-25.551 869.16-.007.376v.336a18.13 18.13 0 0 0 11.679 16.79c54.353 20.668 289.319 111.601 639.115 269.192a34.785 34.785 0 0 0 27.868.314c90.36-38.33 589.029-249.764 639.096-268.802a18.144 18.144 0 0 0 11.678-16.537v-.874c-.001-.03-.001-.062-.003-.092l-25.56-869.167c-.376-12.897-13.736-21.276-25.533-16.065-302.963 133.796-456.998 276.204-484.211 302.756a18.053 18.053 0 0 0-5.272 10.396L993.7 794.291c-1.282 8.939-8.939 15.571-17.966 15.571H823.8c-9.02 0-16.678-6.632-17.962-15.571l-30.26-210.566a18.058 18.058 0 0 0-5.269-10.395c-27.214-26.559-181.245-168.961-484.213-302.761a18.187 18.187 0 0 0-7.233-1.569h-.251z" fill="#3A0F2F"/><path d="M1508.34 285.32c-.206-9.848-8.355-16.995-17.389-16.995a17.41 17.41 0 0 0-7.033 1.497 2374.567 2374.567 0 0 0-49.518 22.507c-2.852 1.336-6.13-.7-6.196-3.848-.305-14.546-6.26-28.024-16.769-37.95-10.146-9.582-23.364-14.86-37.22-14.86-7.793 0-15.4 1.678-22.617 4.989-111.613 51.258-214.096 108.706-304.6 170.749-73.864 50.633-120.513 91.304-141.742 111.037a52.454 52.454 0 0 0-2.68 2.677 4.374 4.374 0 0 1-6.427-.001 51.654 51.654 0 0 0-2.68-2.677h.001c-21.24-19.74-67.9-60.415-141.744-111.035-90.508-62.045-192.99-119.493-304.604-170.751-7.21-3.31-14.819-4.987-22.613-4.987-13.856 0-27.073 5.277-37.217 14.86-10.507 9.926-16.462 23.403-16.768 37.949l-.019.932c-.066 3.15-3.35 5.186-6.204 3.846a2369.536 2369.536 0 0 0-51.49-23.438 17.404 17.404 0 0 0-7.033-1.496c-9.033 0-17.183 7.145-17.39 17L270.9 1119.173a17.31 17.31 0 0 0 10.053 16.104c44.134 20.337 584.983 279.957 584.983 279.957s21.26 10.575 33.583 10.583c10.095.006 27.531-9.036 27.531-9.036s546.007-261.813 588.728-281.501a17.308 17.308 0 0 0 10.051-16.106L1508.34 285.32z" fill="#34CBB5"/><path d="M877.039 528.423a40.812 40.812 0 0 1 13.063 29.932v811.261c0 12.116-12.698 17.666-23.566 12.313-259.912-128.034-425.743-229.625-476.938-283.365-11.181-11.736-23.932-21.676-23.591-37.871l16.189-771.696c.488-23.236 19.67-39.997 40.902-39.997 5.676 0 11.5 1.2 17.152 3.794 254.878 117.051 395.448 237.208 436.789 275.629zm538.286-239.393l16.203 772.333c.336 16.203-8.897 31.072-23.616 37.902-60.771 28.185-205.086 149.189-477.345 283.608-10.863 5.363-23.567-.197-23.567-12.313V558.605a40.83 40.83 0 0 1 13.071-29.95c41.375-38.459 182.06-158.711 437.147-275.859 5.658-2.596 11.486-3.796 17.168-3.796 21.249 0 40.451 16.775 40.939 40.03z" fill="#F9F9F9"/><path d="M828.175 697.085L468.217 491.119 467 459l357.907 210.197 3.268 27.888zm0 94.999L469.21 585.128 467 554l358.9 206.241 2.275 31.843zM468 636l357.911 209.896 3.264 27.842-359.957-205.665L468 636zm0 95l358.898 206.239 2.277 31.844-358.961-206.954L468 731zm0 97l357.911 210.201 3.264 27.882-359.957-205.964L468 828zm0 94l358.898 206.24 2.277 31.845-358.961-206.951L468 922zm870.174-459l-1.218 32.072L977 700.737l3.267-27.846L1338.174 463zM977 795.084l2.276-31.843L1338.174 557l-2.214 31.128L977 795.084zm0 88.074l.191-30.173L1116.228 773l-2.104 30.455L977 883.158z" fill="#3F1031"/><path d="M679.54 1177.488c-21.074-16.354-43.312-31.644-65.526-47.979l-1.972-1.452c-79.94-58.944-159.012-119.24-225.557-193.429-19.464-21.699-50.333-28.29-78.194-22.129-7.636 1.69-15.407 4.586-20.525 10.5-5.103 5.895-6.876 14.097-6.463 21.882.794 14.94 7.073 31.204 15.05 43.743 22.13 34.786 44.253 69.901 70.045 101.935 21.271 26.418 47.597 47.852 71.22 72.007-2.989 2.253-7.195 1.481-10.814.53-40.102-10.54-78.756-29.717-112.359-53.877-43.56-31.319-77.397-70.767-92.063-122.965-10.15-36.123-15.716-73.556-22.896-110.487-5.307-27.303-7.733-55.373-15.39-81.965-9.202-31.947-40.286-54.768-73.283-55.51-6.776 19.695-6.447 43.905-7.707 64.593a600.99 600.99 0 0 0-.015 72.65c7.642 126.771 58.42 254.781 163.248 331.967a3559.584 3559.584 0 0 1 148.425 115.441c31.048 25.495 62.067 51.114 91.05 78.97 21.897 21.045 40.538 41.236 56.966 66.877 20.123 31.41 42.697 44.451 77.302 56.581 13.44 4.711 27.174 8.648 40.832 12.684 16.89 4.991 33.98 9.266 51.244 12.754a726.816 726.816 0 0 0 24.195 4.441c4.302.72 8.61 1.405 12.921 2.067 2.99.46 6.182 1.095 9.173.317 2.877-.75 4.218-2.689 5.302-5.332 6.887-16.785 13.37-33.655 17.7-51.309.48-1.953 1.48-4.386 1.48-6.395a309.76 309.76 0 0 0 6.955-59.797c1.14-61.879-17.348-123.338-51.019-175.14-21.82-33.57-49.398-58.946-79.326-82.173m1010.289-374.603c-1.26-20.688-.931-44.897-7.708-64.593-32.996.742-64.081 23.563-73.281 55.51-7.659 26.592-10.084 54.662-15.391 81.965-7.182 36.931-12.745 74.364-22.897 110.487-14.665 52.198-48.501 91.646-92.063 122.966-33.602 24.16-72.256 43.335-112.359 53.875-3.618.952-7.824 1.724-10.813-.529 23.622-24.155 49.948-45.589 71.22-72.007 25.792-32.034 47.915-67.149 70.044-101.935 7.977-12.539 14.256-28.802 15.05-43.743.413-7.785-1.36-15.987-6.463-21.882-5.117-5.914-12.889-8.81-20.525-10.5-27.86-6.162-58.73.43-78.194 22.13-66.545 74.188-145.617 134.484-225.558 193.428l-1.97 1.452c-22.216 16.335-44.453 31.625-65.526 47.98-29.928 23.226-57.505 48.602-79.326 82.172-33.67 51.802-52.158 113.261-51.019 175.141a309.76 309.76 0 0 0 6.956 59.796c0 2.01 1 4.442 1.48 6.395 4.33 17.654 10.812 34.524 17.698 51.31 1.084 2.642 2.426 4.581 5.303 5.331 2.991.778 6.184.142 9.173-.317a969.678 969.678 0 0 0 12.92-2.067 726.402 726.402 0 0 0 24.196-4.44c17.264-3.488 34.354-7.764 51.244-12.755 13.658-4.036 27.391-7.973 40.832-12.684 34.605-12.13 57.18-25.172 77.302-56.58 16.427-25.642 35.07-45.833 56.966-66.879 28.982-27.855 60.002-53.474 91.05-78.969a3559.584 3559.584 0 0 1 148.425-115.44c104.83-77.187 155.606-205.197 163.248-331.969a600.99 600.99 0 0 0-.015-72.649" fill="#3A0F2F"/></g></svg>