<svg class="cpicon-handshake" width="1792" height="1792" viewBox="0 0 1792 1792" xmlns="http://www.w3.org/2000/svg"><title>Handshake</title><g fill="none" fill-rule="evenodd"><path d="M361.263 1241.038s74.56 99.363 571.624 261.958c0 0 158.238 30.843 151.46-60.616 0 0 141.211 17.691 119.747-107.642 0 0 143.091 8.278 115.228-101.622 0 0 146.576-7.556 97.073-132.09-12.725-32.009-55.934-74.627-88.28-105.714-124.704-119.86-272.969-209.653-417.605-302.625-18.686-12.014-37.249-24.213-59.002-29.958-66.964-17.692-160.683 8.54-226.128 26.701-41.853 11.612-82.897 26.101-122.956 42.88-24.247 10.162-48.13 21.187-71.631 32.962-16.399 8.215-52.205 37.663-69.53 37.663H196.328v435.845s176.231 2.258 164.935 2.258" fill="#3A0F2F"/><path fill="#34CBB5" d="M81 1339h169V659H81z"/><path d="M168.83 1266.863c-22.57 31.382-66.308 38.535-97.691 15.966-31.387-22.57-38.536-66.308-15.967-97.69 22.565-31.387 66.304-38.536 97.687-15.967 31.392 22.565 38.536 66.303 15.97 97.69m6.398-156.847c-11.607 16.14-34.102 19.819-50.241 8.211-16.142-11.607-19.819-34.1-8.212-50.24 11.605-16.142 34.1-19.819 50.24-8.212 16.144 11.605 19.818 34.1 8.213 50.241" fill="#FFF"/><path d="M1166.131 643.317s-173.92-151.158-444.965-6.768c-39.415 20.99-76.07 65.81-100.275 101.808-22.235 33.066-39.008 70.684-42.27 110.761-3.072 37.772 4.061 110.725 48.626 121.893 17.257 4.322 35.58.352 52.173-6.07 64.75-25.055 102.095-73.543 149.642-121.689 24.715-25.038 58.592-45.925 93.287-39.942 40.567 6.999 86.98 39.857 123.906 58.659 48.676 24.786 97.09 50.117 144.962 76.423 13.9 7.64 221.854 133.66 212.083 142.608.004 0 54.21-49.634 42.916-110.549L1584 868.927 1292.621 526l-126.49 117.317z" fill="#34CBB5"/><path fill="#3A0F2F" d="M1630.23 1008L1760 899.216 1322.779 378 1193 486.784z"/><path d="M1741.51 843.787c4.534 38.39-22.905 73.188-61.295 77.722-38.39 4.539-73.187-22.906-77.725-61.296-4.534-38.39 22.91-73.184 61.295-77.722 38.394-4.539 73.187 22.906 77.725 61.296m-152.283-54.772c-11.607 16.14-34.102 19.819-50.241 8.211-16.142-11.607-19.819-34.1-8.212-50.24 11.605-16.142 34.1-19.819 50.24-8.212 16.144 11.605 19.818 34.1 8.213 50.241" fill="#FFF"/></g></svg>