<svg class="cpicon-heart" width="1792" height="1792" viewBox="0 0 1792 1792" xmlns="http://www.w3.org/2000/svg"><title>Heart</title><g fill="none" fill-rule="evenodd"><path d="M446.309 1175.662c128.498 144.433 277.27 265.211 437.56 372.41 9.24 6.176 15.352 6.028 24.528-.05 120.003-79.489 232.473-168.448 336.67-267.724 82.606-78.712 158.597-163.156 217.358-261.69 52.859-88.637 86.67-182.19 74.48-288.045-9.835-85.388-38.551-162.232-99.131-224.534-124.295-127.836-325.69-141.609-469.083-32.042-26.08 19.921-49.27 43.624-74.434 66.16-1.34-1.423-3.94-3.97-6.31-6.71-29.224-33.812-63.254-61.769-101.848-84.3-159.823-93.312-366.172-50.75-466.606 100.684-76.747 115.715-87.096 241.597-37.753 371.321 36.655 96.358 96.72 178.255 164.569 254.52" fill="#3A0F2F"/><path d="M1322.214 1007.577c-28.42-.07-40.218-9.761-44.753-37.59-15.542-95.297-30.66-190.66-45.9-286.002-10.527-65.858-20.997-131.715-31.49-197.577-4.065 4.636-5.731 9.42-6.765 14.337-21.144 100.117-42.211 200.248-63.302 300.37-11.942 56.675-24.004 113.33-35.806 170.035-3.82 18.33-11.776 33.304-31.952 36.832-20.22 3.527-33.053-7.312-42.231-24.063-5.266-9.608-11.318-18.79-16.971-28.184-18.544-30.772-37.073-61.563-56.774-94.28-4.896 8.51-8.407 14.486-11.794 20.532-45.737 81.545-91.356 163.158-137.34 244.57-4.337 7.673-9.717 15.747-16.695 20.803-20.137 14.584-45.436 5.105-55.953-20.788-41.672-102.616-82.974-205.374-124.453-308.068-20.701-51.243-41.47-102.461-63.525-156.95-4.545 9.469-7.606 15.603-10.46 21.832C481.748 780 436.858 876.362 393.608 973.44c-11.468 25.73-28.222 36.06-55.85 34.556-4.062-.222-9.687-.381-16.386-.493 0 1.496 26.629 45.496 27.2 44.737 39.194-1.945 68.674-22.73 85.67-60.893 31.703-71.238 64.893-143.4 97-213.187.81-1.758 1.623-3.52 2.428-5.277 8.409 20.797 16.735 41.385 25.039 61.975 13.288 32.93 26.557 65.86 39.825 98.79 28.148 69.882 56.3 139.752 84.623 209.559 10.638 26.218 30.98 45.346 55.797 52.465a76.4 76.4 0 0 0 21.059 2.97c16.314-.005 32.493-5.242 46.4-15.322 14.543-10.55 23.704-25.02 29.324-34.985 34.738-61.57 69.832-124.246 103.769-184.86l7.81-13.945 17.417 28.95a761.053 761.053 0 0 0 6.075 9.9c3.634 5.858 7.064 11.392 9.98 16.724 28.005 51.148 71.508 49.603 88.884 46.554 20.522-3.584 56.623-17.664 67.846-71.658 8.072-38.787 16.254-77.55 24.444-116.311l28.584-135.712c.525-2.495 1.054-4.995 1.573-7.49l5.422 33.975c11.618 72.915 23.639 148.31 35.716 222.459 7.974 48.94 38.589 74.88 88.548 74.994 40.33.099 120.248 0 121.196 0 .948 0 26.974-43.356 26.974-44.235-65.672.009-114.926-.026-147.76-.104z" fill="#FFF"/><path d="M1712.125 934.734c-17.813 0-99.911-.024-117.713-.06-76.377-.153-152.749-.514-229.116-.093-14.252.084-19.849-3.27-22.203-18.444-26.194-168.561-53.412-336.968-80.151-505.451-7.056-44.485-13.386-89.08-20.101-133.62-3.635-24.102-18.129-38.795-38.384-39.061-20.487-.273-33.493 11.645-38.636 35.956-40.495 191.417-80.911 382.844-121.386 574.266-1.336 6.283-2.998 12.497-5.672 23.578-20.187-33.69-38.498-63.16-55.633-93.29-8.877-15.603-19.696-27.743-38.731-27.65-18.415.1-28.32 12.314-36.677 27.408-43.131 77.835-86.835 155.353-130.368 232.965-3.376 6.025-6.976 11.928-11.857 20.253-24.685-61.157-48.398-119.573-71.848-178.094-39.269-98-78.236-196.112-117.668-294.047-6.354-15.762-17.333-27.69-35.996-28.244-19.419-.574-30.416 10.498-38.116 27.399-54.182 119.019-109.039 237.742-162.935 356.89-6.548 14.476-14.371 19.913-30.527 19.399-25.709-.822-51.453-.946-77.197-.935-13.887.004-141.499.054-155.38.054-50.647 0-45.45 73.837 2.052 73.837 11.265 0 148.14-.218 173.097-.356 34.038-.188 71.458-.233 86.778.603 27.628 1.504 44.382-8.825 55.849-34.556 43.25-97.08 88.141-193.44 132.445-290.055 2.852-6.23 5.914-12.363 10.459-21.832 22.054 54.49 42.824 105.707 63.524 156.95 41.48 102.694 82.781 205.453 124.453 308.068 10.518 25.893 35.817 35.372 55.953 20.788 6.979-5.056 12.359-13.13 16.696-20.803 45.984-81.411 91.602-163.025 137.34-244.57 3.386-6.045 6.898-12.022 11.794-20.531 19.701 32.716 38.23 63.507 56.774 94.279 5.652 9.395 11.705 18.577 16.971 28.184 9.177 16.752 22.011 27.59 42.231 24.064 20.176-3.528 28.133-18.503 31.951-36.832 11.803-56.705 23.865-113.361 35.807-170.036 21.091-100.122 42.157-200.253 63.302-300.37 1.034-4.917 2.7-9.7 4.075-14.545l2.69.208c10.492 65.862 20.962 131.72 31.491 197.577 15.24 95.342 30.357 190.705 45.899 286.003 4.535 27.828 16.334 37.519 44.753 37.589 83.133.198 166.269.069 249.401.074h142.113c51.24 0 48.644-72.917-1.603-72.917" fill="#34CBB5"/></g></svg>