<svg class="cpicon-software" width="1792" height="1792" viewBox="0 0 1792 1792" xmlns="http://www.w3.org/2000/svg"><title>Software</title><g fill="none" fill-rule="evenodd"><path d="M1006.17 1367.745c0 3.128-2.535 5.672-5.651 5.672H847.16c-3.097-.004-5.617-2.55-5.617-5.672 0-3.175 2.464-5.661 5.609-5.661h153.366c3.168 0 5.65 2.486 5.65 5.661zm635.91-30.488l-144.191-.023a27.252 27.252 0 0 0 4.685-15.271V565.28c0-15.042-12.206-27.281-27.208-27.281H366.916c-14.673 0-26.168 11.984-26.168 27.281v756.67a27.28 27.28 0 0 0 4.678 15.268l-137.816-.025h-.02c-8.95 0-17.44 3.928-23.913 11.061-6.15 6.778-9.677 15.78-9.677 24.696 0 17.98 16.645 33.754 35.62 33.754h1430.453c19.41-.026 34.616-13.955 34.616-31.71v-4.027c0-18.904-14.324-33.711-32.609-33.711z" fill="#3A0F2F"/><path fill="#FFF" d="M395.121 1294.682h1053.07V592.617H395.12z"/><path d="M694.04 665c21.593 0 39.26 17.658 39.272 39.245v361.708c-.012 21.588-17.679 39.245-39.272 39.245h-63.87l1.197 119.549.034 3.242c.124 12.305-14.2 19.135-23.687 11.298l-1.17-.967-161.105-133.122H155.276c-21.6 0-39.276-17.67-39.276-39.266V704.266C116 682.67 133.676 665 155.276 665H694.04zm188.733 244.038c-25.725 0-46.773-21.035-46.773-46.745V431.744c0-25.71 21.048-46.744 46.773-46.744h641.66c25.723 0 46.775 21.035 46.775 46.744v430.55c0 25.709-21.052 46.744-46.774 46.744h-345.58l-191.878 158.476c-12.688 10.482-29.748 2.35-29.6-12.298l.04-3.86 1.422-142.318h-76.065z" fill="#34CBB5"/><path d="M578.494 879.247c0 94.025-76.222 170.247-170.247 170.247-94.025 0-170.247-76.222-170.247-170.247C238 785.222 314.222 709 408.247 709c94.025 0 170.247 76.222 170.247 170.247zm796-224.001c0 94.025-76.223 170.247-170.248 170.247-94.024 0-170.246-76.222-170.246-170.247C1034 561.221 1110.222 485 1204.246 485c94.025 0 170.247 76.221 170.247 170.246z" fill="#FFF"/><path d="M1206.464 722.964c34.184.207 62.199-27.484 62.49-61.766.297-34.586-27.3-62.652-61.859-62.915-34.605-.264-62.622 27.5-62.85 62.284-.223 34.145 27.74 62.188 62.219 62.397m-95.86 14.326c.792-2.42 1.224-4.182 1.932-5.824 2.235-5.178 4.641-10.281 6.851-15.47 2.93-6.876 1.603-13.466-1.319-20.047-3.136-7.067-8.063-11.964-15.476-14.381-4.497-1.466-8.926-3.15-13.363-4.795-4.245-1.571-6.789-4.638-7.048-9.165-.25-4.36-.2-8.743-.091-13.112.135-5.395 3.087-8.666 8.085-10.458 5.306-1.9 10.612-3.84 15.767-6.107 11.203-4.925 14.4-14.964 15.071-25.855.234-3.8-2.01-7.843-3.49-11.632-1.455-3.722-3.392-7.255-5.087-10.883-2.277-4.876-1.575-8.945 2.169-12.707 2.572-2.586 5.156-5.16 7.735-7.74 4.47-4.465 8.088-5.057 13.78-2.482 5.385 2.434 10.787 4.845 16.27 7.043 4.93 1.976 9.879 1.661 14.934-.09 8.824-3.057 15.608-8.024 18.5-17.37 1.345-4.344 3.024-8.585 4.598-12.854 1.684-4.57 4.94-7.141 9.859-7.27 4.28-.11 8.57-.131 12.849-.001 4.799.144 7.994 2.713 9.713 7.118 2.148 5.506 4.031 11.125 6.375 16.544 4.856 11.238 14.925 14.392 25.779 15.279 3.533.288 7.368-1.738 10.895-3.136 4.139-1.641 8.082-3.773 12.127-5.65 4.535-2.105 8.7-1.364 12.251 2.157a1453.27 1453.27 0 0 1 8.506 8.517c3.673 3.705 4.313 7.712 2.203 12.488-2.609 5.9-4.95 11.923-7.683 17.764-3.993 8.53 3.53 26.76 12.654 30.113 5.712 2.1 11.293 4.563 16.996 6.696 5.719 2.14 8.199 5.34 8.304 11.42.068 3.827.07 7.66-.03 11.486-.122 4.692-2.804 8.242-7.233 9.939-5.69 2.177-11.377 4.362-17.036 6.619-6.62 2.64-9.964 8.11-12.524 14.38-3.13 7.661-2.847 15.03.961 22.366 1.97 3.797 3.713 7.71 5.54 11.58 2.217 4.7 1.524 8.828-2.107 12.493-2.822 2.85-5.659 5.689-8.51 8.512-3.626 3.593-7.807 4.224-12.508 2.138-5.898-2.614-11.815-5.197-17.801-7.601-4.306-1.73-8.663-1.395-13.095.009-9.602 3.043-16.809 8.428-19.776 18.546-1.176 4.01-2.76 7.902-4.187 11.839-1.7 4.69-5.108 7.28-10.04 7.42-4.098.118-8.204.13-12.301.01-5.297-.156-8.53-2.707-10.408-7.724-2.072-5.533-4.017-11.133-6.445-16.512-4.934-10.928-14.918-13.945-25.555-14.698-3.79-.268-7.857 1.984-11.644 3.474-3.803 1.498-7.4 3.509-11.113 5.242-4.666 2.18-8.827 1.43-12.476-2.196-2.91-2.893-6.016-5.624-8.638-8.76-1.659-1.982-2.587-4.577-3.72-6.672zM1169 661.36c-.03 20.672 16.674 37.521 37.229 37.553 20.741.033 37.62-16.78 37.644-37.5.024-20.51-16.88-37.396-37.454-37.413-20.631-.017-37.39 16.714-37.419 37.36zM510.215 849.12c-1.53 3.615-4.267 4.816-8.14 4.794-20.137-.12-40.274-.055-60.412-.056-3.502 0-5.812-1.313-6.817-3.987-1.11-2.954-.115-5.332 2.05-7.472 6.552-6.476 13.037-13.02 19.57-19.517.507-.504 1.175-.845 1.89-1.347-6.83-5.823-13.965-10.077-21.824-13.091-44.363-17.02-92.69 9.794-101.936 56.538-7.946 40.177 19.068 80.47 59.268 88.403 41.708 8.23 81.789-18.662 89.784-60.268.446-2.32.71-4.681.925-7.035.44-4.799 2.734-6.965 7.522-6.961 3.685.003 7.37-.01 11.055.01 4.485.023 7.102 2.798 6.76 7.298-1.884 24.803-11.63 46.087-29.075 63.74-16.058 16.254-35.548 25.9-58.176 29.157-2.53.366-5.078.607-7.618.905h-12.243c-.503-.115-1-.266-1.51-.337-3.903-.54-7.844-.886-11.71-1.619-53.478-10.14-89.54-62.58-80.067-116.355 7.781-44.17 43.387-78.008 87.71-83.145 25.33-2.935 48.565 2.925 69.59 17.369 3.185 2.188 6.176 4.661 9.465 7.16.44-.524.865-1.12 1.375-1.63 7.159-7.173 14.31-14.352 21.503-21.492 3.602-3.575 8.524-2.64 10.66 1.95.105.226.265.43.401.643v66.345z" fill="#34CBB5"/></g></svg>