<svg class="cpicon-students" width="1792" height="1792" viewBox="0 0 1792 1792" xmlns="http://www.w3.org/2000/svg"><title>Students</title><g fill="none" fill-rule="evenodd"><path d="M791.54 1071.35c-30.933-74.095-102.823-131.95-193.993-156.12l-168.18-44.592-3.39-41.808s58.1-71.105 70.501-120.665c26.784 4.738 56.047-18.114 63.868-50.263 7.82-32.154-6.885-73.042-33.663-77.784l2.922-114.177c0-50.521-24.184-89.097-61.112-115.742a185.376 185.376 0 0 0-5.098-3.546c-1.073-16.493-6.699-32.062-15.929-45.974-9.205-13.876-21.997-26.103-37.43-35.96-25.57-16.327-58.395-26.143-94.195-26.143-35.8 0-68.624 9.816-94.195 26.144-15.433 9.856-28.225 22.083-37.43 35.959-8.527 12.85-13.969 27.117-15.597 42.218a193.689 193.689 0 0 0-5.43 3.503c-39.994 26.724-66.585 66.565-66.585 119.54l3.286 112.864c-24.954 4.749-39.277 46.944-31.992 79.098 7.29 32.149 33.421 54.366 58.374 49.623 13.054 47.818 39.996 90.248 75.462 119.422l-3.697 42.823-85.896 22.776c38.765 206.037 153.703 384.617 313.976 504.42 128.564-49.806 270.517-169.637 410.51-217.611L791.54 1071.35zm900.79-491.186l23.136-79.914c30.335-115.385-44.002-147.18-57.296-177.641-3.123-7.157-3.856-14.753-3.15-22.187 2.301-24.207 19.866-46.69 19.866-46.69s-94.316-30.272-209.993-10.306c-40.244 6.947-94.112 25.982-139.648 56.996-29.675 20.212-55.813 45.509-72.33 75.874-30.517 56.102-16.944 135.08 10.134 202.52-24.254 5.788-38.042 47.165-30.868 78.83 7.29 32.148 33.42 54.365 58.374 49.622 13.618 49.883 42.353 93.895 80.11 123.119v28.249l-.788 9.295-16.725 4.53-148.346 40.193c-89.49 24.242-160.053 82.264-190.413 156.576l-44.258 108.33s171.127 166.462 419.45 211.554c154.56-119.094 265.445-293.465 304.054-494.096l-83.383-22.556-13.804-3.734v-50.161c30.46-28.11 53.273-66.553 64.31-110.658 26.783 4.737 56.046-18.115 63.866-50.263 7.686-31.6-6.394-71.61-32.299-77.482" fill="#3A0F2F"/><path d="M1376.696 1350.422c-26.945-71.13-84.96-128.618-159.854-159.826a325.68 325.68 0 0 0-33.819-11.947l-32.957-9.734c16.173-22.318 28.259-50.17 37.24-80.536l.111-.374c36.736-124.644 21.293-291.34 21.293-291.34-15.284-199.226-140.154-349.688-298.958-351.65a446.317 446.317 0 0 0-7.499 0c-159.209 1.77-293.761 153.175-308.554 352.975 0 0-23.305 165.138 14.543 290.015.037.125.073.25.111.374 9.164 30.12 21.902 57.876 39.387 80.394l-32.041 9.114a325.56 325.56 0 0 0-34.009 12.074c-74.568 31.234-132.756 88.667-159.67 159.705L409 1384.062c136.455 107.867 308.045 172.162 494.464 172.208h.404c183.307-.046 352.265-62.236 487.593-166.86l-14.765-38.988z" fill="#34CBB5"/><path d="M1134.045 807.194l-36.277 12.55v-29.831a459.34 459.34 0 0 1 4.98-67.487l9.57-64.426S979.734 787.623 858.556 775.436c-132.92-13.38-163.576 78.052-163.576 78.052l-33.649-46.121-1.809-1.402c-27.974 5.23-21.806 39.005-13.64 74.424 8.167 35.413 15.24 72.586 43.22 67.356 27.42 98.704 109.52 176.557 206.72 176.557 98.993 0 182.475-74.329 208.335-175.854v-.703c27.975 5.23 35.042-31.943 43.214-67.356 8.165-35.419 14.65-67.97-13.326-73.195" fill="#FFF"/></g></svg>