<svg class="cpicon-envelope" width="1792" height="1792" viewBox="0 0 1792 1792" xmlns="http://www.w3.org/2000/svg"><title>Envelope</title><g fill="none" fill-rule="evenodd"><path d="M896.62 1174.085l-.252.163-429.413-276.46v-.088L245.54 755.275 245 712.17l1.932-.032.068.032 219.955 141.615v-229.43H1324.5v230.779l221.937-142.84v-1.02l.523 44v1.02L897.22 1174.47l-.6-.386z" fill="#FFF"/><path d="M896.698 1174.471l650.263-419.22v804.75H245.54V755.25l651.159 419.22zM666.361 952.3v-84.193h459.395V952.3H666.361zm311.284-200.551c0 45.058-36.528 81.586-81.586 81.586-45.06 0-81.587-36.528-81.587-81.587 0-45.06 36.527-81.587 81.587-81.587 45.058 0 81.586 36.528 81.586 81.588z" fill="#34CBB5"/><path d="M896.698 1174.471l650.263 385.53H245.54V755.25l651.159 419.22zm-429.22-320.659L247.522 712.198l-1.983-.896 607.378-463.078c25.663-19.565 61.24-19.562 86.898.008l607.145 463.07v1.019l-221.938 142.841V624.384H466.477l1 229.428z" fill="#3A0F2F"/></g></svg>