<svg class="cpicon-noticeboard" width="1792" height="1792" viewBox="0 0 1792 1792" xmlns="http://www.w3.org/2000/svg"><title>Noticeboard</title><g fill="none" fill-rule="evenodd"><path d="M1468.097 396.774H324.85c-51.095 0-92.687 41.505-92.85 92.584v849.308c.163 51.079 41.755 92.582 92.85 92.582h1143.247c51.201 0 92.854-41.667 92.854-92.885V489.66c0-51.216-41.653-92.885-92.854-92.885" fill="#3A0F2F"/><path d="M337.595 1305.275V746.087h1117.761v559.188H337.595zm195.86-715.003c0 23.81-19.3 43.114-43.113 43.114-23.81 0-43.11-19.304-43.11-43.113 0-23.81 19.3-43.109 43.11-43.109 23.814 0 43.114 19.3 43.114 43.109zm812.264 0c0 23.81-19.3 43.114-43.108 43.114-23.815 0-43.116-19.304-43.116-43.113 0-23.81 19.301-43.109 43.116-43.109 23.808 0 43.108 19.3 43.108 43.109z" fill="#FFF"/><path d="M490.814 621.63c-16.437 0-29.884-13.581-29.884-30.179V391.178c0-16.598 13.447-30.178 29.884-30.178 16.431 0 29.884 13.58 29.884 30.178v200.273c0 16.598-13.453 30.179-29.884 30.179zm811.264 0c-16.431 0-29.885-13.581-29.885-30.179V391.178c0-16.598 13.454-30.178 29.885-30.178 16.437 0 29.884 13.58 29.884 30.178v200.273c0 16.598-13.447 30.179-29.884 30.179zM461.93 930.025v-89h872.031v89H461.93zm0 148.75v-94h872.031v94H461.93zm.001 143.75v-89h422.735v89H461.931z" fill="#34CBB5"/></g></svg>