<svg class="cpicon-pin" width="1792" height="1792" viewBox="0 0 1792 1792" xmlns="http://www.w3.org/2000/svg"><title>Pin</title><g fill="none" fill-rule="evenodd"><path d="M748.53 506.31L715.918 273c-161.157 74.923-275.824 243.897-268.594 430.075 5.492 141.37 85.127 240.287 159.451 352.349 86.69 130.708 178.39 258.233 267.658 387.189l3.703 5.351a22.999 22.999 0 0 0 2.426 2.938L802.6 893.137c-83.186-34.284-141.846-117.048-140.362-212.674 1.098-70.676 34.608-133.469 86.293-174.153z" fill="#34CBB5"/><path d="M752.308 503.316c-.503.377-.996.766-1.494 1.148-.87.665-1.744 1.326-2.604 2.002l-32.52-232.66.039-.02c1.733-.805 3.471-1.6 5.214-2.382.028-.013.054-.026.083-.037a423.506 423.506 0 0 1 5.24-2.314l.084-.036a426.93 426.93 0 0 1 5.275-2.249l.08-.033a453.516 453.516 0 0 1 5.392-2.215 458.171 458.171 0 0 1 5.334-2.11l.079-.03a437.287 437.287 0 0 1 5.369-2.044l.08-.03a472.825 472.825 0 0 1 5.48-2.003 473.797 473.797 0 0 1 5.505-1.93 428.11 428.11 0 0 1 5.451-1.831l.092-.03a453.81 453.81 0 0 1 11.07-3.474c.025-.009.053-.016.077-.024 1.841-.55 3.688-1.089 5.539-1.617.027-.006.054-.015.083-.023a466.03 466.03 0 0 1 5.567-1.544c.022-.007.046-.012.069-.018a429.09 429.09 0 0 1 5.602-1.474l.064-.015c1.875-.48 3.755-.948 5.637-1.401l.05-.013c1.886-.455 3.778-.898 5.67-1.328.016-.004.03-.005.044-.01a465.167 465.167 0 0 1 5.743-1.262c1.905-.403 3.814-.797 5.727-1.177l.035-.007a439.91 439.91 0 0 1 5.76-1.1l.018-.003A423.54 423.54 0 0 1 898.275 233l-.05 225.45c-.777-.036-1.557-.062-2.334-.089-.679-.025-1.354-.06-2.032-.078-2.076-.056-4.159-.09-6.248-.09-2.09 0-4.172.033-6.249.09-.68.017-1.358.052-2.037.076-1.396.05-2.79.106-4.179.181-.798.044-1.593.1-2.39.153-1.268.081-2.535.17-3.797.273-.833.068-1.664.144-2.494.222a218.295 218.295 0 0 0-9.85 1.135c-.799.11-1.595.219-2.389.335-1.297.193-2.59.405-3.879.619-.71.12-1.422.23-2.129.354-1.592.28-3.178.584-4.758.899-.395.078-.79.145-1.183.227-1.97.401-3.931.831-5.884 1.285-.546.127-1.088.268-1.632.399-1.403.337-2.803.68-4.195 1.042-.727.19-1.445.393-2.169.588-1.207.327-2.413.66-3.613 1.008-.772.223-1.539.455-2.306.686-1.148.348-2.292.7-3.433 1.063a213.653 213.653 0 0 0-5.716 1.911c-.753.264-1.506.525-2.254.795a241.02 241.02 0 0 0-3.48 1.296c-.694.264-1.39.523-2.083.793-1.31.512-2.61 1.045-3.91 1.582-.52.215-1.044.422-1.563.64a225.12 225.12 0 0 0-5.398 2.36c-.335.153-.665.314-.998.467a222.28 222.28 0 0 0-4.327 2.038c-.622.3-1.236.615-1.855.923a222.427 222.427 0 0 0-3.4 1.718c-.687.355-1.368.72-2.05 1.083a209.845 209.845 0 0 0-5.233 2.868 231.34 231.34 0 0 0-3.05 1.758c-.684.402-1.368.803-2.05 1.213a229.439 229.439 0 0 0-3.066 1.882c-.641.398-1.284.795-1.92 1.2-1.103.702-2.194 1.42-3.284 2.14-.535.356-1.075.703-1.608 1.06a227.647 227.647 0 0 0-4.633 3.205c-.053.039-.108.075-.161.112a233.776 233.776 0 0 0-4.698 3.443zm146.471 939.924l.02 15.136-.023-.01v.228c-.524.035-1.048.059-1.573.059a23.121 23.121 0 0 1-16.297-6.696c-.193-.085-.372-.161-.572-.25l-77.95-557.67a220.85 220.85 0 0 0 6.863 2.598 223.013 223.013 0 0 0 30.57 9.018c.061.014.12.026.182.037 1.782.388 3.573.757 5.371 1.102.135.027.271.049.406.075 1.728.327 3.459.64 5.2.928.212.035.427.063.64.098 1.665.27 3.331.53 5.008.763.329.046.662.081.99.126 1.565.21 3.13.414 4.704.592.471.054.948.092 1.42.143 1.439.154 2.879.308 4.325.433.589.051 1.184.086 1.775.133 1.336.106 2.67.215 4.013.297.77.048 1.546.072 2.319.112 1.169.059 2.334.128 3.506.17 1.065.037 2.138.048 3.207.07.89.02 1.776.05 2.667.06 1.702.016 3.41.003 5.12-.02.264-.002.526.003.79-.002 2.23-.038 4.448-.117 6.66-.22l.556 450.247h.122l-.019 82.443zm-27.412-533.73c-1.687-.12-3.37-.26-5.048-.416-.342-.032-.684-.06-1.026-.093-107.378-10.56-192.65-96.497-202.377-204.258-.037-.44-.084-.88-.12-1.317-.12-1.416-.213-2.84-.306-4.264-.06-.906-.122-1.815-.17-2.72-.063-1.161-.105-2.328-.15-3.493-.041-1.088-.083-2.176-.11-3.26-.026-1.1-.037-2.205-.048-3.309a255.34 255.34 0 0 1-.012-2.313c.002-.653-.002-1.306.006-1.96.004-.463.01-.927.018-1.388 1.262-70.45 34.726-133.026 86.277-173.604 1.104-.868 2.22-1.725 3.34-2.576l.477-.36a235.022 235.022 0 0 1 3.258-2.408c.183-.134.368-.266.551-.398a219.61 219.61 0 0 1 3.365-2.383l.23-.158a226.156 226.156 0 0 1 14.89-9.463l.604-.353c1.09-.63 2.19-1.25 3.292-1.861.331-.184.661-.369.993-.55a223.66 223.66 0 0 1 3.205-1.728c.358-.19.717-.375 1.075-.562a239.018 239.018 0 0 1 3.26-1.672c.287-.143.573-.282.86-.423a226.894 226.894 0 0 1 11.096-5.126c.32-.137.638-.278.959-.415a219.3 219.3 0 0 1 3.034-1.252c.546-.222 1.088-.444 1.636-.662a243.267 243.267 0 0 1 4.732-1.817c.927-.344 1.857-.684 2.79-1.016.665-.238 1.334-.469 2.002-.7a205.66 205.66 0 0 1 2.741-.936c.71-.235 1.423-.459 2.136-.687.891-.285 1.78-.577 2.675-.85a211.11 211.11 0 0 1 4.537-1.338c.787-.224 1.58-.431 2.37-.646.868-.236 1.735-.475 2.608-.7.795-.206 1.594-.4 2.392-.597.882-.218 1.764-.434 2.65-.642a208.57 208.57 0 0 1 2.37-.539 211.088 211.088 0 0 1 5.058-1.068c.99-.197 1.987-.383 2.984-.567.701-.13 1.403-.265 2.106-.387 1.27-.222 2.546-.427 3.822-.628.438-.068.873-.145 1.311-.21a223.08 223.08 0 0 1 5.111-.71c.566-.073 1.135-.134 1.701-.202 1.186-.142 2.373-.28 3.563-.404.668-.069 1.336-.13 2.005-.192a214.295 214.295 0 0 1 5.395-.45 233.22 233.22 0 0 1 3.362-.21c.666-.039 1.332-.076 2-.108 1.225-.058 2.454-.1 3.685-.138.56-.018 1.119-.042 1.681-.055 1.794-.042 3.593-.068 5.398-.068a233.227 233.227 0 0 1 10.552.255c.216.012.435.016.653.025 1.535.077 3.065.177 4.592.282.354.025.71.043 1.064.069 1.402.104 2.796.23 4.19.36.476.043.955.08 1.43.128 1.32.13 2.635.283 3.95.437.543.063 1.087.12 1.628.186a237.6 237.6 0 0 1 3.787.514c.583.082 1.166.16 1.75.245 1.223.183 2.44.386 3.658.588.611.102 1.224.2 1.833.304 1.19.209 2.37.434 3.552.66.632.123 1.268.238 1.898.366 1.159.232 2.31.48 3.462.73.646.14 1.294.277 1.94.422a264.6 264.6 0 0 1 3.39.802c.654.16 1.31.316 1.962.48 1.109.281 2.215.575 3.318.872.663.177 1.325.354 1.984.537 1.09.305 2.175.62 3.257.938.665.197 1.332.394 1.993.595 1.071.327 2.137.664 3.201 1.007.665.214 1.331.428 1.996.649a275.517 275.517 0 0 1 5.138 1.777 235.554 235.554 0 0 1 8.14 3.105 230.452 230.452 0 0 1 9.893 4.274c.647.298 1.291.6 1.935.905a210.084 210.084 0 0 1 4.835 2.356c.963.484 1.924.97 2.88 1.468a298.217 298.217 0 0 1 4.73 2.533c.621.342 1.238.69 1.855 1.038.94.53 1.877 1.06 2.807 1.603.611.355 1.218.72 1.826 1.081.925.55 1.849 1.103 2.765 1.666.6.368 1.195.745 1.79 1.118.914.575 1.828 1.148 2.733 1.734.587.38 1.167.769 1.75 1.153.902.597 1.806 1.194 2.7 1.804.57.389 1.133.787 1.7 1.18.895.622 1.791 1.246 2.678 1.88.55.395 1.093.8 1.642 1.2.888.648 1.775 1.295 2.652 1.956.533.402 1.057.812 1.586 1.218.882.676 1.767 1.352 2.64 2.042.498.395.988.798 1.483 1.197.888.716 1.78 1.428 2.66 2.157.457.38.906.77 1.361 1.154.904.76 1.808 1.52 2.7 2.298.384.334.762.678 1.144 1.016.95.837 1.901 1.675 2.836 2.528.203.187.403.379.608.566 3.622 3.33 7.14 6.772 10.539 10.328l.148.153c.848.889 1.679 1.795 2.514 2.698.372.404.752.802 1.122 1.209.74.81 1.462 1.636 2.189 2.458.452.513.912 1.018 1.36 1.535.674.778 1.333 1.567 1.997 2.353.486.576.978 1.146 1.458 1.727.63.762 1.247 1.536 1.868 2.306.496.618 1 1.231 1.491 1.854.6.76 1.187 1.534 1.778 2.303.494.644.992 1.285 1.48 1.935.574.762 1.134 1.535 1.699 2.307.489.67.983 1.336 1.467 2.013.546.767 1.083 1.543 1.621 2.317.482.69.965 1.38 1.438 2.076.525.772 1.04 1.554 1.555 2.333.471.712.944 1.422 1.407 2.14.5.776.99 1.56 1.482 2.342.46.733.923 1.465 1.374 2.203.48.783.948 1.571 1.418 2.36.446.75.894 1.501 1.334 2.258.456.789.904 1.582 1.352 2.377.434.769.866 1.536 1.291 2.311.436.796.865 1.598 1.293 2.4a196.324 196.324 0 0 1 2.471 4.774c.402.8.801 1.6 1.194 2.403.395.811.784 1.625 1.17 2.442a219.53 219.53 0 0 1 5.42 12.412 216.532 216.532 0 0 1 1.965 5.076c.313.837.622 1.676.925 2.517.313.869.616 1.738.918 2.611.292.846.584 1.694.867 2.545.292.879.575 1.76.856 2.644a185.243 185.243 0 0 1 1.603 5.247c.25.857.501 1.714.742 2.576.252.905.493 1.814.735 2.723.23.86.459 1.722.679 2.588.232.921.453 1.845.673 2.77.208.864.417 1.727.613 2.595.212.934.412 1.873.612 2.813.184.865.373 1.73.549 2.598.19.95.367 1.905.545 2.857.164.87.331 1.736.485 2.608.168.963.322 1.93.479 2.898.141.867.287 1.736.419 2.608.147.98.278 1.968.412 2.954.119.864.244 1.728.351 2.596.127 1.003.233 2.012.346 3.017.095.86.199 1.716.284 2.578.104 1.03.186 2.064.276 3.098.073.844.155 1.688.218 2.536.08 1.073.14 2.153.203 3.23.05.814.11 1.626.15 2.442.06 1.175.094 2.356.135 3.534.02.583.048 1.164.064 1.75l.022.899c.029 1.274.04 2.552.048 3.832.004.976-.004 1.954-.012 2.931-.012 1.104-.023 2.208-.049 3.308a228.145 228.145 0 0 1-.11 3.275 209.23 209.23 0 0 1-.148 3.468c-.049.925-.114 1.854-.173 2.782-.092 1.395-.184 2.79-.302 4.18-.04.488-.089.979-.132 1.469-9.763 107.696-94.95 193.553-202.262 204.152-.407.04-.812.073-1.22.11-1.62.152-3.248.288-4.879.404-.904.065-1.806.114-2.707.167-1.23.074-2.46.146-3.696.2-1.088.046-2.17.075-3.255.106-1.106.031-2.211.068-3.321.084-1.113.015-2.218.012-3.326.012-1.102 0-2.204.003-3.308-.012-1.117-.015-2.228-.051-3.34-.083-1.077-.03-2.153-.059-3.233-.105-1.258-.054-2.51-.128-3.764-.203-.87-.05-1.744-.098-2.618-.16z" fill="#FFF"/><path d="M895.647 1503.026c22.218 0 43.036-10.916 55.691-29.2l70.029-101.176c95.028 15.941 160.577 49.71 160.577 88.79 0 54.438-127.107 98.56-283.973 98.56C741.133 1560 614 1515.869 614 1461.44c0-38.51 63.644-71.858 156.411-88.076l69.545 100.465c12.658 18.282 33.476 29.197 55.691 29.197zm427.376-960.09c46.633 137.666 13.332 278.803-60.705 399.247a2478.025 2478.025 0 0 1-14.675 23.571c-1.513 2.4-3.054 4.783-4.574 7.179l-272.178 393.234-56.68 81.891c-3.996 5.774-10.006 8.971-16.239 9.609V910.512c28.942-1.414 56.444-8.286 81.511-19.612 63.711-28.056 111.638-85.19 127.135-154.742.307-1.382.578-2.762.862-4.142.18-.847.364-1.693.534-2.546.18-.9.344-1.806.514-2.71.17-.906.344-1.81.503-2.72.16-.922.304-1.85.454-2.775.146-.9.3-1.797.434-2.7.141-.944.263-1.894.393-2.842.122-.894.252-1.784.362-2.68.121-.969.222-1.942.33-2.914.098-.884.205-1.763.292-2.648.099-1 .18-2.008.265-3.011.074-.866.158-1.727.222-2.594.077-1.036.133-2.081.197-3.123.05-.84.113-1.678.155-2.52.055-1.116.085-2.236.125-3.353.026-.777.067-1.55.086-2.329.015-.607.013-1.22.024-1.83.004-.218.004-.436.007-.654.01-.692.022-1.386.026-2.081.002-.38.014-.757.014-1.138 0-.125-.005-.25-.005-.375 0-.11.005-.22.005-.332 0-.412-.014-.82-.016-1.234-.004-.847-.018-1.692-.031-2.536-.022-1.255-.05-2.508-.09-3.758a228.562 228.562 0 0 0-.295-6.302c-.051-.824-.099-1.647-.158-2.47a211.724 211.724 0 0 0-.32-3.908c-.066-.75-.124-1.501-.198-2.249a231.619 231.619 0 0 0-.505-4.56c-.06-.512-.11-1.026-.175-1.536a226.484 226.484 0 0 0-.843-6.041c-.075-.482-.162-.96-.239-1.444a231.558 231.558 0 0 0-.769-4.55c-.13-.725-.276-1.444-.413-2.164a238.463 238.463 0 0 0-.751-3.785c-.165-.787-.34-1.572-.513-2.357a241.86 241.86 0 0 0-.81-3.558 245.78 245.78 0 0 0-.585-2.392c-.29-1.17-.591-2.334-.902-3.497-.208-.782-.417-1.565-.632-2.346a234.148 234.148 0 0 0-1.028-3.561c-.217-.732-.428-1.464-.65-2.193a241.463 241.463 0 0 0-1.247-3.905c-.193-.589-.378-1.184-.575-1.77a218.896 218.896 0 0 0-1.963-5.604c-.063-.173-.13-.343-.195-.515-.62-1.683-1.26-3.357-1.918-5.02-.246-.62-.504-1.233-.754-1.85-.494-1.21-.987-2.42-1.5-3.62-.304-.708-.616-1.412-.926-2.117a220.294 220.294 0 0 0-1.474-3.296 254.285 254.285 0 0 0-2.549-5.367c-.353-.718-.706-1.433-1.065-2.146a236.527 236.527 0 0 0-1.648-3.197c-.355-.678-.709-1.36-1.072-2.033a225.311 225.311 0 0 0-1.853-3.364c-.33-.592-.655-1.189-.99-1.776a234.867 234.867 0 0 0-2.501-4.26c-.157-.26-.308-.525-.463-.784a230.183 230.183 0 0 0-3.096-4.957c-.313-.486-.636-.963-.95-1.446a224.781 224.781 0 0 0-2.273-3.427c-.413-.61-.837-1.21-1.257-1.815a220.162 220.162 0 0 0-2.095-2.98 281.448 281.448 0 0 0-3.487-4.723 223.62 223.62 0 0 0-3.63-4.661c-.486-.608-.971-1.216-1.463-1.819-.774-.95-1.561-1.888-2.352-2.826-.464-.55-.924-1.103-1.394-1.648a211.56 211.56 0 0 0-2.824-3.21c-.341-.383-.677-.774-1.022-1.154a220.251 220.251 0 0 0-3.957-4.26c-.296-.31-.6-.612-.897-.92a231.588 231.588 0 0 0-3.172-3.235c-.495-.493-.998-.974-1.497-1.462a226.83 226.83 0 0 0-2.686-2.594c-.558-.53-1.125-1.053-1.69-1.576a216.68 216.68 0 0 0-7.033-6.26 210.496 210.496 0 0 0-1.803-1.525 207.991 207.991 0 0 0-2.788-2.287c-.578-.468-1.154-.939-1.738-1.401a211.242 211.242 0 0 0-3.139-2.433c-.492-.377-.979-.76-1.476-1.133a222.591 222.591 0 0 0-4.7-3.445c-.07-.05-.144-.099-.215-.148a228.77 228.77 0 0 0-4.58-3.168c-.533-.36-1.075-.709-1.613-1.064a219.787 219.787 0 0 0-3.275-2.134c-.636-.406-1.28-.803-1.921-1.2a194.03 194.03 0 0 0-5.115-3.096 226.902 226.902 0 0 0-5.14-2.929 247.287 247.287 0 0 0-3.145-1.7c-.682-.361-1.36-.726-2.047-1.08a246.325 246.325 0 0 0-3.407-1.723c-.617-.306-1.23-.618-1.85-.92a219.233 219.233 0 0 0-4.36-2.053c-.323-.148-.64-.303-.963-.45a222.703 222.703 0 0 0-5.4-2.361c-.518-.22-1.042-.425-1.562-.641a226.685 226.685 0 0 0-3.913-1.582c-.688-.27-1.384-.528-2.076-.79a217.672 217.672 0 0 0-3.484-1.3c-.748-.268-1.499-.53-2.25-.793a231.046 231.046 0 0 0-5.714-1.911 220.562 220.562 0 0 0-3.442-1.065c-.765-.231-1.53-.463-2.299-.684-1.204-.35-2.414-.683-3.626-1.014-.718-.195-1.434-.394-2.155-.583a217.784 217.784 0 0 0-4.209-1.046c-.54-.13-1.078-.27-1.622-.397-1.95-.454-3.91-.883-5.882-1.286-.398-.082-.802-.151-1.2-.232a233.327 233.327 0 0 0-4.738-.894c-.71-.126-1.427-.237-2.14-.355a229.622 229.622 0 0 0-3.868-.618c-.797-.117-1.595-.226-2.394-.336a229.335 229.335 0 0 0-3.686-.48c-.827-.099-1.658-.194-2.49-.285a258.621 258.621 0 0 0-6.165-.594 209.476 209.476 0 0 0-3.796-.274c-.796-.053-1.59-.108-2.39-.152-.426-.023-.85-.05-1.278-.07V233h.007a451.6 451.6 0 0 1 6.97.069c2.055.038 4.111.092 6.17.16.275.01.549.016.824.024 1.882.066 3.766.148 5.652.238.402.02.805.035 1.207.055 2.213.112 4.43.241 6.648.39h.004c35.157 2.36 69.978 8.995 103.548 19.644a442.683 442.683 0 0 1 33.12 11.98c27.875 11.357 54.452 25.54 79.38 42.141a476.561 476.561 0 0 1 10.302 7.066 465.638 465.638 0 0 1 66.263 56.838l.293.308a467.514 467.514 0 0 1 23.9 26.771c.414.5.823 1.002 1.233 1.504a465.448 465.448 0 0 1 36.09 50.6 460.201 460.201 0 0 1 8.196 13.807 456.297 456.297 0 0 1 14.277 27.148 447.585 447.585 0 0 1 20.967 51.194z" fill="#3A0F2F"/></g></svg>