<svg class="cpicon-pray" width="1792" height="1792" viewBox="0 0 1792 1792" xmlns="http://www.w3.org/2000/svg"><title>Pray</title><g fill="none" fill-rule="evenodd"><path d="M890.492 300.72c18.218-16.343 35.004-33.54 53.878-47.984 103.789-79.49 249.573-69.494 339.536 23.233 43.852 45.201 64.64 100.95 71.767 162.885 8.812 76.785-15.65 144.657-53.915 208.951-42.532 71.483-97.537 132.74-157.336 189.835-75.414 72.023-156.83 136.547-243.686 194.217-6.655 4.406-11.071 4.509-17.761.034-116.031-77.763-223.71-165.382-316.725-270.15-49.108-55.324-92.592-114.74-119.13-184.637-35.716-94.107-28.225-185.419 27.33-269.369 72.707-109.85 222.07-140.722 337.756-73.035 27.929 16.345 52.562 36.622 73.73 61.155 1.709 1.99 3.58 3.84 4.556 4.864" fill="#34CBB5"/><path d="M679.54 1143.415c29.927 23.227 57.504 48.603 79.325 82.173 33.671 51.8 52.158 113.26 51.02 175.14a309.76 309.76 0 0 1-6.957 59.797c0 2.009-1 4.442-1.479 6.395-4.33 17.654-10.813 34.524-17.7 51.309-1.084 2.643-2.425 4.582-5.302 5.33-2.99.78-6.184.144-9.173-.315a989.074 989.074 0 0 1-12.92-2.067 726.816 726.816 0 0 1-24.196-4.441c-17.264-3.488-34.354-7.763-51.244-12.754-13.658-4.036-27.392-7.973-40.832-12.684-34.605-12.13-57.179-25.172-77.302-56.581-16.428-25.641-35.069-45.833-56.966-66.878-28.983-27.855-60.002-53.474-91.05-78.97a3560.456 3560.456 0 0 0-148.425-115.441c-104.829-77.186-155.606-205.194-163.248-331.966a601.007 601.007 0 0 1 .015-72.65c1.26-20.688.931-44.897 7.707-64.593 32.997.742 64.081 23.563 73.282 55.51 7.658 26.592 10.084 54.66 15.391 81.965 7.18 36.93 12.745 74.363 22.896 110.486 14.666 52.199 48.502 91.646 92.063 122.966 33.603 24.16 72.257 43.336 112.36 53.876 3.618.952 7.824 1.723 10.812-.53-23.622-24.154-49.948-45.588-71.219-72.006-25.792-32.035-47.916-67.15-70.045-101.935-7.977-12.54-14.256-28.803-15.05-43.743-.413-7.785 1.361-15.987 6.463-21.882 5.118-5.914 12.89-8.811 20.525-10.5 27.861-6.162 58.73.43 78.194 22.129 66.545 74.188 145.617 134.484 225.557 193.429l1.972 1.452c22.214 16.335 44.452 31.624 65.525 47.979zm1010.287-374.603a600.598 600.598 0 0 1 .015 72.65c-7.642 126.772-58.418 254.78-163.247 331.967a3559.614 3559.614 0 0 0-148.426 115.44c-31.048 25.496-62.067 51.115-91.05 78.97-21.897 21.046-40.538 41.237-56.966 66.878-20.122 31.409-42.696 44.45-77.302 56.58-13.44 4.712-27.173 8.649-40.832 12.685-16.89 4.99-33.98 9.267-51.243 12.754a726.874 726.874 0 0 1-24.196 4.44 972.288 972.288 0 0 1-12.92 2.068c-2.99.459-6.183 1.095-9.173.317-2.878-.75-4.22-2.69-5.303-5.332-6.886-16.785-13.37-33.655-17.7-51.31-.48-1.952-1.48-4.385-1.48-6.394a309.828 309.828 0 0 1-6.954-59.796c-1.14-61.88 17.348-123.34 51.019-175.141 21.82-33.57 49.398-58.946 79.325-82.173 21.073-16.354 43.31-31.644 65.525-47.98l1.972-1.45c79.94-58.945 159.012-119.241 225.558-193.43 19.463-21.698 50.333-28.291 78.193-22.13 7.636 1.69 15.408 4.587 20.526 10.5 5.102 5.896 6.876 14.098 6.462 21.883-.793 14.94-7.073 31.204-15.05 43.744-22.13 34.786-44.253 69.9-70.045 101.935-21.271 26.417-47.597 47.852-71.22 72.006 2.989 2.253 7.196 1.48 10.814.53 40.103-10.541 78.756-29.717 112.359-53.877 43.56-31.32 77.397-70.766 92.063-122.965 10.15-36.123 15.715-73.555 22.896-110.486 5.307-27.304 7.733-55.373 15.39-81.966 9.202-31.947 40.286-54.768 73.283-55.51 6.776 19.696 6.447 43.905 7.707 64.593z" fill="#3A0F2F"/><path d="M520.59 1514.028l18.105-66.333 266.905 72.85-18.105 66.333-266.905-72.85zm756.425 6.64l-266.904 72.85-18.106-66.334 266.905-72.85 18.105 66.334z" fill="#34CBB5"/><path d="M594.947 1504.017c5.497 14.736-1.995 31.138-16.732 36.632-14.736 5.497-31.138-1.995-36.634-16.733-5.496-14.736 1.997-31.137 16.733-36.634 14.737-5.494 31.139 1.996 36.633 16.735zm17.01 16.399c-2.826-7.578 1.028-16.013 8.606-18.84 7.58-2.826 16.015 1.026 18.84 8.606 2.827 7.578-1.026 16.014-8.605 18.839-7.578 2.827-16.013-1.025-18.84-8.605zm590.7-9.759c5.495-14.739 21.897-22.229 36.634-16.734 14.736 5.496 22.23 21.898 16.733 36.633-5.496 14.738-21.898 22.23-36.634 16.733-14.737-5.494-22.228-21.896-16.732-36.632zm-17.01 16.399c-2.826 7.578-11.261 11.431-18.84 8.604-7.578-2.825-11.431-11.26-8.604-18.839 2.825-7.58 11.26-11.431 18.84-8.605 7.578 2.827 11.432 11.26 8.605 18.84z" fill="#FFF"/></g></svg>