<svg class="cpicon-speech-bubble" width="1792" height="1792" viewBox="0 0 1792 1792" xmlns="http://www.w3.org/2000/svg"><title>Speech Bubble</title><g fill="none" fill-rule="evenodd"><path d="M1246.607 695.525c7.975-7.153 15.32-14.68 23.582-21.002 45.428-34.792 109.236-30.417 148.612 10.17 19.194 19.783 28.293 44.184 31.412 71.293 3.857 33.608-6.85 63.314-23.598 91.456-18.615 31.287-42.691 58.1-68.864 83.09-33.01 31.523-68.644 59.764-106.66 85.006-2.913 1.928-4.846 1.973-7.774.015-50.786-34.036-97.916-72.386-138.628-118.243-21.494-24.214-40.527-50.22-52.142-80.813-15.633-41.19-12.354-81.157 11.962-117.9 31.824-48.082 97.199-61.594 147.833-31.968 12.224 7.154 23.006 16.03 32.27 26.767.749.871 1.568 1.681 1.995 2.13" fill="#FFF"/><path d="M1690.58 468.148c37.843 0 68.804 30.944 68.824 68.774v633.882c-.02 37.831-30.981 68.775-68.823 68.775h-111.93l2.098 209.506.06 5.681c.216 21.563-24.886 33.534-41.51 19.8l-2.052-1.696-282.33-233.29h-508.5c-37.854 0-68.83-30.966-68.83-68.814V536.961c0-37.848 30.976-68.813 68.83-68.813h944.164zm-443.973 227.377c-.427-.448-1.246-1.258-1.994-2.129-9.265-10.738-20.047-19.613-32.271-26.767-50.634-29.626-116.01-16.114-147.833 31.967-24.316 36.744-27.595 76.711-11.962 117.901 11.615 30.592 30.648 56.6 52.142 80.813 40.712 45.857 87.842 84.207 138.628 118.243 2.928 1.958 4.86 1.913 7.774-.015 38.016-25.242 73.65-53.483 106.66-85.007 26.173-24.99 50.249-51.802 68.864-83.089 16.748-28.142 27.455-57.848 23.598-91.456-3.12-27.109-12.218-51.51-31.412-71.294-39.376-40.586-103.184-44.96-148.612-10.169-8.261 6.322-15.607 13.85-23.582 21.002z" fill="#3A0F2F"/><path fill="#FFF" d="M179 552.003h788v-89H179zm0 119h788v-94H179zm0 129h382v-89H179z"/><path d="M179 671h788v-94H179v94zm0-119h788v-89H179v89zm0 248h382v-89H179v89zm-78.164 283.224H212.78l-2.092 209.448-.061 5.68c-.215 21.558 24.891 33.525 43.565 18.1l282.383-233.228h508.588c37.856 0 68.837-30.957 68.837-68.795V380.794c0-37.837-30.981-68.794-68.837-68.794H100.836C62.976 312 32 342.957 32 380.794v633.635c0 37.838 30.976 68.795 68.836 68.795z" fill="#34CBB5"/></g></svg>