<svg class="cpicon-sports" width="1792" height="1792" viewBox="0 0 1792 1792" xmlns="http://www.w3.org/2000/svg" xmlns:xlink="http://www.w3.org/1999/xlink"><title>Sports</title><defs><path id="a" d="M0 .309h849.634v861.69H0z"/></defs><g fill="none" fill-rule="evenodd"><path d="M642.053 1493.821h1012.624c26.69-10.983 37.43-30.544 37.36-59.667-.575-233.123-.334-466.252-.116-699.381.01-13.347-4.58-21.45-17.911-25.327-30.306-8.8-51.491-29.883-68.557-55.012-33.744-49.684-51.113-106.008-63.86-163.96-15.407-70.049-21.02-141.065-20.312-212.679.208-20.94-4.285-25.907-24.896-28.516-24.406-3.087-48.818-6.127-73.23-9.189 3.11 39.356 3.893 78.636-2.395 117.832-13.833 86.287-46.918 163.171-112.407 223.013-99.533 90.956-232.837 86.93-327.594-9.216-58.578-59.443-89.507-132.372-102.35-213.888-6.17-39.206-5.622-78.476-2.353-117.831-26.86 3.253-53.737 6.378-80.572 9.817-12.257 1.57-18.364 8.785-18.257 22.025.313 37.785-.858 75.522-4.643 113.094-8.876 88.209-25.104 174.549-69.5 252.939-18.995 33.558-43.36 61.573-82.477 73.015-11.016 3.226-13.375 12.665-13.337 23.606.265 80.841.165 161.675.17 242.515 0 151.421.484 302.848-.437 454.258-.18 29.006 8.743 49.87 35.05 62.552" fill="#3A0F2F"/><path d="M1423.487 239.911L1354.513 233c-21.363 21.068-45.92 37.852-72.299 51.736-25.761 13.564-53.375 21.607-82.038 27.618-34.409 7.222-69.073 6.487-102.122-.345-52.493-10.852-101.224-32.694-140.74-71.057-2.933-2.841-6.229-5.309-9.36-7.952l-71.592 6.786c-3.263 39.403-3.743 79.524 2.428 118.767 12.85 81.604 43.775 154.612 102.357 214.118 94.766 96.25 228.08 100.285 327.621 9.231 65.495-59.912 98.582-136.873 112.422-223.253 6.283-39.238 5.407-79.341 2.297-118.738" fill="#FFF"/><path d="M1151.17 390.652c-90.626.372-172.136-24.864-233.6-98.652-1.49 15.757.246 29.6 1.699 43.348 7.823 74.213 31.942 141.893 81.302 199.243 78.116 90.78 197.076 98.999 282.599 17.427 73.665-70.275 98.684-160.702 100.387-259.769-61.15 72.29-142.122 98.036-232.386 98.403" fill="#3A0F2F"/><g transform="translate(99 698)"><path d="M849.634 431.154C849.634 669.106 659.438 862 424.814 862 190.198 862 0 669.106 0 431.154 0 193.201 190.197.308 424.815.308c234.623 0 424.819 192.893 424.819 430.846" fill="#34CBB5"/><mask id="b" fill="#fff"><use xlink:href="#a"/></mask><path d="M669.79 417.705c2.47-85.783 25.399-171.221 69.577-247.404 3.052-5.268 6.95-11.562 10.273-16.831a431.94 431.94 0 0 0-14.081-16.098c-53.555 84.119-82.993 182.379-86.126 280.333-.048 1.48-.106 3.164-.143 4.645l-208.705-.007V.604a425.65 425.65 0 0 0-15.771-.295c-4.966 0-9.912.093-14.837.265v421.769H202.206c-.006-.302-.02-.603-.026-.905-.027-1.245-.071-2.488-.106-3.733-2.802-99.784-32.536-197.783-86.801-281.623a433.27 433.27 0 0 0-14.856 16.878c37.474 59.012 63.486 125.673 74.77 196.595 3.787 23.785 5.679 47.82 6.148 71.883.006.302.018.603.022.905H.096A445.108 445.108 0 0 0 0 431.155c0 4.022.06 8.03.167 12.026l91.526.414 3.845.018v.086h85.826c-.003.1-.01.202-.011.303-2.605 95.045-31.866 186.627-81.211 265.016a431.529 431.529 0 0 0 14.642 16.682c41.119-62.903 69.599-134.72 81.169-210.736 3.365-22.104 5.378-44.334 6.103-66.65.046-1.406.1-2.811.136-4.217.003-.133.009-.265.013-.398h2.552v-.023h205.22v4.638l-.005 413.42c4.926.173 9.874.266 14.842.266 5.28 0 10.538-.101 15.77-.295V443.676h207.66v-.041l.11.04c.023 1.548.069 3.093.103 4.639 2.099 96.104 29.293 191.86 82.52 275.807.642 1.009 1.535 2.272 2.238 3.339a431.307 431.307 0 0 0 14.375-16.183c-49.16-79.291-75.913-171.091-78.418-262.963-.043-1.546-.096-3.091-.125-4.638H849.45c.117-4.16.183-8.333.183-12.521 0-2.946-.038-5.881-.096-8.812l-179.871.036c.03-1.481.08-3.194.123-4.674" fill="#FFF" mask="url(#b)"/></g></g></svg>