<svg class="cpicon-document" width="1792" height="1792" viewBox="0 0 1792 1792" xmlns="http://www.w3.org/2000/svg"><title>Document</title><g fill="none" fill-rule="evenodd"><path d="M1409.191 230H656.925C635.52 230 618 247.484 618 268.854v1139.449c0 21.37 17.52 38.854 38.925 38.854h752.266c21.405 0 38.918-17.484 38.918-38.854V268.854c0-21.37-17.513-38.854-38.918-38.854" fill="#3A0F2F"/><path d="M1310.71 1001.116l-.021-.001-.022.001-9.218-.001V714.346l55.442.005v286.77l-46.181-.005zm46.181-434.632v129.389l-55.442-.005v-129.39l55.442.006zm18.478-9.238a9.23 9.23 0 0 0-9.239-9.239l-73.92-.007a9.216 9.216 0 0 0-6.534 2.705 9.229 9.229 0 0 0-2.705 6.534v10.185c-21.07 4.287-36.976 22.961-36.971 45.277l.007 147.848a9.23 9.23 0 0 0 9.239 9.238 9.209 9.209 0 0 0 6.534-2.705 9.212 9.212 0 0 0 2.705-6.533l-.006-147.848c0-12.054 7.73-22.326 18.492-26.139v423.792a9.23 9.23 0 0 0 9.239 9.24l9.239.001v46.207a9.216 9.216 0 0 0 2.705 6.535 9.236 9.236 0 0 0 6.535 2.706l9.239-.002v46.197a9.23 9.23 0 0 0 9.239 9.239 9.215 9.215 0 0 0 6.534-2.705 9.213 9.213 0 0 0 2.705-6.534v-46.201l9.245-.002a9.211 9.211 0 0 0 6.535-2.705 9.217 9.217 0 0 0 2.705-6.533v-46.198h9.239a9.203 9.203 0 0 0 6.534-2.705 9.276 9.276 0 0 0 2.712-6.54l-.007-453.108z" fill="#FFF"/><path d="M1134.19 344H381.925C360.519 344 343 361.485 343 382.855v1139.448c0 21.371 17.519 38.855 38.925 38.855h752.265c21.406 0 38.919-17.484 38.919-38.855V382.855c0-21.37-17.513-38.855-38.919-38.855" fill="#34CBB5"/><path d="M416 822.795v-73.463h683.506v73.463H416zm0-99.602v-77.591h683.506v77.591H416zm352.162-103.729V546h331.344v73.464H768.162zM416 1026.718v-73.464h683.506v73.464H416zm0-99.603v-77.59h683.506v77.59H416zm0 201.268v-73.463h331.344v73.463H416zm683.205 227.72c0 51.972-42.131 94.103-94.103 94.103-51.971 0-94.102-42.131-94.102-94.103 0-51.972 42.131-94.103 94.102-94.103 51.972 0 94.103 42.131 94.103 94.103zm-108.905 21.03c-.446-.413-.69-.623-.918-.85-5.575-5.573-11.104-11.192-16.747-16.695-1.846-1.8-3.837-3.54-6.022-4.886-6.245-3.842-12.065-1.534-14.281 5.47-.097.308-.19.62-.257.937-.815 3.813-.561 7.354 2.409 10.311 8.345 8.31 16.637 16.673 25.01 24.955 1.87 1.851 3.904 3.563 6.004 5.152 3.015 2.28 6.205 2.287 9.25.032 1.858-1.376 3.688-2.829 5.32-4.457 18.656-18.59 37.288-37.204 55.854-55.883 1.078-1.084 1.812-2.704 2.233-4.206.834-2.97.203-5.896-1.127-8.634-2.47-5.082-7.143-6.832-12.15-4.203-2.498 1.312-4.852 3.113-6.863 5.105-15.61 15.472-31.12 31.042-46.656 46.588-.36.36-.658.781-1.06 1.263z" fill="#FFF"/></g></svg>