<svg class="cpicon-building" width="1792" height="1792" viewBox="0 0 1792 1792" xmlns="http://www.w3.org/2000/svg"><title>Building</title><g fill="none" fill-rule="evenodd"><path d="M1137 614v833.797h365.289c14.663 0 26.66-11.978 26.66-26.617V640.617c0-14.638-11.997-26.617-26.66-26.617H1137zm-498.711 0H275.666C261.002 614 249 625.979 249 640.617v780.563c0 14.639 12.002 26.617 26.666 26.617h362.623V614z" fill="#3A0F2F"/><path d="M321 816.262V750h78.227v66.262H321zm118 0V750h78.226v66.262H439zm-118 114V864h78.227v66.262H321zm118 0V864h78.226v66.262H439zm-118 112.001V976h78.227v66.263H321zm118 0V976h78.226v66.263H439zm835-226.001V750h78.227v66.262H1274zm117 0V750h78.226v66.262H1391zm-117 114V864h78.226v66.262H1274zm117 0V864h78.226v66.262H1391zm-117 112.001V976h78.227v66.263H1274zm117 0V976h78.226v66.263H1391zM745 1445v-316h300.02v316h4.582v3.682H1045v-3.098H745.602v3.098H741V1445h4zM640 491.914V387h123.321v104.914H640zm186 0V387h123.321v104.914H826zm187 0V387h123.321v104.914H1013zM640 671.915V567h123.321v104.915H640zm186 0V567h123.321v104.915H826zm187 0V567h123.321v104.915H1013zm-373 178V745h123.321v104.915H640zm186 0V745h123.321v104.915H826zm187 0V745h123.321v104.915H1013z" fill="#FFF"/><path d="M639.196 850.445h123.321V745.53H639.196v104.915zm0-177.619h123.321V567.911H639.196v104.915zm0-180.38h123.321V387.532H639.196v104.914zm185.901 357.999h123.321V745.53H825.097v104.915zm0-177.619h123.321V567.911H825.097v104.915zm0-180.38h123.321V387.532H825.097v104.914zM745.03 1445.28h300.02v-316.584H745.03v316.584zm267.81-594.835h123.321V745.53H1012.84v104.915zm0-177.619h123.321V567.911H1012.84v104.915zm0-180.38h123.321V387.532H1012.84v104.914zm208.91 953.436V298.409c0-36.676-29.718-66.409-66.376-66.409H631.027c-36.658 0-66.376 29.733-66.376 66.409v1147.473H168v112.277h1455.923v-112.277H1221.75z" fill="#34CBB5"/></g></svg>