<svg class="cpicon-printer" width="1792" height="1792" viewBox="0 0 1792 1792" xmlns="http://www.w3.org/2000/svg"><title>Printer, Scanner, Copier</title><g fill="none" fill-rule="evenodd"><path d="M1575.558 561.754H217.312c-60.703 0-110.117 49.31-110.312 109.994v549.355c.195 60.685 49.609 109.994 110.312 109.994h1358.246c60.83 0 110.317-49.503 110.317-110.353V672.107c0-60.849-49.487-110.353-110.317-110.353" fill="#3A0F2F"/><path d="M1300.984 1216.156H492.078c-22.593 0-41.078-18.485-41.078-41.078 0-22.593 18.485-41.078 41.078-41.078h808.906c22.593 0 41.078 18.485 41.078 41.078 0 22.593-18.485 41.078-41.078 41.078zm295.619-422.355c0 21.43-17.372 38.801-38.802 38.801-21.428 0-38.801-17.371-38.801-38.801 0-21.43 17.373-38.801 38.801-38.801 21.43 0 38.802 17.371 38.802 38.801zm0 119c0 21.43-17.372 38.801-38.802 38.801-21.428 0-38.801-17.371-38.801-38.801 0-21.43 17.373-38.801 38.801-38.801 21.43 0 38.802 17.371 38.802 38.801zm-1156.47-75.645H239.078c-22.592 0-41.078-18.485-41.078-41.078C198 773.484 216.486 755 239.078 755h201.055c22.593 0 41.078 18.484 41.078 41.078 0 22.593-18.485 41.078-41.078 41.078z" fill="#FFF"/><path d="M1272.19 232c21.406 0 38.919 17.485 38.919 38.855v290.729H481V270.855c0-21.37 17.519-38.855 38.925-38.855h752.265zM483 1134h830.109v387.464c0 21.371-17.512 38.855-38.918 38.855H521.926c-21.405 0-38.926-17.484-38.926-38.855V1134z" fill="#34CBB5"/><path d="M556 1432.463V1359h331.344v73.463H556zm0-101.999V1257h683.505v73.464H556zm0-98.874V1154h683.505v77.59H556zm-1-693V461h683.506v77.59H555zm352-103.126V362h331.344v73.464H907z" fill="#FFF"/></g></svg>